{
    "asset" : {
        "generator" : "Khronos glTF Blender I/O v3.4.50",
        "version" : "2.0"
    },
    "scene" : 0,
    "scenes" : [
        {
            "name" : "Scene",
            "nodes" : [
                0,
                1,
                2,
                3,
                4,
                5,
                6
            ]
        }
    ],
    "nodes" : [
        {
            "mesh" : 0,
            "name" : "Sphere.021",
            "rotation" : [
                -0.0026571881026029587,
                -0.8991355895996094,
                0.0011641384335234761,
                0.4376605451107025
            ],
            "scale" : [
                0.06569711118936539,
                0.044560737907886505,
                0.041598305106163025
            ],
            "translation" : [
                -0.6659621596336365,
                -0.09003099799156189,
                -0.0911361500620842
            ]
        },
        {
            "mesh" : 1,
            "name" : "NurbsCurve.002",
            "rotation" : [
                0.6259783506393433,
                0.28698205947875977,
                -0.3439805507659912,
                0.6383336782455444
            ],
            "scale" : [
                -0.060219645500183105,
                -0.4822915494441986,
                -0.3314712345600128
            ],
            "translation" : [
                -0.643187940120697,
                0.14481286704540253,
                -0.04453156515955925
            ]
        },
        {
            "mesh" : 2,
            "name" : "NurbsCurve.003",
            "rotation" : [
                -0.7449852824211121,
                0.2507815957069397,
                0.44415467977523804,
                0.42992112040519714
            ],
            "scale" : [
                0.14608323574066162,
                1.0225539207458496,
                0.6745278239250183
            ],
            "translation" : [
                -0.7351627945899963,
                0.45315295457839966,
                -0.5710426568984985
            ]
        },
        {
            "mesh" : 3,
            "name" : "NurbsCurve.004",
            "rotation" : [
                -0.8003214597702026,
                0.2774305045604706,
                0.4228014349937439,
                0.3221130967140198
            ],
            "scale" : [
                0.14645154774188995,
                1.0506489276885986,
                0.7002860903739929
            ],
            "translation" : [
                -0.770171582698822,
                0.3264850378036499,
                -0.7001668214797974
            ]
        },
        {
            "mesh" : 4,
            "name" : "NurbsCurve.005",
            "rotation" : [
                0.5884225964546204,
                0.2847663462162018,
                -0.17341305315494537,
                0.7366104125976562
            ],
            "scale" : [
                -0.14645154774188995,
                -1.0506489276885986,
                -0.7002860903739929
            ],
            "translation" : [
                -1.087005853652954,
                0.48266664147377014,
                0.11493076384067535
            ]
        },
        {
            "mesh" : 5,
            "name" : "NurbsCurve.006",
            "rotation" : [
                0.6315746307373047,
                0.20852990448474884,
                -0.25194427371025085,
                0.7029600739479065
            ],
            "scale" : [
                -0.14608323574066162,
                -1.0225539207458496,
                -0.6745278239250183
            ],
            "translation" : [
                -0.9255398511886597,
                0.5465945601463318,
                0.14245334267616272
            ]
        },
        {
            "mesh" : 6,
            "name" : "NurbsCurve.001",
            "rotation" : [
                -0.6657430529594421,
                0.255195677280426,
                0.3400782346725464,
                0.6131950616836548
            ],
            "scale" : [
                0.06021964177489281,
                0.48229148983955383,
                0.3314712345600128
            ],
            "translation" : [
                -0.6412215828895569,
                0.14177767932415009,
                -0.10988461226224899
            ]
        }
    ],
    "materials" : [
        {
            "doubleSided" : true,
            "name" : "Material.006",
            "pbrMetallicRoughness" : {
                "baseColorFactor" : [
                    0.5906185507774353,
                    0.33716318011283875,
                    0.4677838087081909,
                    1
                ],
                "metallicFactor" : 0,
                "roughnessFactor" : 0.5
            }
        },
        {
            "doubleSided" : true,
            "name" : "Material",
            "pbrMetallicRoughness" : {
                "baseColorFactor" : [
                    0.9386847615242004,
                    1,
                    0.8962695002555847,
                    1
                ],
                "metallicFactor" : 0,
                "roughnessFactor" : 0.4000000059604645
            }
        },
        {
            "doubleSided" : true,
            "name" : "Material.005",
            "pbrMetallicRoughness" : {
                "baseColorFactor" : [
                    0,
                    0,
                    0,
                    1
                ],
                "metallicFactor" : 0,
                "roughnessFactor" : 0.20000000298023224
            }
        },
        {
            "doubleSided" : true,
            "name" : "Material.018",
            "pbrMetallicRoughness" : {
                "baseColorFactor" : [
                    0,
                    0,
                    0,
                    1
                ],
                "metallicFactor" : 0,
                "roughnessFactor" : 0.20000000298023224
            }
        },
        {
            "doubleSided" : true,
            "name" : "Material.010",
            "pbrMetallicRoughness" : {
                "baseColorFactor" : [
                    0.06662588566541672,
                    0.06847812235355377,
                    0.07036010921001434,
                    1
                ],
                "metallicFactor" : 0,
                "roughnessFactor" : 1
            }
        },
        {
            "doubleSided" : true,
            "name" : "Material.019",
            "pbrMetallicRoughness" : {
                "baseColorFactor" : [
                    0.06662588566541672,
                    0.06847812235355377,
                    0.07036010921001434,
                    1
                ],
                "metallicFactor" : 0,
                "roughnessFactor" : 1
            }
        }
    ],
    "meshes" : [
        {
            "name" : "Sphere.023",
            "primitives" : [
                {
                    "attributes" : {
                        "POSITION" : 0,
                        "TEXCOORD_0" : 1,
                        "NORMAL" : 2
                    },
                    "indices" : 3,
                    "material" : 0
                },
                {
                    "attributes" : {
                        "POSITION" : 4,
                        "TEXCOORD_0" : 5,
                        "NORMAL" : 6
                    },
                    "indices" : 7,
                    "material" : 1
                },
                {
                    "attributes" : {
                        "POSITION" : 8,
                        "TEXCOORD_0" : 9,
                        "NORMAL" : 10
                    },
                    "indices" : 11,
                    "material" : 2
                },
                {
                    "attributes" : {
                        "POSITION" : 12,
                        "TEXCOORD_0" : 13,
                        "NORMAL" : 14
                    },
                    "indices" : 11,
                    "material" : 3
                }
            ]
        },
        {
            "name" : "NurbsCurve.002",
            "primitives" : [
                {
                    "attributes" : {
                        "POSITION" : 15,
                        "TEXCOORD_0" : 16,
                        "NORMAL" : 17
                    },
                    "indices" : 18,
                    "material" : 4
                }
            ]
        },
        {
            "name" : "NurbsCurve.003",
            "primitives" : [
                {
                    "attributes" : {
                        "POSITION" : 19,
                        "TEXCOORD_0" : 20,
                        "NORMAL" : 21
                    },
                    "indices" : 18,
                    "material" : 4
                }
            ]
        },
        {
            "name" : "NurbsCurve.004",
            "primitives" : [
                {
                    "attributes" : {
                        "POSITION" : 22,
                        "TEXCOORD_0" : 23,
                        "NORMAL" : 24
                    },
                    "indices" : 18,
                    "material" : 4
                }
            ]
        },
        {
            "name" : "NurbsCurve.005",
            "primitives" : [
                {
                    "attributes" : {
                        "POSITION" : 25,
                        "TEXCOORD_0" : 26,
                        "NORMAL" : 27
                    },
                    "indices" : 18,
                    "material" : 4
                }
            ]
        },
        {
            "name" : "NurbsCurve.006",
            "primitives" : [
                {
                    "attributes" : {
                        "POSITION" : 28,
                        "TEXCOORD_0" : 29,
                        "NORMAL" : 30
                    },
                    "indices" : 18,
                    "material" : 4
                }
            ]
        },
        {
            "name" : "NurbsCurve.014",
            "primitives" : [
                {
                    "attributes" : {
                        "POSITION" : 31,
                        "TEXCOORD_0" : 32,
                        "NORMAL" : 33
                    },
                    "indices" : 18,
                    "material" : 5
                }
            ]
        }
    ],
    "accessors" : [
        {
            "bufferView" : 0,
            "componentType" : 5126,
            "count" : 1677,
            "max" : [
                11.448591232299805,
                20.670452117919922,
                22.68185806274414
            ],
            "min" : [
                -10.92041015625,
                -0.9147683382034302,
                -0.9807852506637573
            ],
            "type" : "VEC3"
        },
        {
            "bufferView" : 1,
            "componentType" : 5126,
            "count" : 1677,
            "type" : "VEC2"
        },
        {
            "bufferView" : 2,
            "componentType" : 5126,
            "count" : 1677,
            "type" : "VEC3"
        },
        {
            "bufferView" : 3,
            "componentType" : 5123,
            "count" : 8640,
            "type" : "SCALAR"
        },
        {
            "bufferView" : 4,
            "componentType" : 5126,
            "count" : 1677,
            "max" : [
                17.66466522216797,
                23.66750144958496,
                45.123985290527344
            ],
            "min" : [
                -17.378833770751953,
                -21.364086151123047,
                -0.6901111602783203
            ],
            "type" : "VEC3"
        },
        {
            "bufferView" : 5,
            "componentType" : 5126,
            "count" : 1677,
            "type" : "VEC2"
        },
        {
            "bufferView" : 6,
            "componentType" : 5126,
            "count" : 1677,
            "type" : "VEC3"
        },
        {
            "bufferView" : 7,
            "componentType" : 5123,
            "count" : 8640,
            "type" : "SCALAR"
        },
        {
            "bufferView" : 8,
            "componentType" : 5126,
            "count" : 559,
            "max" : [
                3.252415180206299,
                4.6853837966918945,
                0.8370693922042847
            ],
            "min" : [
                1.7192076444625854,
                2.0070242881774902,
                -0.18513000011444092
            ],
            "type" : "VEC3"
        },
        {
            "bufferView" : 9,
            "componentType" : 5126,
            "count" : 559,
            "type" : "VEC2"
        },
        {
            "bufferView" : 10,
            "componentType" : 5126,
            "count" : 559,
            "type" : "VEC3"
        },
        {
            "bufferView" : 11,
            "componentType" : 5123,
            "count" : 2880,
            "type" : "SCALAR"
        },
        {
            "bufferView" : 12,
            "componentType" : 5126,
            "count" : 559,
            "max" : [
                -1.647724986076355,
                4.624061584472656,
                0.8058611154556274
            ],
            "min" : [
                -3.1854710578918457,
                1.9481419324874878,
                -0.18952041864395142
            ],
            "type" : "VEC3"
        },
        {
            "bufferView" : 13,
            "componentType" : 5126,
            "count" : 559,
            "type" : "VEC2"
        },
        {
            "bufferView" : 14,
            "componentType" : 5126,
            "count" : 559,
            "type" : "VEC3"
        },
        {
            "bufferView" : 15,
            "componentType" : 5126,
            "count" : 492,
            "max" : [
                0.7696747183799744,
                0.02200000174343586,
                -0.7946996092796326
            ],
            "min" : [
                -0.8201203942298889,
                -0.02200000174343586,
                -0.9772551655769348
            ],
            "type" : "VEC3"
        },
        {
            "bufferView" : 16,
            "componentType" : 5126,
            "count" : 492,
            "type" : "VEC2"
        },
        {
            "bufferView" : 17,
            "componentType" : 5126,
            "count" : 492,
            "type" : "VEC3"
        },
        {
            "bufferView" : 18,
            "componentType" : 5123,
            "count" : 2580,
            "type" : "SCALAR"
        },
        {
            "bufferView" : 19,
            "componentType" : 5126,
            "count" : 492,
            "max" : [
                0.7388035655021667,
                0.010000000707805157,
                -0.9102055430412292
            ],
            "min" : [
                -0.8876336812973022,
                -0.010000000707805157,
                -0.9888622760772705
            ],
            "type" : "VEC3"
        },
        {
            "bufferView" : 20,
            "componentType" : 5126,
            "count" : 492,
            "type" : "VEC2"
        },
        {
            "bufferView" : 21,
            "componentType" : 5126,
            "count" : 492,
            "type" : "VEC3"
        },
        {
            "bufferView" : 22,
            "componentType" : 5126,
            "count" : 492,
            "max" : [
                0.7388035655021667,
                0.010000000707805157,
                -0.9102055430412292
            ],
            "min" : [
                -0.8876336812973022,
                -0.010000000707805157,
                -0.9888622760772705
            ],
            "type" : "VEC3"
        },
        {
            "bufferView" : 23,
            "componentType" : 5126,
            "count" : 492,
            "type" : "VEC2"
        },
        {
            "bufferView" : 24,
            "componentType" : 5126,
            "count" : 492,
            "type" : "VEC3"
        },
        {
            "bufferView" : 25,
            "componentType" : 5126,
            "count" : 492,
            "max" : [
                0.7388035655021667,
                0.010000000707805157,
                -0.9102055430412292
            ],
            "min" : [
                -0.8876336812973022,
                -0.010000000707805157,
                -0.9888622760772705
            ],
            "type" : "VEC3"
        },
        {
            "bufferView" : 26,
            "componentType" : 5126,
            "count" : 492,
            "type" : "VEC2"
        },
        {
            "bufferView" : 27,
            "componentType" : 5126,
            "count" : 492,
            "type" : "VEC3"
        },
        {
            "bufferView" : 28,
            "componentType" : 5126,
            "count" : 492,
            "max" : [
                0.7388035655021667,
                0.010000000707805157,
                -0.9102055430412292
            ],
            "min" : [
                -0.8876336812973022,
                -0.010000000707805157,
                -0.9888622760772705
            ],
            "type" : "VEC3"
        },
        {
            "bufferView" : 29,
            "componentType" : 5126,
            "count" : 492,
            "type" : "VEC2"
        },
        {
            "bufferView" : 30,
            "componentType" : 5126,
            "count" : 492,
            "type" : "VEC3"
        },
        {
            "bufferView" : 31,
            "componentType" : 5126,
            "count" : 492,
            "max" : [
                0.7696747183799744,
                0.02200000174343586,
                -0.7946996092796326
            ],
            "min" : [
                -0.8201203942298889,
                -0.02200000174343586,
                -0.9772551655769348
            ],
            "type" : "VEC3"
        },
        {
            "bufferView" : 32,
            "componentType" : 5126,
            "count" : 492,
            "type" : "VEC2"
        },
        {
            "bufferView" : 33,
            "componentType" : 5126,
            "count" : 492,
            "type" : "VEC3"
        }
    ],
    "bufferViews" : [
        {
            "buffer" : 0,
            "byteLength" : 20124,
            "byteOffset" : 0,
            "target" : 34962
        },
        {
            "buffer" : 0,
            "byteLength" : 13416,
            "byteOffset" : 20124,
            "target" : 34962
        },
        {
            "buffer" : 0,
            "byteLength" : 20124,
            "byteOffset" : 33540,
            "target" : 34962
        },
        {
            "buffer" : 0,
            "byteLength" : 17280,
            "byteOffset" : 53664,
            "target" : 34963
        },
        {
            "buffer" : 0,
            "byteLength" : 20124,
            "byteOffset" : 70944,
            "target" : 34962
        },
        {
            "buffer" : 0,
            "byteLength" : 13416,
            "byteOffset" : 91068,
            "target" : 34962
        },
        {
            "buffer" : 0,
            "byteLength" : 20124,
            "byteOffset" : 104484,
            "target" : 34962
        },
        {
            "buffer" : 0,
            "byteLength" : 17280,
            "byteOffset" : 124608,
            "target" : 34963
        },
        {
            "buffer" : 0,
            "byteLength" : 6708,
            "byteOffset" : 141888,
            "target" : 34962
        },
        {
            "buffer" : 0,
            "byteLength" : 4472,
            "byteOffset" : 148596,
            "target" : 34962
        },
        {
            "buffer" : 0,
            "byteLength" : 6708,
            "byteOffset" : 153068,
            "target" : 34962
        },
        {
            "buffer" : 0,
            "byteLength" : 5760,
            "byteOffset" : 159776,
            "target" : 34963
        },
        {
            "buffer" : 0,
            "byteLength" : 6708,
            "byteOffset" : 165536,
            "target" : 34962
        },
        {
            "buffer" : 0,
            "byteLength" : 4472,
            "byteOffset" : 172244,
            "target" : 34962
        },
        {
            "buffer" : 0,
            "byteLength" : 6708,
            "byteOffset" : 176716,
            "target" : 34962
        },
        {
            "buffer" : 0,
            "byteLength" : 5904,
            "byteOffset" : 183424,
            "target" : 34962
        },
        {
            "buffer" : 0,
            "byteLength" : 3936,
            "byteOffset" : 189328,
            "target" : 34962
        },
        {
            "buffer" : 0,
            "byteLength" : 5904,
            "byteOffset" : 193264,
            "target" : 34962
        },
        {
            "buffer" : 0,
            "byteLength" : 5160,
            "byteOffset" : 199168,
            "target" : 34963
        },
        {
            "buffer" : 0,
            "byteLength" : 5904,
            "byteOffset" : 204328,
            "target" : 34962
        },
        {
            "buffer" : 0,
            "byteLength" : 3936,
            "byteOffset" : 210232,
            "target" : 34962
        },
        {
            "buffer" : 0,
            "byteLength" : 5904,
            "byteOffset" : 214168,
            "target" : 34962
        },
        {
            "buffer" : 0,
            "byteLength" : 5904,
            "byteOffset" : 220072,
            "target" : 34962
        },
        {
            "buffer" : 0,
            "byteLength" : 3936,
            "byteOffset" : 225976,
            "target" : 34962
        },
        {
            "buffer" : 0,
            "byteLength" : 5904,
            "byteOffset" : 229912,
            "target" : 34962
        },
        {
            "buffer" : 0,
            "byteLength" : 5904,
            "byteOffset" : 235816,
            "target" : 34962
        },
        {
            "buffer" : 0,
            "byteLength" : 3936,
            "byteOffset" : 241720,
            "target" : 34962
        },
        {
            "buffer" : 0,
            "byteLength" : 5904,
            "byteOffset" : 245656,
            "target" : 34962
        },
        {
            "buffer" : 0,
            "byteLength" : 5904,
            "byteOffset" : 251560,
            "target" : 34962
        },
        {
            "buffer" : 0,
            "byteLength" : 3936,
            "byteOffset" : 257464,
            "target" : 34962
        },
        {
            "buffer" : 0,
            "byteLength" : 5904,
            "byteOffset" : 261400,
            "target" : 34962
        },
        {
            "buffer" : 0,
            "byteLength" : 5904,
            "byteOffset" : 267304,
            "target" : 34962
        },
        {
            "buffer" : 0,
            "byteLength" : 3936,
            "byteOffset" : 273208,
            "target" : 34962
        },
        {
            "buffer" : 0,
            "byteLength" : 5904,
            "byteOffset" : 277144,
            "target" : 34962
        }
    ],
    "buffers" : [
        {
            "byteLength" : 283048,
            "uri" : "haru.bin"
        }
    ]
}
