<svg width="37" height="37" viewBox="0 0 37 37" fill="none" xmlns="http://www.w3.org/2000/svg">
<path opacity="0.25" fill-rule="evenodd" clip-rule="evenodd" d="M18.5 36C28.165 36 36 28.165 36 18.5C36 8.83502 28.165 1 18.5 1C8.83502 1 1 8.83502 1 18.5C1 28.165 8.83502 36 18.5 36Z" stroke="#0A142F" stroke-width="1.5"/>
<path d="M14.4835 14.9671C15.3029 14.9671 15.9671 14.3029 15.9671 13.4835C15.9671 12.6642 15.3029 12 14.4835 12C13.6642 12 13 12.6642 13 13.4835C13 14.3029 13.6642 14.9671 14.4835 14.9671Z" fill="#0A142F"/>
<path d="M15.7198 15.9581H13.2473C13.1108 15.9581 13 16.0689 13 16.2054V23.6231C13 23.7596 13.1108 23.8704 13.2473 23.8704H15.7198C15.8563 23.8704 15.9671 23.7596 15.9671 23.6231V16.2054C15.9671 16.0689 15.8563 15.9581 15.7198 15.9581Z" fill="#0A142F"/>
<path d="M23.0883 15.5467C22.0315 15.1848 20.7097 15.5027 19.917 16.0729C19.8898 15.9666 19.7928 15.8875 19.6776 15.8875H17.205C17.0685 15.8875 16.9578 15.9982 16.9578 16.1347V23.5525C16.9578 23.6889 17.0685 23.7997 17.205 23.7997H19.6776C19.8141 23.7997 19.9249 23.6889 19.9249 23.5525V18.2216C20.3244 17.8774 20.8392 17.7676 21.2606 17.9466C21.669 18.1192 21.9029 18.5405 21.9029 19.1018V23.5525C21.9029 23.6889 22.0137 23.7997 22.1502 23.7997H24.6228C24.7593 23.7997 24.87 23.6889 24.87 23.5525V18.6038C24.8418 16.5719 23.8859 15.8197 23.0883 15.5467Z" fill="#0A142F"/>
</svg>
