<svg width="19" height="22" viewBox="0 0 19 22" fill="none" xmlns="http://www.w3.org/2000/svg">
<path fill-rule="evenodd" clip-rule="evenodd" d="M3.8 0.5H3.77169C3.09572 0.499992 2.55041 0.499986 2.13189 0.541505C1.71576 0.582789 1.31619 0.672391 1.01699 0.939532C0.705933 1.21726 0.596364 1.60092 0.547579 1.99294C0.499971 2.37551 0.499984 2.86998 0.500001 3.4662V3.46622V3.5V3.51473V3.52964V3.54472V3.55996V3.57537V3.59096V3.60671V3.62262V3.63871V3.65496V3.67137V3.68795V3.70469V3.72159V3.73866V3.75589V3.77328V3.79083V3.80854V3.82641V3.84443V3.86262V3.88096V3.89946V3.91811V3.93692V3.95588V3.97499V3.99426V4.01368V4.03326V4.05298V4.07285V4.09288V4.11305V4.13337V4.15383V4.17445V4.19521V4.21611V4.23717V4.25836V4.2797V4.30118V4.3228V4.34457V4.36647V4.38852V4.41071V4.43303V4.45549V4.47809V4.50083V4.5237V4.54671V4.56985V4.59313V4.61654V4.64008V4.66376V4.68756V4.7115V4.73557V4.75977V4.78409V4.80855V4.83313V4.85783V4.88267V4.90763V4.93271V4.95792V4.98325V5.00871V5.03428V5.05998V5.0858V5.11174V5.13779V5.16397V5.19027V5.21668V5.24321V5.26985V5.29661V5.32348V5.35047V5.37757V5.40479V5.43212V5.45955V5.4871V5.51476V5.54253V5.57041V5.59839V5.62648V5.65468V5.68298V5.71139V5.73991V5.76852V5.79725V5.82607V5.85499V5.88402V5.91315V5.94238V5.9717V6.00113V6.03065V6.06027V6.08999V6.1198V6.14971V6.17971V6.20981V6.24V6.27028V6.30066V6.33112V6.36168V6.39232V6.42306V6.45388V6.48479V6.51579V6.54688V6.57805V6.6093V6.64064V6.67207V6.70357V6.73516V6.76684V6.79859V6.83042V6.86233V6.89433V6.9264V6.95855V6.99077V7.02307V7.05545V7.0879V7.12043V7.15303V7.18571V7.21845V7.25127V7.28416V7.31712V7.35015V7.38325V7.41642V7.44965V7.48295V7.51632V7.54975V7.58325V7.61682V7.65044V7.68413V7.71789V7.7517V7.78557V7.81951V7.8535V7.88756V7.92167V7.95584V7.99007V8.02435V8.05869V8.09308V8.12753V8.16203V8.19659V8.2312V8.26586V8.30057V8.33533V8.37014V8.40499V8.4399V8.47486V8.50986V8.54491V8.58V8.61514V8.65032V8.68555V8.72082V8.75613V8.79148V8.82687V8.86231V8.89778V8.9333V8.96885V9.00443V9.04006V9.07572V9.11142V9.14715V9.18291V9.21871V9.25455V9.29041V9.32631V9.36224V9.39819V9.43418V9.47019V9.50624V9.54231V9.57841V9.61453V9.65068V9.68686V9.72305V9.75928V9.79552V9.83179V9.86808V9.90438V9.94071V9.97706V10.0134V10.0498V10.0862V10.1226V10.1591V10.1955V10.232V10.2685V10.305V10.3415V10.378V10.4145V10.4511V10.4876V10.5242V10.5607V10.5973V10.6339V10.6705V10.7071V10.7437V10.7803V10.8169V10.8535V10.8901V10.9268V10.9634V11V11.0366V11.0732V11.1099V11.1465V11.1831V11.2197V11.2563V11.2929V11.3295V11.3661V11.4027V11.4393V11.4758V11.5124V11.5489V11.5855V11.622V11.6585V11.695V11.7315V11.768V11.8045V11.8409V11.8774V11.9138V11.9502V11.9866V12.0229V12.0593V12.0956V12.1319V12.1682V12.2045V12.2407V12.2769V12.3131V12.3493V12.3855V12.4216V12.4577V12.4938V12.5298V12.5658V12.6018V12.6378V12.6737V12.7096V12.7455V12.7813V12.8171V12.8529V12.8886V12.9243V12.9599V12.9956V13.0312V13.0667V13.1022V13.1377V13.1731V13.2085V13.2439V13.2792V13.3145V13.3497V13.3849V13.42V13.4551V13.4901V13.5251V13.5601V13.595V13.6299V13.6647V13.6994V13.7341V13.7688V13.8034V13.838V13.8725V13.9069V13.9413V13.9756V14.0099V14.0442V14.0783V14.1124V14.1465V14.1805V14.2144V14.2483V14.2821V14.3159V14.3496V14.3832V14.4167V14.4502V14.4837V14.517V14.5504V14.5836V14.6168V14.6499V14.6829V14.7158V14.7487V14.7815V14.8143V14.847V14.8796V14.9121V14.9445V14.9769V15.0092V15.0415V15.0736V15.1057V15.1377V15.1696V15.2014V15.2332V15.2648V15.2964V15.3279V15.3594V15.3907V15.422V15.4531V15.4842V15.5152V15.5461V15.5769V15.6077V15.6383V15.6689V15.6993V15.7297V15.76V15.7902V15.8203V15.8503V15.8802V15.91V15.9397V15.9693V15.9989V16.0283V16.0576V16.0869V16.116V16.145V16.1739V16.2028V16.2315V16.2601V16.2886V16.317V16.3453V16.3735V16.4016V16.4296V16.4575V16.4852V16.5129V16.5404V16.5679V16.5952V16.6224V16.6495V16.6765V16.7034V16.7302V16.7568V16.7833V16.8097V16.836V16.8622V16.8883V16.9142V16.94V16.9657V16.9913V17.0167V17.0421V17.0673V17.0924V17.1173V17.1422V17.1669V17.1915V17.2159V17.2402V17.2644V17.2885V17.3124V17.3362V17.3599V17.3835V17.4069V17.4301V17.4533V17.4763V17.4992V17.5219V17.5445V17.567V17.5893V17.6115V17.6335V17.6554V17.6772V17.6988V17.7203V17.7416V17.7628V17.7839V17.8048V17.8256V17.8462V17.8666V17.887V17.9071V17.9271V17.947V17.9667V17.9863V18.0057V18.025V18.0441V18.0631V18.0819V18.1005V18.119V18.1374V18.1556V18.1736V18.1915V18.2092V18.2267V18.2441V18.2613V18.2784V18.2953V18.3121V18.3286V18.345V18.3613V18.3774V18.3933V18.409V18.4246V18.44V18.4553V18.4704V18.4853V18.5V18.5338V18.5338C0.499984 19.13 0.499971 19.6245 0.547579 20.0071C0.596364 20.3991 0.705933 20.7827 1.01699 21.0605C1.31619 21.3276 1.71576 21.4172 2.13189 21.4585C2.55039 21.5 3.09567 21.5 3.7716 21.5H3.77167H3.8H3.81317H3.82643H3.83978H3.85322H3.86674H3.88035H3.89406H3.90785H3.92172H3.93568H3.94973H3.96387H3.97809H3.9924H4.00679H4.02126H4.03583H4.05047H4.0652H4.08001H4.09491H4.10989H4.12495H4.14009H4.15532H4.17062H4.18601H4.20148H4.21703H4.23266H4.24837H4.26416H4.28003H4.29598H4.31201H4.32811H4.34429H4.36055H4.37689H4.39331H4.4098H4.42637H4.44301H4.45973H4.47653H4.4934H4.51034H4.52736H4.54446H4.56162H4.57886H4.59618H4.61357H4.63102H4.64856H4.66616H4.68383H4.70158H4.7194H4.73728H4.75524H4.77327H4.79137H4.80953H4.82777H4.84607H4.86444H4.88288H4.90139H4.91997H4.93861H4.95732H4.97609H4.99493H5.01384H5.03281H5.05184H5.07095H5.09011H5.10934H5.12863H5.14799H5.16741H5.18689H5.20644H5.22604H5.24571H5.26544H5.28523H5.30508H5.325H5.34497H5.365H5.38509H5.40524H5.42545H5.44572H5.46604H5.48643H5.50687H5.52737H5.54792H5.56854H5.5892H5.60993H5.63071H5.65154H5.67243H5.69338H5.71437H5.73543H5.75653H5.77769H5.7989H5.82017H5.84149H5.86285H5.88428H5.90575H5.92727H5.94884H5.97047H5.99214H6.01387H6.03564H6.05746H6.07933H6.10125H6.12322H6.14523H6.1673H6.18941H6.21156H6.23377H6.25601H6.27831H6.30065H6.32303H6.34546H6.36794H6.39046H6.41302H6.43563H6.45828H6.48097H6.5037H6.52648H6.5493H6.57216H6.59506H6.618H6.64099H6.66401H6.68707H6.71017H6.73332H6.7565H6.77972H6.80298H6.82627H6.84961H6.87298H6.89638H6.91983H6.94331H6.96683H6.99038H7.01397H7.03759H7.06125H7.08494H7.10867H7.13243H7.15622H7.18005H7.20391H7.2278H7.25172H7.27568H7.29966H7.32368H7.34773H7.37181H7.39592H7.42006H7.44423H7.46843H7.49265H7.51691H7.54119H7.56551H7.58985H7.61421H7.63861H7.66303H7.68747H7.71194H7.73644H7.76097H7.78551H7.81009H7.83468H7.8593H7.88395H7.90862H7.93331H7.95802H7.98276H8.00752H8.0323H8.0571H8.08192H8.10676H8.13163H8.15651H8.18141H8.20634H8.23128H8.25624H8.28122H8.30621H8.33123H8.35626H8.38131H8.40638H8.43146H8.45656H8.48167H8.5068H8.53195H8.55711H8.58228H8.60747H8.63268H8.65789H8.68312H8.70837H8.73362H8.75889H8.78417H8.80946H8.83476H8.86008H8.8854H8.91074H8.93608H8.96143H8.9868H9.01217H9.03755H9.06294H9.08834H9.11374H9.13916H9.16458H9.19H9.21544H9.24087H9.26632H9.29177H9.31722H9.34268H9.36815H9.39362H9.41909H9.44456H9.47004H9.49553H9.52101H9.5465H9.57199H9.59748H9.62297H9.64846H9.67395H9.69944H9.72494H9.75043H9.77592H9.80141H9.8269H9.85239H9.87787H9.90335H9.92883H9.95431H9.97979H10.0053H10.0307H10.0562H10.0816H10.1071H10.1325H10.158H10.1834H10.2088H10.2343H10.2597H10.2851H10.3105H10.3359H10.3613H10.3866H10.412H10.4374H10.4627H10.4881H10.5134H10.5387H10.564H10.5893H10.6146H10.6399H10.6651H10.6904H10.7156H10.7408H10.766H10.7912H10.8164H10.8416H10.8667H10.8919H10.917H10.9421H10.9672H10.9922H11.0173H11.0423H11.0674H11.0924H11.1174H11.1423H11.1673H11.1922H11.2171H11.242H11.2669H11.2917H11.3166H11.3414H11.3662H11.3909H11.4157H11.4404H11.4651H11.4898H11.5144H11.539H11.5637H11.5882H11.6128H11.6373H11.6618H11.6863H11.7108H11.7352H11.7596H11.784H11.8083H11.8327H11.857H11.8812H11.9055H11.9297H11.9538H11.978H12.0021H12.0262H12.0503H12.0743H12.0983H12.1223H12.1462H12.1701H12.194H12.2178H12.2416H12.2654H12.2891H12.3128H12.3365H12.3602H12.3838H12.4073H12.4308H12.4543H12.4778H12.5012H12.5246H12.548H12.5713H12.5945H12.6178H12.641H12.6641H12.6872H12.7103H12.7334H12.7564H12.7793H12.8022H12.8251H12.8479H12.8707H12.8935H12.9162H12.9389H12.9615H12.9841H13.0066H13.0291H13.0515H13.0739H13.0963H13.1186H13.1409H13.1631H13.1853H13.2074H13.2295H13.2515H13.2735H13.2954H13.3173H13.3392H13.361H13.3827H13.4044H13.426H13.4476H13.4692H13.4907H13.5121H13.5335H13.5548H13.5761H13.5974H13.6185H13.6397H13.6607H13.6818H13.7027H13.7236H13.7445H13.7653H13.786H13.8067H13.8274H13.8479H13.8685H13.8889H13.9093H13.9297H13.95H13.9702H13.9904H14.0105H14.0305H14.0505H14.0705H14.0903H14.1102H14.1299H14.1496H14.1692H14.1888H14.2083H14.2277H14.2471H14.2664H14.2857H14.3049H14.324H14.3431H14.3621H14.381H14.3999H14.4187H14.4374H14.4561H14.4747H14.4932H14.5117H14.5301H14.5484H14.5667H14.5849H14.603H14.621H14.639H14.6569H14.6748H14.6925H14.7102H14.7279H14.7454H14.7629H14.7803H14.7977H14.815H14.8321H14.8493H14.8663H14.8833H14.9002H14.917H14.9338H14.9504H14.967H14.9836H15C15.2761 21.5 15.5 21.2761 15.5 21C15.5 20.7239 15.2761 20.5 15 20.5H14.9836H14.967H14.9504H14.9338H14.917H14.9002H14.8833H14.8663H14.8493H14.8321H14.815H14.7977H14.7803H14.7629H14.7454H14.7279H14.7102H14.6925H14.6748H14.6569H14.639H14.621H14.603H14.5849H14.5667H14.5484H14.5301H14.5117H14.4932H14.4747H14.4561H14.4374H14.4187H14.3999H14.381H14.3621H14.3431H14.324H14.3049H14.2857H14.2664H14.2471H14.2277H14.2083H14.1888H14.1692H14.1496H14.1299H14.1102H14.0903H14.0705H14.0505H14.0305H14.0105H13.9904H13.9702H13.95H13.9297H13.9093H13.8889H13.8685H13.8479H13.8274H13.8067H13.786H13.7653H13.7445H13.7236H13.7027H13.6818H13.6607H13.6397H13.6185H13.5974H13.5761H13.5548H13.5335H13.5121H13.4907H13.4692H13.4476H13.426H13.4044H13.3827H13.361H13.3392H13.3173H13.2954H13.2735H13.2515H13.2295H13.2074H13.1853H13.1631H13.1409H13.1186H13.0963H13.0739H13.0515H13.0291H13.0066H12.9841H12.9615H12.9389H12.9162H12.8935H12.8707H12.8479H12.8251H12.8022H12.7793H12.7564H12.7334H12.7103H12.6872H12.6641H12.641H12.6178H12.5945H12.5713H12.548H12.5246H12.5012H12.4778H12.4543H12.4308H12.4073H12.3838H12.3602H12.3365H12.3128H12.2891H12.2654H12.2416H12.2178H12.194H12.1701H12.1462H12.1223H12.0983H12.0743H12.0503H12.0262H12.0021H11.978H11.9538H11.9297H11.9055H11.8812H11.857H11.8327H11.8083H11.784H11.7596H11.7352H11.7108H11.6863H11.6618H11.6373H11.6128H11.5882H11.5637H11.539H11.5144H11.4898H11.4651H11.4404H11.4157H11.3909H11.3662H11.3414H11.3166H11.2917H11.2669H11.242H11.2171H11.1922H11.1673H11.1423H11.1174H11.0924H11.0674H11.0423H11.0173H10.9922H10.9672H10.9421H10.917H10.8919H10.8667H10.8416H10.8164H10.7912H10.766H10.7408H10.7156H10.6904H10.6651H10.6399H10.6146H10.5893H10.564H10.5387H10.5134H10.4881H10.4627H10.4374H10.412H10.3866H10.3613H10.3359H10.3105H10.2851H10.2597H10.2343H10.2088H10.1834H10.158H10.1325H10.1071H10.0816H10.0562H10.0307H10.0053H9.97979H9.95431H9.92883H9.90335H9.87787H9.85239H9.8269H9.80141H9.77592H9.75043H9.72494H9.69944H9.67395H9.64846H9.62297H9.59748H9.57199H9.5465H9.52101H9.49553H9.47004H9.44456H9.41909H9.39362H9.36815H9.34268H9.31722H9.29177H9.26632H9.24087H9.21544H9.19H9.16458H9.13916H9.11374H9.08834H9.06294H9.03755H9.01217H8.9868H8.96143H8.93608H8.91074H8.8854H8.86008H8.83476H8.80946H8.78417H8.75889H8.73362H8.70837H8.68312H8.65789H8.63268H8.60747H8.58228H8.55711H8.53195H8.5068H8.48167H8.45656H8.43146H8.40638H8.38131H8.35626H8.33123H8.30621H8.28122H8.25624H8.23128H8.20634H8.18141H8.15651H8.13163H8.10676H8.08192H8.0571H8.0323H8.00752H7.98276H7.95802H7.93331H7.90862H7.88395H7.8593H7.83468H7.81009H7.78551H7.76097H7.73644H7.71194H7.68747H7.66303H7.63861H7.61421H7.58985H7.56551H7.54119H7.51691H7.49265H7.46843H7.44423H7.42006H7.39592H7.37181H7.34773H7.32368H7.29966H7.27568H7.25172H7.2278H7.20391H7.18005H7.15622H7.13243H7.10867H7.08494H7.06125H7.03759H7.01397H6.99038H6.96683H6.94331H6.91983H6.89638H6.87298H6.84961H6.82627H6.80298H6.77972H6.7565H6.73332H6.71017H6.68707H6.66401H6.64099H6.618H6.59506H6.57216H6.5493H6.52648H6.5037H6.48097H6.45828H6.43563H6.41302H6.39046H6.36794H6.34546H6.32303H6.30065H6.27831H6.25601H6.23377H6.21156H6.18941H6.1673H6.14523H6.12322H6.10125H6.07933H6.05746H6.03564H6.01387H5.99214H5.97047H5.94884H5.92727H5.90575H5.88428H5.86285H5.84149H5.82017H5.7989H5.77769H5.75653H5.73543H5.71437H5.69338H5.67243H5.65154H5.63071H5.60993H5.5892H5.56854H5.54792H5.52737H5.50687H5.48643H5.46604H5.44572H5.42545H5.40524H5.38509H5.365H5.34497H5.325H5.30508H5.28523H5.26544H5.24571H5.22604H5.20644H5.18689H5.16741H5.14799H5.12863H5.10934H5.09011H5.07095H5.05184H5.03281H5.01384H4.99493H4.97609H4.95732H4.93861H4.91997H4.90139H4.88288H4.86444H4.84607H4.82777H4.80953H4.79137H4.77327H4.75524H4.73728H4.7194H4.70158H4.68383H4.66616H4.64856H4.63102H4.61357H4.59618H4.57886H4.56162H4.54446H4.52736H4.51034H4.4934H4.47653H4.45973H4.44301H4.42637H4.4098H4.39331H4.37689H4.36055H4.34429H4.32811H4.31201H4.29598H4.28003H4.26416H4.24837H4.23266H4.21703H4.20148H4.18601H4.17062H4.15532H4.14009H4.12495H4.10989H4.09491H4.08001H4.0652H4.05047H4.03583H4.02126H4.00679H3.9924H3.97809H3.96387H3.94973H3.93568H3.92172H3.90785H3.89406H3.88035H3.86674H3.85322H3.83978H3.82643H3.81317H3.8C3.08907 20.5 2.59377 20.4994 2.23061 20.4634C1.85925 20.4265 1.73381 20.3599 1.68301 20.3145C1.64407 20.2798 1.57864 20.1947 1.53992 19.8836C1.50093 19.5702 1.5 19.1387 1.5 18.5V18.4853V18.4704V18.4553V18.44V18.4246V18.409V18.3933V18.3774V18.3613V18.345V18.3286V18.3121V18.2953V18.2784V18.2613V18.2441V18.2267V18.2092V18.1915V18.1736V18.1556V18.1374V18.119V18.1005V18.0819V18.0631V18.0441V18.025V18.0057V17.9863V17.9667V17.947V17.9271V17.9071V17.887V17.8666V17.8462V17.8256V17.8048V17.7839V17.7628V17.7416V17.7203V17.6988V17.6772V17.6554V17.6335V17.6115V17.5893V17.567V17.5445V17.5219V17.4992V17.4763V17.4533V17.4301V17.4069V17.3835V17.3599V17.3362V17.3124V17.2885V17.2644V17.2402V17.2159V17.1915V17.1669V17.1422V17.1173V17.0924V17.0673V17.0421V17.0167V16.9913V16.9657V16.94V16.9142V16.8883V16.8622V16.836V16.8097V16.7833V16.7568V16.7302V16.7034V16.6765V16.6495V16.6224V16.5952V16.5679V16.5404V16.5129V16.4852V16.4575V16.4296V16.4016V16.3735V16.3453V16.317V16.2886V16.2601V16.2315V16.2028V16.1739V16.145V16.116V16.0869V16.0576V16.0283V15.9989V15.9693V15.9397V15.91V15.8802V15.8503V15.8203V15.7902V15.76V15.7297V15.6993V15.6689V15.6383V15.6077V15.5769V15.5461V15.5152V15.4842V15.4531V15.422V15.3907V15.3594V15.3279V15.2964V15.2648V15.2332V15.2014V15.1696V15.1377V15.1057V15.0736V15.0415V15.0092V14.9769V14.9445V14.9121V14.8796V14.847V14.8143V14.7815V14.7487V14.7158V14.6829V14.6499V14.6168V14.5836V14.5504V14.517V14.4837V14.4502V14.4167V14.3832V14.3496V14.3159V14.2821V14.2483V14.2144V14.1805V14.1465V14.1124V14.0783V14.0442V14.0099V13.9756V13.9413V13.9069V13.8725V13.838V13.8034V13.7688V13.7341V13.6994V13.6647V13.6299V13.595V13.5601V13.5251V13.4901V13.4551V13.42V13.3849V13.3497V13.3145V13.2792V13.2439V13.2085V13.1731V13.1377V13.1022V13.0667V13.0312V12.9956V12.9599V12.9243V12.8886V12.8529V12.8171V12.7813V12.7455V12.7096V12.6737V12.6378V12.6018V12.5658V12.5298V12.4938V12.4577V12.4216V12.3855V12.3493V12.3131V12.2769V12.2407V12.2045V12.1682V12.1319V12.0956V12.0593V12.0229V11.9866V11.9502V11.9138V11.8774V11.8409V11.8045V11.768V11.7315V11.695V11.6585V11.622V11.5855V11.5489V11.5124V11.4758V11.4393V11.4027V11.3661V11.3295V11.2929V11.2563V11.2197V11.1831V11.1465V11.1099V11.0732V11.0366V11V10.9634V10.9268V10.8901V10.8535V10.8169V10.7803V10.7437V10.7071V10.6705V10.6339V10.5973V10.5607V10.5242V10.4876V10.4511V10.4145V10.378V10.3415V10.305V10.2685V10.232V10.1955V10.1591V10.1226V10.0862V10.0498V10.0134V9.97706V9.94071V9.90438V9.86808V9.83179V9.79552V9.75928V9.72305V9.68686V9.65068V9.61453V9.57841V9.54231V9.50624V9.47019V9.43418V9.39819V9.36224V9.32631V9.29041V9.25455V9.21871V9.18291V9.14715V9.11142V9.07572V9.04006V9.00443V8.96885V8.9333V8.89778V8.86231V8.82687V8.79148V8.75613V8.72082V8.68555V8.65032V8.61514V8.58V8.54491V8.50986V8.47486V8.4399V8.40499V8.37014V8.33533V8.30057V8.26586V8.2312V8.19659V8.16203V8.12753V8.09308V8.05869V8.02435V7.99007V7.95584V7.92167V7.88756V7.8535V7.81951V7.78557V7.7517V7.71789V7.68413V7.65044V7.61682V7.58325V7.54975V7.51632V7.48295V7.44965V7.41642V7.38325V7.35015V7.31712V7.28416V7.25127V7.21845V7.18571V7.15303V7.12043V7.0879V7.05545V7.02307V6.99077V6.95855V6.9264V6.89433V6.86233V6.83042V6.79859V6.76684V6.73516V6.70357V6.67207V6.64064V6.6093V6.57805V6.54688V6.51579V6.48479V6.45388V6.42306V6.39232V6.36168V6.33112V6.30066V6.27028V6.24V6.20981V6.17971V6.14971V6.1198V6.08999V6.06027V6.03065V6.00113V5.9717V5.94238V5.91315V5.88402V5.85499V5.82607V5.79725V5.76852V5.73991V5.71139V5.68298V5.65468V5.62648V5.59839V5.57041V5.54253V5.51476V5.4871V5.45955V5.43212V5.40479V5.37757V5.35047V5.32348V5.29661V5.26985V5.24321V5.21668V5.19027V5.16397V5.13779V5.11174V5.0858V5.05998V5.03428V5.00871V4.98325V4.95792V4.93271V4.90763V4.88267V4.85783V4.83313V4.80855V4.78409V4.75977V4.73557V4.7115V4.68756V4.66376V4.64008V4.61654V4.59313V4.56985V4.54671V4.5237V4.50083V4.47809V4.45549V4.43303V4.41071V4.38852V4.36647V4.34457V4.3228V4.30118V4.2797V4.25836V4.23717V4.21611V4.19521V4.17445V4.15383V4.13337V4.11305V4.09288V4.07285V4.05298V4.03326V4.01368V3.99426V3.97499V3.95588V3.93692V3.91811V3.89946V3.88096V3.86262V3.84443V3.82641V3.80854V3.79083V3.77328V3.75589V3.73866V3.72159V3.70469V3.68795V3.67137V3.65496V3.63871V3.62262V3.60671V3.59096V3.57537V3.55996V3.54472V3.52964V3.51473V3.5C1.5 2.86135 1.50093 2.42979 1.53992 2.11643C1.57864 1.80533 1.64407 1.72024 1.68301 1.68547C1.73381 1.64011 1.85925 1.57346 2.23061 1.53662C2.59377 1.50059 3.08907 1.5 3.8 1.5H3.81317H3.82643H3.83978H3.85322H3.86674H3.88035H3.89406H3.90785H3.92172H3.93568H3.94973H3.96387H3.97809H3.9924H4.00679H4.02126H4.03583H4.05047H4.0652H4.08001H4.09491H4.10989H4.12495H4.14009H4.15532H4.17062H4.18601H4.20148H4.21703H4.23266H4.24837H4.26416H4.28003H4.29598H4.31201H4.32811H4.34429H4.36055H4.37689H4.39331H4.4098H4.42637H4.44301H4.45973H4.47653H4.4934H4.51034H4.52736H4.54446H4.56162H4.57886H4.59618H4.61357H4.63102H4.64856H4.66616H4.68383H4.70158H4.7194H4.73728H4.75524H4.77327H4.79137H4.80953H4.82777H4.84607H4.86444H4.88288H4.90139H4.91997H4.93861H4.95732H4.97609H4.99493H5.01384H5.03281H5.05184H5.07095H5.09011H5.10934H5.12863H5.14799H5.16741H5.18689H5.20644H5.22604H5.24571H5.26544H5.28523H5.30508H5.325H5.34497H5.365H5.38509H5.40524H5.42545H5.44572H5.46604H5.48643H5.50687H5.52737H5.54792H5.56854H5.5892H5.60993H5.63071H5.65154H5.67243H5.69338H5.71437H5.73543H5.75653H5.77769H5.7989H5.82017H5.84149H5.86285H5.88428H5.90575H5.92727H5.94884H5.97047H5.99214H6.01387H6.03564H6.05746H6.07933H6.10125H6.12322H6.14523H6.1673H6.18941H6.21156H6.23377H6.25601H6.27831H6.30065H6.32303H6.34546H6.36794H6.39046H6.41302H6.43563H6.45828H6.48097H6.5037H6.52648H6.5493H6.57216H6.59506H6.618H6.64099H6.66401H6.68707H6.71017H6.73332H6.7565H6.77972H6.80298H6.82627H6.84961H6.87298H6.89638H6.91983H6.94331H6.96683H6.99038H7.01397H7.03759H7.06125H7.08494H7.10867H7.13243H7.15622H7.18005H7.20391H7.2278H7.25172H7.27568H7.29966H7.32368H7.34773H7.37181H7.39592H7.42006H7.44423H7.46843H7.49265H7.51691H7.54119H7.56551H7.58985H7.61421H7.63861H7.66303H7.68747H7.71194H7.73644H7.76097H7.78551H7.81009H7.83468H7.8593H7.88395H7.90862H7.93331H7.95802H7.98276H8.00752H8.0323H8.0571H8.08192H8.10676H8.13163H8.15651H8.18141H8.20634H8.23128H8.25624H8.28122H8.30621H8.33123H8.35626H8.38131H8.40638H8.43146H8.45656H8.48167H8.5068H8.53195H8.55711H8.58228H8.60747H8.63268H8.65789H8.68312H8.70837H8.73362H8.75889H8.78417H8.80946H8.83476H8.86008H8.8854H8.91074H8.93608H8.96143H8.9868H9.01217H9.03755H9.06294H9.08834H9.11374H9.13916H9.16458H9.19H9.21544H9.24087H9.26632H9.29177H9.31722H9.34268H9.36815H9.39362H9.41909H9.44456H9.47004H9.49553H9.52101H9.5465H9.57199H9.59748H9.62297H9.64846H9.67395H9.69944H9.72494H9.75043H9.77592H9.80141H9.8269H9.85239H9.87787H9.90335H9.92883H9.95431H9.97979H10.0053H10.0307H10.0562H10.0816H10.1071H10.1325H10.158H10.1834H10.2088H10.2343H10.2597H10.2851H10.3105H10.3359H10.3613H10.3866H10.412H10.4374H10.4627H10.4881H10.5134H10.5387H10.564H10.5893H10.6146H10.6399H10.6651H10.6904H10.7156H10.7408H10.766H10.7912H10.8164H10.8416H10.8667H10.8919H10.917H10.9421H10.9672H10.9922H11.0173H11.0423H11.0674H11.0924H11.1174H11.1423H11.1673H11.1922H11.2171H11.242H11.2669H11.2917H11.3166H11.3414H11.3662H11.3909H11.4157H11.4404H11.4651H11.4898H11.5144H11.539H11.5637H11.5882H11.6128H11.6373H11.6618H11.6863H11.7108H11.7352H11.7596H11.784H11.8083H11.8327H11.857H11.8812H11.9055H11.9297H11.9538H11.978H12.0021H12.0262H12.0503H12.0743H12.0983H12.1223H12.1462H12.1701H12.194H12.2178H12.2416H12.2654H12.2891H12.3128H12.3365H12.3602H12.3838H12.4073H12.4308H12.4543H12.4778H12.5012H12.5246H12.548H12.5713H12.5945H12.6178H12.641H12.6641H12.6872H12.7103H12.7334H12.7564H12.7793H12.8022H12.8251H12.8479H12.8707H12.8935H12.9162H12.9389H12.9615H12.9841H13.0066H13.0291H13.0515H13.0739H13.0963H13.1186H13.1409H13.1631H13.1853H13.2074H13.2295H13.2515H13.2735H13.2954H13.3173H13.3392H13.361H13.3827H13.4044H13.426H13.4476H13.4692H13.4907H13.5121H13.5335H13.5548H13.5761H13.5974H13.6185H13.6397H13.6607H13.6818H13.7027H13.7236H13.7445H13.7653H13.786H13.8067H13.8274H13.8479H13.8685H13.8889H13.9093H13.9297H13.95H13.9702H13.9904H14.0105H14.0305H14.0505H14.0705H14.0903H14.1102H14.1299H14.1496H14.1692H14.1888H14.2083H14.2277H14.2471H14.2664H14.2857H14.3049H14.324H14.3431H14.3621H14.381H14.3999H14.4187H14.4374H14.4561H14.4747H14.4932H14.5117H14.5301H14.5484H14.5667H14.5849H14.603H14.621H14.639H14.6569H14.6748H14.6925H14.7102H14.7279H14.7454H14.7629H14.7803H14.7977H14.815H14.8321H14.8493H14.8663H14.8833H14.9002H14.917H14.9338H14.9504H14.967H14.9836H15C15.2761 1.5 15.5 1.27614 15.5 1C15.5 0.723858 15.2761 0.5 15 0.5H14.9836H14.967H14.9504H14.9338H14.917H14.9002H14.8833H14.8663H14.8493H14.8321H14.815H14.7977H14.7803H14.7629H14.7454H14.7279H14.7102H14.6925H14.6748H14.6569H14.639H14.621H14.603H14.5849H14.5667H14.5484H14.5301H14.5117H14.4932H14.4747H14.4561H14.4374H14.4187H14.3999H14.381H14.3621H14.3431H14.324H14.3049H14.2857H14.2664H14.2471H14.2277H14.2083H14.1888H14.1692H14.1496H14.1299H14.1102H14.0903H14.0705H14.0505H14.0305H14.0105H13.9904H13.9702H13.95H13.9297H13.9093H13.8889H13.8685H13.8479H13.8274H13.8067H13.786H13.7653H13.7445H13.7236H13.7027H13.6818H13.6607H13.6397H13.6185H13.5974H13.5761H13.5548H13.5335H13.5121H13.4907H13.4692H13.4476H13.426H13.4044H13.3827H13.361H13.3392H13.3173H13.2954H13.2735H13.2515H13.2295H13.2074H13.1853H13.1631H13.1409H13.1186H13.0963H13.0739H13.0515H13.0291H13.0066H12.9841H12.9615H12.9389H12.9162H12.8935H12.8707H12.8479H12.8251H12.8022H12.7793H12.7564H12.7334H12.7103H12.6872H12.6641H12.641H12.6178H12.5945H12.5713H12.548H12.5246H12.5012H12.4778H12.4543H12.4308H12.4073H12.3838H12.3602H12.3365H12.3128H12.2891H12.2654H12.2416H12.2178H12.194H12.1701H12.1462H12.1223H12.0983H12.0743H12.0503H12.0262H12.0021H11.978H11.9538H11.9297H11.9055H11.8812H11.857H11.8327H11.8083H11.784H11.7596H11.7352H11.7108H11.6863H11.6618H11.6373H11.6128H11.5882H11.5637H11.539H11.5144H11.4898H11.4651H11.4404H11.4157H11.3909H11.3662H11.3414H11.3166H11.2917H11.2669H11.242H11.2171H11.1922H11.1673H11.1423H11.1174H11.0924H11.0674H11.0423H11.0173H10.9922H10.9672H10.9421H10.917H10.8919H10.8667H10.8416H10.8164H10.7912H10.766H10.7408H10.7156H10.6904H10.6651H10.6399H10.6146H10.5893H10.564H10.5387H10.5134H10.4881H10.4627H10.4374H10.412H10.3866H10.3613H10.3359H10.3105H10.2851H10.2597H10.2343H10.2088H10.1834H10.158H10.1325H10.1071H10.0816H10.0562H10.0307H10.0053H9.97979H9.95431H9.92883H9.90335H9.87787H9.85239H9.8269H9.80141H9.77592H9.75043H9.72494H9.69944H9.67395H9.64846H9.62297H9.59748H9.57199H9.5465H9.52101H9.49553H9.47004H9.44456H9.41909H9.39362H9.36815H9.34268H9.31722H9.29177H9.26632H9.24087H9.21544H9.19H9.16458H9.13916H9.11374H9.08834H9.06294H9.03755H9.01217H8.9868H8.96143H8.93608H8.91074H8.8854H8.86008H8.83476H8.80946H8.78417H8.75889H8.73362H8.70837H8.68312H8.65789H8.63268H8.60747H8.58228H8.55711H8.53195H8.5068H8.48167H8.45656H8.43146H8.40638H8.38131H8.35626H8.33123H8.30621H8.28122H8.25624H8.23128H8.20634H8.18141H8.15651H8.13163H8.10676H8.08192H8.0571H8.0323H8.00752H7.98276H7.95802H7.93331H7.90862H7.88395H7.8593H7.83468H7.81009H7.78551H7.76097H7.73644H7.71194H7.68747H7.66303H7.63861H7.61421H7.58985H7.56551H7.54119H7.51691H7.49265H7.46843H7.44423H7.42006H7.39592H7.37181H7.34773H7.32368H7.29966H7.27568H7.25172H7.2278H7.20391H7.18005H7.15622H7.13243H7.10867H7.08494H7.06125H7.03759H7.01397H6.99038H6.96683H6.94331H6.91983H6.89638H6.87298H6.84961H6.82627H6.80298H6.77972H6.7565H6.73332H6.71017H6.68707H6.66401H6.64099H6.618H6.59506H6.57216H6.5493H6.52648H6.5037H6.48097H6.45828H6.43563H6.41302H6.39046H6.36794H6.34546H6.32303H6.30065H6.27831H6.25601H6.23377H6.21156H6.18941H6.1673H6.14523H6.12322H6.10125H6.07933H6.05746H6.03564H6.01387H5.99214H5.97047H5.94884H5.92727H5.90575H5.88428H5.86285H5.84149H5.82017H5.7989H5.77769H5.75653H5.73543H5.71437H5.69338H5.67243H5.65154H5.63071H5.60993H5.5892H5.56854H5.54792H5.52737H5.50687H5.48643H5.46604H5.44572H5.42545H5.40524H5.38509H5.365H5.34497H5.325H5.30508H5.28523H5.26544H5.24571H5.22604H5.20644H5.18689H5.16741H5.14799H5.12863H5.10934H5.09011H5.07095H5.05184H5.03281H5.01384H4.99493H4.97609H4.95732H4.93861H4.91997H4.90139H4.88288H4.86444H4.84607H4.82777H4.80953H4.79137H4.77327H4.75524H4.73728H4.7194H4.70158H4.68383H4.66616H4.64856H4.63102H4.61357H4.59618H4.57886H4.56162H4.54446H4.52736H4.51034H4.4934H4.47653H4.45973H4.44301H4.42637H4.4098H4.39331H4.37689H4.36055H4.34429H4.32811H4.31201H4.29598H4.28003H4.26416H4.24837H4.23266H4.21703H4.20148H4.18601H4.17062H4.15532H4.14009H4.12495H4.10989H4.09491H4.08001H4.0652H4.05047H4.03583H4.02126H4.00679H3.9924H3.97809H3.96387H3.94973H3.93568H3.92172H3.90785H3.89406H3.88035H3.86674H3.85322H3.83978H3.82643H3.81317H3.8ZM13.3536 5.64645C13.1583 5.45118 12.8417 5.45118 12.6464 5.64645C12.4512 5.84171 12.4512 6.15829 12.6464 6.35355L16.7929 10.5H8C7.72386 10.5 7.5 10.7239 7.5 11C7.5 11.2761 7.72386 11.5 8 11.5H16.7929L12.6464 15.6464C12.4512 15.8417 12.4512 16.1583 12.6464 16.3536C12.8417 16.5488 13.1583 16.5488 13.3536 16.3536L18.3536 11.3536L18.7071 11L18.3536 10.6464L13.3536 5.64645Z" fill="black"/>
</svg>
