<svg width="45" height="29" viewBox="0 0 45 29" fill="none" xmlns="http://www.w3.org/2000/svg">
<g filter="url(#filter0_d_603_37959)">
<path d="M1.3478 8.70638C3.7262 1.45037 12.0402 -0.116829 15.8999 0.00657279C37.8062 0.00656855 35.1462 15.6477 35.1462 15.6477C35.1462 15.6477 37.9616 18.6708 40.9659 21.7805C43.6521 24.561 41.4293 23.3561 38.2756 22.2188C35.122 21.0816 34.1291 20.738 34.1291 20.738C32.8773 27.7719 11.5968 27.6794 6.04202 24.1624C0.487192 20.6455 -1.62521 17.7764 1.3478 8.70638Z" fill="#EDC29A"/>
</g>
<path d="M13.3474 6.76597C13.3474 8.55752 11.895 10.0099 10.1035 10.0099C8.3119 10.0099 7.04492 9.11362 7.04492 7.32206C7.04492 5.53051 8.868 3.61475 10.6596 3.61475C12.4511 3.61475 13.3474 4.97441 13.3474 6.76597Z" fill="#FF5151"/>
<path d="M31.1421 17.7023C31.1421 19.4939 29.6898 20.9462 27.8982 20.9462C26.1066 20.9462 24.6543 19.4939 24.6543 17.7023C24.6543 15.9108 24.6237 14.3657 26.4153 14.3657C28.2068 14.3657 31.1421 15.9108 31.1421 17.7023Z" fill="#3CD470"/>
<path d="M22.7999 20.8539C22.7999 22.6454 22.4597 24.1905 20.6682 24.1905C18.8766 24.1905 16.8682 22.6454 16.8682 20.8539C16.8682 19.0623 18.3205 17.2393 20.1121 17.2393C21.9036 17.2393 22.7999 19.0623 22.7999 20.8539Z" fill="#4E9DFA"/>
<path d="M30.3077 7.78524C30.3077 9.5768 28.7626 11.8633 26.9711 11.8633C25.1795 11.8633 23.3564 10.7817 23.3564 8.99012C23.3564 7.19856 25.1795 5.37549 26.9711 5.37549C28.7626 5.37549 30.3077 5.99369 30.3077 7.78524Z" fill="#FFDA56"/>
<path d="M22.2437 5.28302C22.2437 7.07458 20.5133 9.1757 18.7217 9.1757C16.9302 9.1757 15.7559 7.07458 15.7559 5.28302C15.7559 3.49146 16.6521 2.59521 18.4437 2.59521C20.2352 2.59521 22.2437 3.49146 22.2437 5.28302Z" fill="#FF8541"/>
<path d="M14.5506 20.1122C14.5506 21.9037 13.3763 23.3561 11.5847 23.3561C9.79316 23.3561 8.34082 21.9037 8.34082 20.1122C8.34082 18.3206 10.1639 16.4976 11.9555 16.4976C13.747 16.4976 14.5506 18.3206 14.5506 20.1122Z" fill="#4A3BF0"/>
<path d="M8.62018 15.0144C8.62018 16.806 7.26052 17.7949 5.46896 17.7949C3.67741 17.7949 2.68848 16.3426 2.68848 14.551C2.68848 12.7595 3.67741 11.3071 5.46896 11.3071C7.26052 11.3071 8.62018 13.2229 8.62018 15.0144Z" fill="#E23FFC"/>
<defs>
<filter id="filter0_d_603_37959" x="0" y="0" width="44.167" height="28.5073" filterUnits="userSpaceOnUse" color-interpolation-filters="sRGB">
<feFlood flood-opacity="0" result="BackgroundImageFix"/>
<feColorMatrix in="SourceAlpha" type="matrix" values="0 0 0 0 0 0 0 0 0 0 0 0 0 0 0 0 0 0 127 0" result="hardAlpha"/>
<feOffset dx="1" dy="1"/>
<feGaussianBlur stdDeviation="0.5"/>
<feComposite in2="hardAlpha" operator="out"/>
<feColorMatrix type="matrix" values="0 0 0 0 0.571667 0 0 0 0 0.536778 0 0 0 0 0.521646 0 0 0 1 0"/>
<feBlend mode="normal" in2="BackgroundImageFix" result="effect1_dropShadow_603_37959"/>
<feBlend mode="normal" in="SourceGraphic" in2="effect1_dropShadow_603_37959" result="shape"/>
</filter>
</defs>
</svg>
