<svg width="40" height="40" viewBox="0 0 40 40" fill="none" xmlns="http://www.w3.org/2000/svg">
<circle cx="20" cy="20" r="20" fill="#ECC9A0"/>
<path d="M8 15L15 17.5455" stroke="black" stroke-width="2.5" stroke-linecap="round"/>
<path d="M8 20.0908L15 17.5454" stroke="black" stroke-width="2.5" stroke-linecap="round"/>
<path d="M31 15L24 17.5455" stroke="black" stroke-width="2.5" stroke-linecap="round"/>
<path d="M31 20.0908L24 17.5454" stroke="black" stroke-width="2.5" stroke-linecap="round"/>
<path d="M9 11.9777C10.6667 12.0876 14.2 11.8459 15 10" stroke="black" stroke-width="2" stroke-linecap="round"/>
<path d="M30 11.9777C28.3333 12.0876 24.8 11.8459 24 10" stroke="black" stroke-width="2" stroke-linecap="round"/>
<path d="M28.423 33.1858C34.0801 27.1049 23.1648 25.1949 17 25C19.611 26.871 21.7142 29.6776 22.4395 30.847C24.1802 35.0568 27.1538 34.1603 28.423 33.1858Z" fill="black" stroke="black" stroke-linecap="round" stroke-linejoin="round"/>
<path d="M30.5 6C28.6134 8.35294 25.9722 13.2471 30.5 14C32.3866 14 35.0277 12.4 30.5 6Z" fill="#6AAEFF"/>
<path d="M35.5 13C32.8588 16.2353 29.1611 22.9647 35.5 24C38.1412 24 41.8388 21.8 35.5 13Z" fill="#6AAEFF"/>
</svg>
