<svg width="1600" height="900" viewBox="0 0 1600 900" fill="none" xmlns="http://www.w3.org/2000/svg">
<g filter="url(#filter0_i_1409_40338)">
<rect width="1600" height="900" fill="#655070"/>
</g>
<mask id="mask0_1409_40338" style="mask-type:alpha" maskUnits="userSpaceOnUse" x="0" y="0" width="1600" height="900">
<rect width="1600" height="900" fill="#ABAAEC"/>
</mask>
<g mask="url(#mask0_1409_40338)">
<g filter="url(#filter1_d_1409_40338)">
<mask id="mask1_1409_40338" style="mask-type:alpha" maskUnits="userSpaceOnUse" x="0" y="0" width="1600" height="900">
<rect width="1600" height="900" fill="#6D5070"/>
</mask>
<g mask="url(#mask1_1409_40338)">
<ellipse cx="850" cy="1036.5" rx="1221" ry="389.5" fill="#70A07D"/>
</g>
</g>
<g filter="url(#filter2_d_1409_40338)">
<path d="M1385.8 558.122C1414.49 615.002 1400.65 644.603 1373.94 665.586C1347.24 686.569 1302.5 651.834 1269.23 609.49C1235.97 567.147 1230.65 515.811 1257.36 494.828C1283.25 463.04 1358.13 508.706 1385.8 558.122Z" fill="black"/>
<path d="M958.365 664.54C958.527 728.25 984.269 748.378 1017.58 754.995C1050.9 761.613 1075.06 710.387 1085.56 657.571C1096.05 604.755 1077.55 556.575 1044.23 549.957C1006.75 533.336 960.659 607.955 958.365 664.54Z" fill="black"/>
<path d="M1366.43 651.654C1420.41 775.947 1318.71 830.346 1223.79 843.433C1128.87 856.52 1029.63 870.203 1010.91 734.488C997.865 639.838 988.913 505.345 1154.82 500.642C1273.75 437.258 1315.34 534.024 1366.43 651.654Z" fill="white"/>
<g filter="url(#filter3_d_1409_40338)">
<ellipse cx="1009.07" cy="343.995" rx="34.7658" ry="34.2333" transform="rotate(-9.44357 1009.07 343.995)" fill="#282726"/>
<ellipse cx="1201.13" cy="312.05" rx="34.7658" ry="34.2333" transform="rotate(-9.44357 1201.13 312.05)" fill="#282726"/>
<ellipse cx="1124.58" cy="433.563" rx="163.083" ry="129.692" transform="rotate(-9.44357 1124.58 433.563)" fill="#FFFFFE"/>
</g>
</g>
<g filter="url(#filter4_d_1409_40338)">
<path d="M581.09 697.914C598.939 808.414 554.089 860.914 451.089 829.914C355.268 829.914 278.089 812.414 312.589 708.914C353.089 587.414 463.09 445.414 475.589 487.914C537.59 409.416 560.091 567.914 581.09 697.914Z" fill="white"/>
<path d="M161.215 577C146.715 554.167 126.415 508.5 161.215 508.5C204.715 508.5 267.715 571.5 267.715 615C267.715 658.5 183.715 719.5 267.715 803.5C351.715 887.5 398.715 859.5 454.715 803.5" stroke="white" stroke-width="30" stroke-linecap="round"/>
<g filter="url(#filter5_d_1409_40338)">
<path fill-rule="evenodd" clip-rule="evenodd" d="M633.608 390.287C629.71 364.509 614.596 272.524 598.816 282.985C587.646 290.389 572.183 320.589 561.808 343.05C548.157 338.103 533.534 334.461 518.19 332.377C502.645 330.266 487.386 329.893 472.736 331.076C468.724 306.673 461.884 273.542 453.109 263.444C440.644 249.101 401.304 334.4 390.845 357.841C363.03 376.076 344.11 402.331 339.902 433.311C330.686 501.175 395.565 566.016 484.815 578.136C574.064 590.257 653.886 545.067 663.102 477.203C667.343 445.977 655.897 415.391 633.608 390.287Z" fill="white"/>
</g>
</g>
<g filter="url(#filter6_d_1409_40338)">
<path d="M954.842 725.919C954.842 819.808 875.176 847.92 800.342 847.92C725.507 847.92 627.342 819.808 627.342 725.919C627.342 632.031 761.842 352.92 800.342 507.919C893.842 439.921 954.842 632.031 954.842 725.919Z" fill="#D29863"/>
<g filter="url(#filter7_d_1409_40338)">
<g filter="url(#filter8_d_1409_40338)">
<ellipse cx="743.848" cy="293.17" rx="20.3995" ry="31.1698" fill="#D29863"/>
</g>
<g filter="url(#filter9_d_1409_40338)">
<ellipse cx="857.745" cy="293.17" rx="20.3995" ry="31.1698" fill="#D29863"/>
</g>
<g filter="url(#filter10_d_1409_40338)">
<path d="M973.341 445.454C973.341 457.922 973.61 469.634 963.149 488.201C959.134 495.326 951.429 504.706 940.818 514.918C906.83 547.633 855.581 553.213 798.252 553.213C740.922 553.213 711.548 543.416 661.399 514.918C646.949 506.707 638.723 496.216 634.207 488.201C623.746 469.634 624.001 457.032 624.001 445.454C624.001 420.474 664.765 392.187 678.406 371.537C691.156 320.775 727.14 286.934 798.252 286.934C869.363 286.934 907.05 322.556 920.65 371.537C934.29 392.187 973.341 420.474 973.341 445.454Z" fill="#D29863"/>
</g>
<path d="M768.497 292.291V334.999" stroke="#866140" stroke-width="10" stroke-linecap="round"/>
<path d="M797.396 287.496V330.204" stroke="#866140" stroke-width="10" stroke-linecap="round"/>
<path d="M824.597 292.291V334.999" stroke="#866140" stroke-width="10" stroke-linecap="round"/>
</g>
<g filter="url(#filter11_d_1409_40338)">
<path d="M917.688 699.163C901.964 825.684 839.617 861.496 760.955 842.486C692.896 786.468 720.604 659.859 779.818 566.235C851.118 465.996 913.079 459.912 982.561 492.179C1119.14 564.496 966.192 607.556 917.688 699.163Z" fill="#C48C59"/>
</g>
<mask id="mask2_1409_40338" style="mask-type:alpha" maskUnits="userSpaceOnUse" x="721" y="474" width="317" height="374">
<path d="M917.688 699.163C901.964 825.684 839.617 861.496 760.955 842.486C692.896 786.468 720.604 659.859 779.818 566.235C851.118 465.996 913.079 459.912 982.561 492.179C1119.14 564.496 966.192 607.556 917.688 699.163Z" fill="#C48C59"/>
</mask>
<g mask="url(#mask2_1409_40338)">
<path d="M954.342 476.967C897.919 500.6 822.005 568.836 785.073 641.732C763.325 688.865 759.597 785.527 760.452 827.967" stroke="#9D6C3E" stroke-width="30" stroke-linecap="round"/>
<path d="M1004.45 504.967C949.449 528.633 875.449 596.967 839.449 669.967C818.249 717.167 814.616 813.967 815.449 856.467" stroke="#9D6C3E" stroke-width="30" stroke-linecap="round"/>
</g>
</g>
<path d="M1693.02 449.101C1702.49 721.489 1664.09 943.906 1607.24 945.883C1369.46 1402.42 1496.5 744.5 1487.14 456.262C1487.14 187.501 1522.5 71.5018 1261 -51.4996C1743 -146 1683.55 176.714 1693.02 449.101Z" fill="#3B2727"/>
<path d="M893.75 37.4991C842.195 65.8116 833.251 60 773.229 79.0709C836.251 32 807.751 51 859.751 17.0001C911.307 -11.3124 952.486 -37.0124 959.929 -23.4579C967.373 -9.90332 945.306 9.18656 893.75 37.4991Z" fill="#3B2727"/>
<path d="M341.75 -11.7001C290.195 16.6124 281.251 10.8008 221.229 29.8717C284.251 -17.1992 255.751 1.80078 307.751 -32.1991C359.307 -60.5117 400.486 -86.2117 407.929 -72.6571C415.373 -59.1025 393.306 -40.0127 341.75 -11.7001Z" fill="#3B2727"/>
<path d="M985.751 2.38012e-06C963.498 54.4465 971.251 33.5 948.043 108.5C931.751 52 931.751 49.5 948.043 -9.41593C970.296 -63.8624 999.939 -103.257 1014.25 -97.4068C1028.57 -91.5564 1008 -54.4465 985.751 2.38012e-06Z" fill="#3B2727"/>
<path d="M1375.21 767.93C1373.18 756.307 1366.38 755.116 1357.27 756.707C1348.17 758.297 1342.05 762.965 1344.08 774.588C1346.11 786.21 1356.45 799.917 1365.56 798.326C1375.3 795.709 1377.24 779.552 1375.21 767.93Z" fill="#FFCAE3" fill-opacity="0.9"/>
<path d="M1382.5 771.612C1392.62 765.541 1397.97 769.901 1402.73 777.83C1407.49 785.758 1407.96 793.437 1397.84 799.508C1387.73 805.58 1370.59 806.729 1365.84 798.8C1361.44 789.722 1372.39 777.684 1382.5 771.612Z" fill="#FFCAE3" fill-opacity="0.9"/>
<path d="M1396.35 803.284C1405.94 810.153 1404.07 816.796 1398.69 824.313C1393.3 831.831 1386.44 835.316 1376.85 828.447C1367.26 821.577 1359.39 806.313 1364.78 798.795C1371.36 791.153 1386.76 796.414 1396.35 803.284Z" fill="#FFCAE3" fill-opacity="0.9"/>
<path d="M1366.21 829.644C1361.39 840.414 1354.51 839.902 1346.07 836.126C1337.63 832.349 1332.84 826.324 1337.66 815.554C1342.48 804.785 1355.87 794.034 1364.31 797.81C1373.11 802.737 1371.03 818.875 1366.21 829.644Z" fill="#FFCAE3" fill-opacity="0.9"/>
<path d="M1342.57 777.803C1331.55 773.59 1327.04 778.817 1323.74 787.454C1320.44 796.092 1321.31 803.735 1332.33 807.948C1343.35 812.161 1360.42 810.302 1363.73 801.665C1366.47 791.959 1353.59 782.016 1342.57 777.803Z" fill="#FFCAE3" fill-opacity="0.9"/>
<g filter="url(#filter12_f_1409_40338)">
<ellipse cx="1364.88" cy="796.864" rx="18.0826" ry="18.7523" fill="#FF6DA2" fill-opacity="0.4"/>
</g>
<path d="M1286.21 53.9299C1284.18 42.3075 1277.38 41.1159 1268.27 42.7065C1259.17 44.2972 1253.05 48.9654 1255.08 60.5878C1257.11 72.2103 1267.45 85.9166 1276.56 84.3259C1286.3 81.7086 1288.24 65.5524 1286.21 53.9299Z" fill="#FFCAE3" fill-opacity="0.9"/>
<path d="M1293.5 57.6123C1303.62 51.5409 1308.97 55.9011 1313.73 63.8297C1318.49 71.7584 1318.96 79.4367 1308.84 85.5082C1298.73 91.5796 1281.59 92.7288 1276.84 84.8002C1272.44 75.722 1283.39 63.6837 1293.5 57.6123Z" fill="#FFCAE3" fill-opacity="0.9"/>
<path d="M1307.35 89.2839C1316.94 96.1535 1315.07 102.796 1309.69 110.313C1304.3 117.831 1297.44 121.316 1287.85 114.447C1278.26 107.577 1270.39 92.313 1275.78 84.7951C1282.36 77.1532 1297.76 82.4144 1307.35 89.2839Z" fill="#FFCAE3" fill-opacity="0.9"/>
<path d="M1277.21 115.644C1272.39 126.414 1265.51 125.902 1257.07 122.126C1248.63 118.349 1243.84 112.324 1248.66 101.554C1253.48 90.7848 1266.87 80.0339 1275.31 83.8102C1284.11 88.7366 1282.03 104.875 1277.21 115.644Z" fill="#FFCAE3" fill-opacity="0.9"/>
<path d="M1253.57 63.8031C1242.55 59.5901 1238.04 64.817 1234.74 73.4544C1231.44 82.0918 1232.31 89.7346 1243.33 93.9476C1254.35 98.1606 1271.42 96.3024 1274.73 87.6651C1277.47 77.9591 1264.59 68.016 1253.57 63.8031Z" fill="#FFCAE3" fill-opacity="0.9"/>
<g filter="url(#filter13_f_1409_40338)">
<ellipse cx="1275.88" cy="82.8637" rx="18.0826" ry="18.7523" fill="#FF6DA2" fill-opacity="0.4"/>
</g>
<path d="M632.56 805.882C626.805 793.983 619.115 794.787 609.79 799.297C600.465 803.808 595.31 810.715 601.065 822.613C606.82 834.511 622.172 846.102 631.497 841.591C641.188 835.781 638.315 817.78 632.56 805.882Z" fill="#FFCAE3" fill-opacity="0.9"/>
<path d="M641.547 807.609C650.582 797.962 657.684 801.017 665.245 808.098C672.806 815.179 675.672 823.307 666.638 832.954C657.603 842.601 639.498 849.099 631.937 842.018C624.414 833.587 632.513 817.257 641.547 807.609Z" fill="#FFCAE3" fill-opacity="0.9"/>
<path d="M666.19 837.48C678.634 841.936 678.653 849.667 675.161 859.42C671.669 869.172 665.35 875.032 652.907 870.577C640.463 866.121 627.304 852.09 630.796 842.338C635.542 832.084 653.747 833.024 666.19 837.48Z" fill="#FFCAE3" fill-opacity="0.9"/>
<path d="M641.809 875.134C639.925 888.216 632.353 889.778 622.1 888.301C611.847 886.824 604.844 881.801 606.728 868.719C608.612 855.637 619.736 839.944 629.989 841.421C640.984 844.026 643.694 862.052 641.809 875.134Z" fill="#FFCAE3" fill-opacity="0.9"/>
<path d="M600.423 826.54C587.256 825.385 584.006 832.4 583.101 842.719C582.195 853.039 585.485 861.004 598.651 862.159C611.818 863.314 629.638 856.071 630.543 845.752C630.519 834.453 613.589 827.696 600.423 826.54Z" fill="#FFCAE3" fill-opacity="0.9"/>
<g filter="url(#filter14_f_1409_40338)">
<ellipse cx="630.314" cy="840.225" rx="20.257" ry="21.0073" transform="rotate(-15.907 630.314 840.225)" fill="#FF6DA2" fill-opacity="0.4"/>
</g>
<path d="M166.563 748.759C162.41 740.173 156.861 740.753 150.132 744.008C143.403 747.262 139.684 752.246 143.837 760.832C147.99 769.417 159.067 777.781 165.796 774.526C172.788 770.333 170.715 757.344 166.563 748.759Z" fill="#FFCAE3" fill-opacity="0.9"/>
<path d="M173.048 750.004C179.567 743.043 184.692 745.248 190.148 750.357C195.603 755.467 197.671 761.331 191.152 768.292C184.633 775.253 171.569 779.942 166.113 774.833C160.685 768.75 166.529 756.966 173.048 750.004Z" fill="#FFCAE3" fill-opacity="0.9"/>
<path d="M190.829 771.558C199.808 774.773 199.822 780.352 197.302 787.39C194.782 794.427 190.223 798.655 181.244 795.44C172.265 792.225 162.77 782.101 165.29 775.064C168.714 767.665 181.85 768.343 190.829 771.558Z" fill="#FFCAE3" fill-opacity="0.9"/>
<path d="M173.236 798.728C171.877 808.168 166.413 809.295 159.014 808.229C151.616 807.164 146.563 803.539 147.922 794.1C149.282 784.66 157.309 773.336 164.707 774.402C172.641 776.281 174.596 789.289 173.236 798.728Z" fill="#FFCAE3" fill-opacity="0.9"/>
<path d="M143.373 763.664C133.872 762.831 131.527 767.893 130.873 775.339C130.22 782.785 132.594 788.533 142.095 789.366C151.595 790.2 164.454 784.973 165.107 777.527C165.09 769.374 152.873 764.498 143.373 763.664Z" fill="#FFCAE3" fill-opacity="0.9"/>
<g filter="url(#filter15_f_1409_40338)">
<ellipse cx="164.941" cy="773.539" rx="14.617" ry="15.1584" transform="rotate(-15.907 164.941 773.539)" fill="#FF6DA2" fill-opacity="0.4"/>
</g>
<path d="M753.735 100.352C759.624 90.1282 755.168 84.8577 747.156 80.2424C739.143 75.6271 731.457 75.2933 725.568 85.517C719.68 95.7407 718.839 112.891 726.851 117.506C736.007 121.738 747.847 110.576 753.735 100.352Z" fill="#FFCAE3" fill-opacity="0.9"/>
<path d="M756.976 107.853C768.633 109.673 769.946 116.448 768.52 125.585C767.093 134.721 762.535 140.918 750.878 139.098C739.221 137.278 725.331 127.183 726.758 118.046C729.2 108.26 745.319 106.032 756.976 107.853Z" fill="#FFCAE3" fill-opacity="0.9"/>
<path d="M747.315 141.042C750.278 152.462 744.583 156.36 735.632 158.683C726.682 161.005 719.183 159.286 716.22 147.866C713.258 136.446 717 119.688 725.951 117.365C735.901 115.716 744.352 129.622 747.315 141.042Z" fill="#FFCAE3" fill-opacity="0.9"/>
<path d="M707.283 141.966C696.683 147.147 691.727 142.344 687.666 134.037C683.605 125.729 683.794 118.039 694.393 112.857C704.993 107.676 722.161 108 726.222 116.308C729.823 125.73 717.882 136.784 707.283 141.966Z" fill="#FFCAE3" fill-opacity="0.9"/>
<path d="M722.349 87.0158C716.587 76.7201 709.778 77.8455 701.709 82.3613C693.639 86.8771 689.414 93.3058 695.176 103.602C700.938 113.897 715.234 123.408 723.303 118.892C731.629 113.199 728.111 97.3116 722.349 87.0158Z" fill="#FFCAE3" fill-opacity="0.9"/>
<g filter="url(#filter16_f_1409_40338)">
<ellipse cx="727.267" cy="115.946" rx="18.0826" ry="18.7523" transform="rotate(39.8466 727.267 115.946)" fill="#FF6DA2" fill-opacity="0.4"/>
</g>
<path d="M673.211 61.9299C671.181 50.3075 664.383 49.1159 655.274 50.7065C646.165 52.2972 640.051 56.9654 642.08 68.5878C644.11 80.2103 654.453 93.9166 663.562 92.3259C673.303 89.7086 675.24 73.5524 673.211 61.9299Z" fill="#FFCAE3" fill-opacity="0.9"/>
<path d="M680.504 65.6123C690.62 59.5409 695.97 63.9011 700.729 71.8297C705.487 79.7584 705.959 87.4367 695.843 93.5082C685.727 99.5796 668.594 100.729 663.836 92.8002C659.44 83.722 670.388 71.6837 680.504 65.6123Z" fill="#FFCAE3" fill-opacity="0.9"/>
<path d="M694.352 97.2839C703.944 104.153 702.069 110.796 696.685 118.313C691.301 125.831 684.443 129.316 674.851 122.447C665.259 115.577 657.395 100.313 662.779 92.7951C669.362 85.1532 684.76 90.4144 694.352 97.2839Z" fill="#FFCAE3" fill-opacity="0.9"/>
<path d="M664.208 123.644C659.39 134.414 652.507 133.902 644.067 130.126C635.626 126.349 630.843 120.324 635.661 109.554C640.479 98.7848 653.868 88.0339 662.309 91.8102C671.11 96.7366 669.026 112.875 664.208 123.644Z" fill="#FFCAE3" fill-opacity="0.9"/>
<path d="M640.569 71.8031C629.548 67.5901 625.042 72.817 621.74 81.4544C618.438 90.0918 619.313 97.7346 630.334 101.948C641.354 106.161 658.424 104.302 661.726 95.6651C664.47 85.9591 651.589 76.016 640.569 71.8031Z" fill="#FFCAE3" fill-opacity="0.9"/>
<g filter="url(#filter17_f_1409_40338)">
<ellipse cx="662.88" cy="90.8637" rx="18.0826" ry="18.7523" fill="#FF6DA2" fill-opacity="0.4"/>
</g>
<path d="M607.559 112.979C616.374 105.138 613.81 98.7302 607.665 91.8211C601.519 84.9119 594.332 82.1686 585.516 90.0101C576.701 97.8515 570.488 113.859 576.634 120.768C583.985 127.674 598.743 120.821 607.559 112.979Z" fill="#FFCAE3" fill-opacity="0.9"/>
<path d="M608.266 121.12C618.752 126.527 617.859 133.371 613.621 141.589C609.382 149.808 603.101 154.249 592.615 148.842C582.129 143.434 572.137 129.47 576.376 121.251C581.782 112.736 597.78 115.712 608.266 121.12Z" fill="#FFCAE3" fill-opacity="0.9"/>
<path d="M588.62 149.56C587.825 161.331 581.191 163.232 571.965 162.61C562.739 161.987 556.167 157.989 556.961 146.217C557.755 134.446 566.597 119.726 575.823 120.349C585.786 121.926 589.414 137.788 588.62 149.56Z" fill="#FFCAE3" fill-opacity="0.9"/>
<path d="M550.343 137.798C538.65 139.368 535.464 133.245 534.234 124.081C533.003 114.916 535.61 107.678 547.304 106.109C558.997 104.539 575.184 110.267 576.415 119.432C576.857 129.509 562.037 136.228 550.343 137.798Z" fill="#FFCAE3" fill-opacity="0.9"/>
<path d="M581.988 90.4165C579.772 78.8282 572.956 77.7461 563.874 79.4832C554.791 81.2202 548.753 85.9862 550.969 97.5744C553.185 109.163 563.747 122.701 572.83 120.964C582.527 118.19 584.205 102.005 581.988 90.4165Z" fill="#FFCAE3" fill-opacity="0.9"/>
<g filter="url(#filter18_f_1409_40338)">
<ellipse cx="577.521" cy="119.42" rx="18.0826" ry="18.7523" transform="rotate(58.2517 577.521 119.42)" fill="#FF6DA2" fill-opacity="0.4"/>
</g>
<path d="M389.211 23.9299C387.181 12.3075 380.383 11.1159 371.274 12.7065C362.165 14.2972 356.051 18.9654 358.08 30.5878C360.11 42.2103 370.453 55.9166 379.562 54.3259C389.303 51.7086 391.24 35.5524 389.211 23.9299Z" fill="#FFCAE3" fill-opacity="0.9"/>
<path d="M396.504 27.6123C406.62 21.5409 411.97 25.9011 416.729 33.8297C421.487 41.7584 421.959 49.4367 411.843 55.5082C401.727 61.5796 384.594 62.7288 379.836 54.8002C375.44 45.722 386.388 33.6837 396.504 27.6123Z" fill="#FFCAE3" fill-opacity="0.9"/>
<path d="M410.352 59.2839C419.944 66.1535 418.069 72.7955 412.685 80.3135C407.301 87.8314 400.443 91.3162 390.851 84.4467C381.259 77.5771 373.395 62.313 378.779 54.7951C385.362 47.1532 400.76 52.4144 410.352 59.2839Z" fill="#FFCAE3" fill-opacity="0.9"/>
<path d="M380.208 85.6444C375.39 96.414 368.507 95.9019 360.067 92.1257C351.626 88.3494 346.843 82.3242 351.661 71.5545C356.479 60.7848 369.868 50.0339 378.309 53.8102C387.11 58.7366 385.026 74.8747 380.208 85.6444Z" fill="#FFCAE3" fill-opacity="0.9"/>
<path d="M356.569 33.8031C345.548 29.5901 341.042 34.817 337.74 43.4544C334.438 52.0918 335.313 59.7346 346.334 63.9476C357.354 68.1606 374.424 66.3024 377.726 57.6651C380.47 47.9591 367.589 38.016 356.569 33.8031Z" fill="#FFCAE3" fill-opacity="0.9"/>
<g filter="url(#filter19_f_1409_40338)">
<ellipse cx="378.88" cy="52.8637" rx="18.0826" ry="18.7523" fill="#FF6DA2" fill-opacity="0.4"/>
</g>
<path d="M329.211 44.9299C327.181 33.3075 320.383 32.1159 311.274 33.7065C302.165 35.2972 296.051 39.9654 298.08 51.5878C300.11 63.2103 310.453 76.9166 319.562 75.3259C329.303 72.7086 331.24 56.5524 329.211 44.9299Z" fill="#FFCAE3" fill-opacity="0.9"/>
<path d="M336.504 48.6123C346.62 42.5409 351.97 46.9011 356.729 54.8297C361.487 62.7584 361.959 70.4367 351.843 76.5082C341.727 82.5796 324.594 83.7288 319.836 75.8002C315.44 66.722 326.388 54.6837 336.504 48.6123Z" fill="#FFCAE3" fill-opacity="0.9"/>
<path d="M350.352 80.2839C359.944 87.1535 358.069 93.7955 352.685 101.313C347.301 108.831 340.443 112.316 330.851 105.447C321.259 98.5771 313.395 83.313 318.779 75.7951C325.362 68.1532 340.76 73.4144 350.352 80.2839Z" fill="#FFCAE3" fill-opacity="0.9"/>
<path d="M320.208 106.644C315.39 117.414 308.507 116.902 300.067 113.126C291.626 109.349 286.843 103.324 291.661 92.5545C296.479 81.7848 309.868 71.0339 318.309 74.8102C327.11 79.7366 325.026 95.8747 320.208 106.644Z" fill="#FFCAE3" fill-opacity="0.9"/>
<path d="M296.569 54.8031C285.548 50.5901 281.042 55.817 277.74 64.4544C274.438 73.0918 275.313 80.7346 286.334 84.9476C297.354 89.1606 314.424 87.3024 317.726 78.6651C320.47 68.9591 307.589 59.016 296.569 54.8031Z" fill="#FFCAE3" fill-opacity="0.9"/>
<g filter="url(#filter20_f_1409_40338)">
<ellipse cx="318.88" cy="73.8637" rx="18.0826" ry="18.7523" fill="#FF6DA2" fill-opacity="0.4"/>
</g>
<path d="M244.879 74.5212C249.964 63.8749 245.116 58.9627 236.772 54.9773C228.428 50.992 220.739 51.2503 215.654 61.8966C210.569 72.5429 211.05 89.7071 219.394 93.6925C228.848 97.2076 239.794 85.1675 244.879 74.5212Z" fill="#FFCAE3" fill-opacity="0.9"/>
<path d="M248.686 81.7499C260.449 82.6683 262.28 89.3226 261.56 98.5415C260.84 107.76 256.773 114.29 245.01 113.372C233.248 112.453 218.622 103.456 219.342 94.2375C221.024 84.2923 236.924 80.8314 248.686 81.7499Z" fill="#FFCAE3" fill-opacity="0.9"/>
<path d="M241.606 115.582C245.439 126.74 240.06 131.065 231.315 134.069C222.569 137.072 214.961 135.936 211.128 124.777C207.296 113.619 209.738 96.6222 218.484 93.6185C228.278 91.2089 237.774 104.423 241.606 115.582Z" fill="#FFCAE3" fill-opacity="0.9"/>
<path d="M201.763 119.582C191.593 125.563 186.282 121.155 181.595 113.185C176.907 105.214 176.503 97.5318 186.673 91.5505C196.843 85.5692 213.985 84.5724 218.673 92.543C222.987 101.66 211.933 113.6 201.763 119.582Z" fill="#FFCAE3" fill-opacity="0.9"/>
<path d="M212.559 63.6383C206.023 53.8162 199.32 55.462 191.622 60.585C183.924 65.7081 180.206 72.4427 186.742 82.2649C193.279 92.087 208.264 100.47 215.963 95.347C223.826 89.0299 219.096 73.4604 212.559 63.6383Z" fill="#FFCAE3" fill-opacity="0.9"/>
<g filter="url(#filter21_f_1409_40338)">
<ellipse cx="219.688" cy="92.1047" rx="18.0826" ry="18.7523" transform="rotate(35.4355 219.688 92.1047)" fill="#FF6DA2" fill-opacity="0.4"/>
</g>
<path d="M1191.21 35.9299C1189.18 24.3075 1182.38 23.1159 1173.27 24.7065C1164.17 26.2972 1158.05 30.9654 1160.08 42.5878C1162.11 54.2103 1172.45 67.9166 1181.56 66.3259C1191.3 63.7086 1193.24 47.5524 1191.21 35.9299Z" fill="#FFCAE3" fill-opacity="0.9"/>
<path d="M1198.5 39.6123C1208.62 33.5409 1213.97 37.9011 1218.73 45.8297C1223.49 53.7584 1223.96 61.4367 1213.84 67.5082C1203.73 73.5796 1186.59 74.7288 1181.84 66.8002C1177.44 57.722 1188.39 45.6837 1198.5 39.6123Z" fill="#FFCAE3" fill-opacity="0.9"/>
<path d="M1212.35 71.2839C1221.94 78.1535 1220.07 84.7955 1214.69 92.3135C1209.3 99.8314 1202.44 103.316 1192.85 96.4467C1183.26 89.5771 1175.39 74.313 1180.78 66.7951C1187.36 59.1532 1202.76 64.4144 1212.35 71.2839Z" fill="#FFCAE3" fill-opacity="0.9"/>
<path d="M1182.21 97.6444C1177.39 108.414 1170.51 107.902 1162.07 104.126C1153.63 100.349 1148.84 94.3242 1153.66 83.5545C1158.48 72.7848 1171.87 62.0339 1180.31 65.8102C1189.11 70.7366 1187.03 86.8747 1182.21 97.6444Z" fill="#FFCAE3" fill-opacity="0.9"/>
<path d="M1158.57 45.8031C1147.55 41.5901 1143.04 46.817 1139.74 55.4544C1136.44 64.0918 1137.31 71.7346 1148.33 75.9476C1159.35 80.1606 1176.42 78.3024 1179.73 69.6651C1182.47 59.9591 1169.59 50.016 1158.57 45.8031Z" fill="#FFCAE3" fill-opacity="0.9"/>
<g filter="url(#filter22_f_1409_40338)">
<ellipse cx="1180.88" cy="64.8637" rx="18.0826" ry="18.7523" fill="#FF6DA2" fill-opacity="0.4"/>
</g>
<path d="M798.211 63.9299C796.181 52.3075 789.383 51.1159 780.274 52.7065C771.165 54.2972 765.051 58.9654 767.08 70.5878C769.11 82.2103 779.453 95.9166 788.562 94.3259C798.303 91.7086 800.24 75.5524 798.211 63.9299Z" fill="#FFCAE3" fill-opacity="0.9"/>
<path d="M805.504 67.6123C815.62 61.5409 820.97 65.9011 825.729 73.8297C830.487 81.7584 830.959 89.4367 820.843 95.5082C810.727 101.58 793.594 102.729 788.836 94.8002C784.44 85.722 795.388 73.6837 805.504 67.6123Z" fill="#FFCAE3" fill-opacity="0.9"/>
<path d="M819.352 99.2839C828.944 106.153 827.069 112.796 821.685 120.313C816.301 127.831 809.443 131.316 799.851 124.447C790.259 117.577 782.395 102.313 787.779 94.7951C794.362 87.1532 809.76 92.4144 819.352 99.2839Z" fill="#FFCAE3" fill-opacity="0.9"/>
<path d="M789.208 125.644C784.39 136.414 777.507 135.902 769.067 132.126C760.626 128.349 755.843 122.324 760.661 111.554C765.479 100.785 778.868 90.0339 787.309 93.8102C796.11 98.7366 794.026 114.875 789.208 125.644Z" fill="#FFCAE3" fill-opacity="0.9"/>
<path d="M765.569 73.8031C754.548 69.5901 750.042 74.817 746.74 83.4544C743.438 92.0918 744.313 99.7346 755.334 103.948C766.354 108.161 783.424 106.302 786.726 97.6651C789.47 87.9591 776.589 78.016 765.569 73.8031Z" fill="#FFCAE3" fill-opacity="0.9"/>
<g filter="url(#filter23_f_1409_40338)">
<ellipse cx="787.88" cy="92.8637" rx="18.0826" ry="18.7523" fill="#FF6DA2" fill-opacity="0.4"/>
</g>
<path d="M932.033 82.1373C932.379 70.3441 925.959 67.8114 916.716 67.54C907.473 67.2686 900.545 70.6135 900.199 82.4068C899.853 94.2 907.232 109.704 916.475 109.976C926.543 109.368 931.686 93.9305 932.033 82.1373Z" fill="#FFCAE3" fill-opacity="0.9"/>
<path d="M938.438 87.2096C949.567 83.2938 953.932 88.6397 957.001 97.3626C960.071 106.085 958.99 113.702 947.861 117.618C936.731 121.534 919.717 119.218 916.648 110.495C914.166 100.719 927.308 91.1255 938.438 87.2096Z" fill="#FFCAE3" fill-opacity="0.9"/>
<path d="M945.642 121.017C953.659 129.674 950.488 135.804 943.704 142.087C936.92 148.37 929.501 150.407 921.484 141.751C913.467 133.094 908.829 116.562 915.614 110.278C923.598 104.114 937.625 112.361 945.642 121.017Z" fill="#FFCAE3" fill-opacity="0.9"/>
<path d="M910.819 140.784C903.935 150.367 897.296 148.482 889.786 143.088C882.275 137.693 878.8 130.83 885.683 121.248C892.566 111.665 907.842 103.823 915.352 109.217C922.985 115.811 917.702 131.202 910.819 140.784Z" fill="#FFCAE3" fill-opacity="0.9"/>
<path d="M898.073 85.2519C888.123 78.9113 882.658 83.1265 877.689 90.9246C872.719 98.7227 872.042 106.386 881.992 112.726C891.941 119.067 909.037 120.675 914.006 112.877C918.644 103.92 908.023 91.5925 898.073 85.2519Z" fill="#FFCAE3" fill-opacity="0.9"/>
<g filter="url(#filter24_f_1409_40338)">
<ellipse cx="916.103" cy="108.406" rx="18.0826" ry="18.7523" transform="rotate(11.5869 916.103 108.406)" fill="#FF6DA2" fill-opacity="0.4"/>
</g>
<path d="M978.211 99.9299C976.181 88.3075 969.383 87.1159 960.274 88.7065C951.165 90.2972 945.051 94.9654 947.08 106.588C949.11 118.21 959.453 131.917 968.562 130.326C978.303 127.709 980.24 111.552 978.211 99.9299Z" fill="#FFCAE3" fill-opacity="0.9"/>
<path d="M985.504 103.612C995.62 97.5409 1000.97 101.901 1005.73 109.83C1010.49 117.758 1010.96 125.437 1000.84 131.508C990.727 137.58 973.594 138.729 968.836 130.8C964.44 121.722 975.388 109.684 985.504 103.612Z" fill="#FFCAE3" fill-opacity="0.9"/>
<path d="M999.352 135.284C1008.94 142.153 1007.07 148.796 1001.69 156.313C996.301 163.831 989.443 167.316 979.851 160.447C970.259 153.577 962.395 138.313 967.779 130.795C974.362 123.153 989.76 128.414 999.352 135.284Z" fill="#FFCAE3" fill-opacity="0.9"/>
<path d="M969.208 161.644C964.39 172.414 957.507 171.902 949.067 168.126C940.626 164.349 935.843 158.324 940.661 147.554C945.479 136.785 958.868 126.034 967.309 129.81C976.11 134.737 974.026 150.875 969.208 161.644Z" fill="#FFCAE3" fill-opacity="0.9"/>
<path d="M945.569 109.803C934.548 105.59 930.042 110.817 926.74 119.454C923.438 128.092 924.313 135.735 935.334 139.948C946.354 144.161 963.424 142.302 966.726 133.665C969.47 123.959 956.589 114.016 945.569 109.803Z" fill="#FFCAE3" fill-opacity="0.9"/>
<g filter="url(#filter25_f_1409_40338)">
<ellipse cx="967.88" cy="128.864" rx="18.0826" ry="18.7523" fill="#FF6DA2" fill-opacity="0.4"/>
</g>
<path d="M1422.21 -17.0701C1420.18 -28.6925 1413.38 -29.8841 1404.27 -28.2935C1395.17 -26.7028 1389.05 -22.0346 1391.08 -10.4122C1393.11 1.21025 1403.45 14.9166 1412.56 13.3259C1422.3 10.7086 1424.24 -5.44763 1422.21 -17.0701Z" fill="#FFCAE3" fill-opacity="0.9"/>
<path d="M1429.5 -13.3877C1439.62 -19.4591 1444.97 -15.0989 1449.73 -7.17026C1454.49 0.758383 1454.96 8.43674 1444.84 14.5082C1434.73 20.5796 1417.59 21.7288 1412.84 13.8002C1408.44 4.72201 1419.39 -7.31626 1429.5 -13.3877Z" fill="#FFCAE3" fill-opacity="0.9"/>
<path d="M1443.35 18.2839C1452.94 25.1535 1451.07 31.7955 1445.69 39.3135C1440.3 46.8314 1433.44 50.3162 1423.85 43.4467C1414.26 36.5771 1406.39 21.313 1411.78 13.7951C1418.36 6.15321 1433.76 11.4144 1443.35 18.2839Z" fill="#FFCAE3" fill-opacity="0.9"/>
<path d="M1413.21 44.6444C1408.39 55.414 1401.51 54.9019 1393.07 51.1257C1384.63 47.3494 1379.84 41.3242 1384.66 30.5545C1389.48 19.7848 1402.87 9.03394 1411.31 12.8102C1420.11 17.7366 1418.03 33.8747 1413.21 44.6444Z" fill="#FFCAE3" fill-opacity="0.9"/>
<path d="M1389.57 -7.19691C1378.55 -11.4099 1374.04 -6.18297 1370.74 2.4544C1367.44 11.0918 1368.31 18.7346 1379.33 22.9476C1390.35 27.1606 1407.42 25.3024 1410.73 16.6651C1413.47 6.95913 1400.59 -2.98395 1389.57 -7.19691Z" fill="#FFCAE3" fill-opacity="0.9"/>
<g filter="url(#filter26_f_1409_40338)">
<ellipse cx="1411.88" cy="11.8637" rx="18.0826" ry="18.7523" fill="#FF6DA2" fill-opacity="0.4"/>
</g>
<path d="M1357.21 -30.0701C1355.18 -41.6925 1348.38 -42.8841 1339.27 -41.2935C1330.17 -39.7028 1324.05 -35.0346 1326.08 -23.4122C1328.11 -11.7897 1338.45 1.91658 1347.56 0.325917C1357.3 -2.29137 1359.24 -18.4476 1357.21 -30.0701Z" fill="#FFCAE3" fill-opacity="0.9"/>
<path d="M1364.5 -26.3877C1374.62 -32.4591 1379.97 -28.0989 1384.73 -20.1703C1389.49 -12.2416 1389.96 -4.56326 1379.84 1.50818C1369.73 7.57961 1352.59 8.72881 1347.84 0.800165C1343.44 -8.27799 1354.39 -20.3163 1364.5 -26.3877Z" fill="#FFCAE3" fill-opacity="0.9"/>
<path d="M1378.35 5.28394C1387.94 12.1535 1386.07 18.7955 1380.69 26.3135C1375.3 33.8314 1368.44 37.3162 1358.85 30.4467C1349.26 23.5771 1341.39 8.31297 1346.78 0.795064C1353.36 -6.84679 1368.76 -1.58561 1378.35 5.28394Z" fill="#FFCAE3" fill-opacity="0.9"/>
<path d="M1348.21 31.6444C1343.39 42.414 1336.51 41.9019 1328.07 38.1257C1319.63 34.3494 1314.84 28.3242 1319.66 17.5545C1324.48 6.78484 1337.87 -3.96606 1346.31 -0.189807C1355.11 4.73665 1353.03 20.8747 1348.21 31.6444Z" fill="#FFCAE3" fill-opacity="0.9"/>
<path d="M1324.57 -20.1969C1313.55 -24.4099 1309.04 -19.183 1305.74 -10.5456C1302.44 -1.90823 1303.31 5.73465 1314.33 9.9476C1325.35 14.1606 1342.42 12.3024 1345.73 3.66506C1348.47 -6.04087 1335.59 -15.984 1324.57 -20.1969Z" fill="#FFCAE3" fill-opacity="0.9"/>
<g filter="url(#filter27_f_1409_40338)">
<ellipse cx="1346.88" cy="-1.13633" rx="18.0826" ry="18.7523" fill="#FF6DA2" fill-opacity="0.4"/>
</g>
<path d="M1352.21 24.9299C1350.18 13.3075 1343.38 12.1159 1334.27 13.7065C1325.17 15.2972 1319.05 19.9654 1321.08 31.5878C1323.11 43.2103 1333.45 56.9166 1342.56 55.3259C1352.3 52.7086 1354.24 36.5524 1352.21 24.9299Z" fill="#FFCAE3" fill-opacity="0.9"/>
<path d="M1359.5 28.6123C1369.62 22.5409 1374.97 26.9011 1379.73 34.8297C1384.49 42.7584 1384.96 50.4367 1374.84 56.5082C1364.73 62.5796 1347.59 63.7288 1342.84 55.8002C1338.44 46.722 1349.39 34.6837 1359.5 28.6123Z" fill="#FFCAE3" fill-opacity="0.9"/>
<path d="M1373.35 60.2839C1382.94 67.1535 1381.07 73.7955 1375.69 81.3135C1370.3 88.8314 1363.44 92.3162 1353.85 85.4467C1344.26 78.5771 1336.39 63.313 1341.78 55.7951C1348.36 48.1532 1363.76 53.4144 1373.35 60.2839Z" fill="#FFCAE3" fill-opacity="0.9"/>
<path d="M1343.21 86.6444C1338.39 97.414 1331.51 96.9019 1323.07 93.1257C1314.63 89.3494 1309.84 83.3242 1314.66 72.5545C1319.48 61.7848 1332.87 51.0339 1341.31 54.8102C1350.11 59.7366 1348.03 75.8747 1343.21 86.6444Z" fill="#FFCAE3" fill-opacity="0.9"/>
<path d="M1319.57 34.8031C1308.55 30.5901 1304.04 35.817 1300.74 44.4544C1297.44 53.0918 1298.31 60.7346 1309.33 64.9476C1320.35 69.1606 1337.42 67.3024 1340.73 58.6651C1343.47 48.9591 1330.59 39.016 1319.57 34.8031Z" fill="#FFCAE3" fill-opacity="0.9"/>
<g filter="url(#filter28_f_1409_40338)">
<ellipse cx="1341.88" cy="53.8637" rx="18.0826" ry="18.7523" fill="#FF6DA2" fill-opacity="0.4"/>
</g>
<path d="M1290.21 -5.07007C1288.18 -16.6925 1281.38 -17.8841 1272.27 -16.2935C1263.17 -14.7028 1257.05 -10.0346 1259.08 1.58781C1261.11 13.2103 1271.45 26.9166 1280.56 25.3259C1290.3 22.7086 1292.24 6.55237 1290.21 -5.07007Z" fill="#FFCAE3" fill-opacity="0.9"/>
<path d="M1297.5 -1.3877C1307.62 -7.45914 1312.97 -3.0989 1317.73 4.82974C1322.49 12.7584 1322.96 20.4367 1312.84 26.5082C1302.73 32.5796 1285.59 33.7288 1280.84 25.8002C1276.44 16.722 1287.39 4.68374 1297.5 -1.3877Z" fill="#FFCAE3" fill-opacity="0.9"/>
<path d="M1311.35 30.2839C1320.94 37.1535 1319.07 43.7955 1313.69 51.3135C1308.3 58.8314 1301.44 62.3162 1291.85 55.4467C1282.26 48.5771 1274.39 33.313 1279.78 25.7951C1286.36 18.1532 1301.76 23.4144 1311.35 30.2839Z" fill="#FFCAE3" fill-opacity="0.9"/>
<path d="M1281.21 56.6444C1276.39 67.414 1269.51 66.9019 1261.07 63.1257C1252.63 59.3494 1247.84 53.3242 1252.66 42.5545C1257.48 31.7848 1270.87 21.0339 1279.31 24.8102C1288.11 29.7366 1286.03 45.8747 1281.21 56.6444Z" fill="#FFCAE3" fill-opacity="0.9"/>
<path d="M1257.57 4.80309C1246.55 0.590135 1242.04 5.81703 1238.74 14.4544C1235.44 23.0918 1236.31 30.7346 1247.33 34.9476C1258.35 39.1606 1275.42 37.3024 1278.73 28.6651C1281.47 18.9591 1268.59 9.01605 1257.57 4.80309Z" fill="#FFCAE3" fill-opacity="0.9"/>
<g filter="url(#filter29_f_1409_40338)">
<ellipse cx="1279.88" cy="23.8637" rx="18.0826" ry="18.7523" fill="#FF6DA2" fill-opacity="0.4"/>
</g>
<path d="M1238.76 4.12088C1241.22 -7.41923 1235.36 -11.0618 1226.31 -12.9858C1217.27 -14.9098 1209.85 -12.861 1207.4 -1.32087C1204.94 10.2192 1209.42 26.7954 1218.47 28.7193C1228.48 29.9266 1236.31 15.661 1238.76 4.12088Z" fill="#FFCAE3" fill-opacity="0.9"/>
<path d="M1244.15 10.2575C1255.81 8.40033 1259.14 14.4421 1260.6 23.5738C1262.05 32.7056 1259.62 40.0052 1247.97 41.8624C1236.32 43.7196 1220 38.3916 1218.54 29.2599C1217.85 19.1971 1232.5 12.1147 1244.15 10.2575Z" fill="#FFCAE3" fill-opacity="0.9"/>
<path d="M1245.18 44.8093C1251.52 54.7624 1247.3 60.2249 1239.5 65.1901C1231.7 70.1554 1224.03 70.8289 1217.7 60.8757C1211.36 50.9226 1209.76 33.8263 1217.57 28.861C1226.52 24.2283 1238.85 34.8561 1245.18 44.8093Z" fill="#FFCAE3" fill-opacity="0.9"/>
<path d="M1207.38 58.0136C1198.89 66.2069 1192.69 63.1632 1186.27 56.5095C1179.85 49.8559 1177.66 42.4809 1186.15 34.2876C1194.64 26.0944 1211.08 21.1172 1217.5 27.7709C1223.82 35.6262 1215.87 49.8204 1207.38 58.0136Z" fill="#FFCAE3" fill-opacity="0.9"/>
<path d="M1204.79 1.09674C1196.14 -6.92485 1190.01 -3.75763 1183.72 3.0233C1177.44 9.80423 1175.4 17.2215 1184.05 25.2431C1192.7 33.2647 1209.23 37.9117 1215.52 31.1308C1221.69 23.1503 1213.45 9.11833 1204.79 1.09674Z" fill="#FFCAE3" fill-opacity="0.9"/>
<g filter="url(#filter30_f_1409_40338)">
<ellipse cx="1218.38" cy="27.1071" rx="18.0826" ry="18.7523" transform="rotate(21.9142 1218.38 27.1071)" fill="#FF6DA2" fill-opacity="0.4"/>
</g>
<path d="M1091.21 -19.0701C1089.18 -30.6925 1082.38 -31.8841 1073.27 -30.2935C1064.17 -28.7028 1058.05 -24.0346 1060.08 -12.4122C1062.11 -0.789747 1072.45 12.9166 1081.56 11.3259C1091.3 8.70863 1093.24 -7.44763 1091.21 -19.0701Z" fill="#FFCAE3" fill-opacity="0.9"/>
<path d="M1098.5 -15.3877C1108.62 -21.4591 1113.97 -17.0989 1118.73 -9.17026C1123.49 -1.24162 1123.96 6.43674 1113.84 12.5082C1103.73 18.5796 1086.59 19.7288 1081.84 11.8002C1077.44 2.72201 1088.39 -9.31626 1098.5 -15.3877Z" fill="#FFCAE3" fill-opacity="0.9"/>
<path d="M1112.35 16.2839C1121.94 23.1535 1120.07 29.7955 1114.69 37.3135C1109.3 44.8314 1102.44 48.3162 1092.85 41.4467C1083.26 34.5771 1075.39 19.313 1080.78 11.7951C1087.36 4.15321 1102.76 9.41439 1112.35 16.2839Z" fill="#FFCAE3" fill-opacity="0.9"/>
<path d="M1082.21 42.6444C1077.39 53.414 1070.51 52.9019 1062.07 49.1257C1053.63 45.3494 1048.84 39.3242 1053.66 28.5545C1058.48 17.7848 1071.87 7.03394 1080.31 10.8102C1089.11 15.7366 1087.03 31.8747 1082.21 42.6444Z" fill="#FFCAE3" fill-opacity="0.9"/>
<path d="M1058.57 -9.19691C1047.55 -13.4099 1043.04 -8.18297 1039.74 0.4544C1036.44 9.09177 1037.31 16.7346 1048.33 20.9476C1059.35 25.1606 1076.42 23.3024 1079.73 14.6651C1082.47 4.95913 1069.59 -4.98395 1058.57 -9.19691Z" fill="#FFCAE3" fill-opacity="0.9"/>
<g filter="url(#filter31_f_1409_40338)">
<ellipse cx="1080.88" cy="9.86367" rx="18.0826" ry="18.7523" fill="#FF6DA2" fill-opacity="0.4"/>
</g>
<path d="M549.211 51.9299C547.181 40.3075 540.383 39.1159 531.274 40.7065C522.165 42.2972 516.051 46.9654 518.08 58.5878C520.11 70.2103 530.453 83.9166 539.562 82.3259C549.303 79.7086 551.24 63.5524 549.211 51.9299Z" fill="#FFCAE3" fill-opacity="0.9"/>
<path d="M556.504 55.6123C566.62 49.5409 571.97 53.9011 576.729 61.8297C581.487 69.7584 581.959 77.4367 571.843 83.5082C561.727 89.5796 544.594 90.7288 539.836 82.8002C535.44 73.722 546.388 61.6837 556.504 55.6123Z" fill="#FFCAE3" fill-opacity="0.9"/>
<path d="M570.352 87.2839C579.944 94.1535 578.069 100.796 572.685 108.313C567.301 115.831 560.443 119.316 550.851 112.447C541.259 105.577 533.395 90.313 538.779 82.7951C545.362 75.1532 560.76 80.4144 570.352 87.2839Z" fill="#FFCAE3" fill-opacity="0.9"/>
<path d="M540.208 113.644C535.39 124.414 528.507 123.902 520.067 120.126C511.626 116.349 506.843 110.324 511.661 99.5545C516.479 88.7848 529.868 78.0339 538.309 81.8102C547.11 86.7366 545.026 102.875 540.208 113.644Z" fill="#FFCAE3" fill-opacity="0.9"/>
<path d="M516.569 61.8031C505.548 57.5901 501.042 62.817 497.74 71.4544C494.438 80.0918 495.313 87.7346 506.334 91.9476C517.354 96.1606 534.424 94.3024 537.726 85.6651C540.47 75.9591 527.589 66.016 516.569 61.8031Z" fill="#FFCAE3" fill-opacity="0.9"/>
<g filter="url(#filter32_f_1409_40338)">
<ellipse cx="538.88" cy="80.8637" rx="18.0826" ry="18.7523" fill="#FF6DA2" fill-opacity="0.4"/>
</g>
<path d="M1036.76 8.02393C1041.44 -2.80797 1036.41 -7.53234 1027.92 -11.1976C1019.43 -14.8629 1011.76 -14.3125 1007.08 -3.48056C1002.4 7.35135 1003.54 24.4849 1012.02 28.1501C1021.61 31.3034 1032.09 18.8558 1036.76 8.02393Z" fill="#FFCAE3" fill-opacity="0.9"/>
<path d="M1040.84 15.1012C1052.63 15.5719 1054.71 22.1517 1054.34 31.3914C1053.98 40.631 1050.16 47.3105 1038.37 46.8399C1026.58 46.3693 1011.62 37.935 1011.99 28.6953C1013.3 18.6934 1029.05 14.6306 1040.84 15.1012Z" fill="#FFCAE3" fill-opacity="0.9"/>
<path d="M1035.05 49.1803C1039.31 60.185 1034.1 64.7112 1025.47 68.0452C1016.85 71.3793 1009.2 70.5324 1004.95 59.5276C1000.69 48.5229 1002.49 31.446 1011.11 28.112C1020.81 25.3318 1030.8 38.1755 1035.05 49.1803Z" fill="#FFCAE3" fill-opacity="0.9"/>
<path d="M995.392 54.6913C985.457 61.0549 979.982 56.8523 974.995 49.0657C970.007 41.279 969.312 33.6177 979.247 27.2541C989.182 20.8905 1006.27 19.2427 1011.26 27.0294C1015.92 35.9756 1005.33 48.3277 995.392 54.6913Z" fill="#FFCAE3" fill-opacity="0.9"/>
<path d="M1004.05 -1.62191C997.149 -11.1884 990.513 -9.28909 983.016 -3.8771C975.518 1.53488 972.059 8.40603 978.964 17.9726C985.869 27.5391 1001.16 35.3464 1008.66 29.9344C1016.28 23.323 1010.96 7.94462 1004.05 -1.62191Z" fill="#FFCAE3" fill-opacity="0.9"/>
<g filter="url(#filter33_f_1409_40338)">
<ellipse cx="1012.26" cy="26.5526" rx="18.0826" ry="18.7523" transform="rotate(33.2569 1012.26 26.5526)" fill="#FF6DA2" fill-opacity="0.4"/>
</g>
<path d="M923.211 -30.0701C921.181 -41.6925 914.383 -42.8841 905.274 -41.2935C896.165 -39.7028 890.051 -35.0346 892.08 -23.4122C894.11 -11.7897 904.453 1.91658 913.562 0.325917C923.303 -2.29137 925.24 -18.4476 923.211 -30.0701Z" fill="#FFCAE3" fill-opacity="0.9"/>
<path d="M930.504 -26.3877C940.62 -32.4591 945.97 -28.0989 950.729 -20.1703C955.487 -12.2416 955.959 -4.56326 945.843 1.50818C935.727 7.57961 918.594 8.72881 913.836 0.800165C909.44 -8.27799 920.388 -20.3163 930.504 -26.3877Z" fill="#FFCAE3" fill-opacity="0.9"/>
<path d="M944.352 5.28394C953.944 12.1535 952.069 18.7955 946.685 26.3135C941.301 33.8314 934.443 37.3162 924.851 30.4467C915.259 23.5771 907.395 8.31297 912.779 0.795064C919.362 -6.84679 934.76 -1.58561 944.352 5.28394Z" fill="#FFCAE3" fill-opacity="0.9"/>
<path d="M914.208 31.6444C909.39 42.414 902.507 41.9019 894.067 38.1257C885.626 34.3494 880.843 28.3242 885.661 17.5545C890.479 6.78484 903.868 -3.96606 912.309 -0.189807C921.11 4.73665 919.026 20.8747 914.208 31.6444Z" fill="#FFCAE3" fill-opacity="0.9"/>
<path d="M890.569 -20.1969C879.548 -24.4099 875.042 -19.183 871.74 -10.5456C868.438 -1.90823 869.313 5.73465 880.334 9.9476C891.354 14.1606 908.424 12.3024 911.726 3.66506C914.47 -6.04087 901.589 -15.984 890.569 -20.1969Z" fill="#FFCAE3" fill-opacity="0.9"/>
<g filter="url(#filter34_f_1409_40338)">
<ellipse cx="912.88" cy="-1.13633" rx="18.0826" ry="18.7523" fill="#FF6DA2" fill-opacity="0.4"/>
</g>
<path d="M879.211 13.9299C877.181 2.30749 870.383 1.11588 861.274 2.70655C852.165 4.29721 846.051 8.96538 848.08 20.5878C850.11 32.2103 860.453 45.9166 869.562 44.3259C879.303 41.7086 881.24 25.5524 879.211 13.9299Z" fill="#FFCAE3" fill-opacity="0.9"/>
<path d="M886.504 17.6123C896.62 11.5409 901.97 15.9011 906.729 23.8297C911.487 31.7584 911.959 39.4367 901.843 45.5082C891.727 51.5796 874.594 52.7288 869.836 44.8002C865.44 35.722 876.388 23.6837 886.504 17.6123Z" fill="#FFCAE3" fill-opacity="0.9"/>
<path d="M900.352 49.2839C909.944 56.1535 908.069 62.7955 902.685 70.3135C897.301 77.8314 890.443 81.3162 880.851 74.4467C871.259 67.5771 863.395 52.313 868.779 44.7951C875.362 37.1532 890.76 42.4144 900.352 49.2839Z" fill="#FFCAE3" fill-opacity="0.9"/>
<path d="M870.208 75.6444C865.39 86.414 858.507 85.9019 850.067 82.1257C841.626 78.3494 836.843 72.3242 841.661 61.5545C846.479 50.7848 859.868 40.0339 868.309 43.8102C877.11 48.7366 875.026 64.8747 870.208 75.6444Z" fill="#FFCAE3" fill-opacity="0.9"/>
<path d="M846.569 23.8031C835.548 19.5901 831.042 24.817 827.74 33.4544C824.438 42.0918 825.313 49.7346 836.334 53.9476C847.354 58.1606 864.424 56.3024 867.726 47.6651C870.47 37.9591 857.589 28.016 846.569 23.8031Z" fill="#FFCAE3" fill-opacity="0.9"/>
<g filter="url(#filter35_f_1409_40338)">
<ellipse cx="868.88" cy="42.8637" rx="18.0826" ry="18.7523" fill="#FF6DA2" fill-opacity="0.4"/>
</g>
<path d="M736.211 24.9299C734.181 13.3075 727.383 12.1159 718.274 13.7065C709.165 15.2972 703.051 19.9654 705.08 31.5878C707.11 43.2103 717.453 56.9166 726.562 55.3259C736.303 52.7086 738.24 36.5524 736.211 24.9299Z" fill="#FFCAE3" fill-opacity="0.9"/>
<path d="M743.504 28.6123C753.62 22.5409 758.97 26.9011 763.729 34.8297C768.487 42.7584 768.959 50.4367 758.843 56.5082C748.727 62.5796 731.594 63.7288 726.836 55.8002C722.44 46.722 733.388 34.6837 743.504 28.6123Z" fill="#FFCAE3" fill-opacity="0.9"/>
<path d="M757.352 60.2839C766.944 67.1535 765.069 73.7955 759.685 81.3135C754.301 88.8314 747.443 92.3162 737.851 85.4467C728.259 78.5771 720.395 63.313 725.779 55.7951C732.362 48.1532 747.76 53.4144 757.352 60.2839Z" fill="#FFCAE3" fill-opacity="0.9"/>
<path d="M727.208 86.6444C722.39 97.414 715.507 96.9019 707.067 93.1257C698.626 89.3494 693.843 83.3242 698.661 72.5545C703.479 61.7848 716.868 51.0339 725.309 54.8102C734.11 59.7366 732.026 75.8747 727.208 86.6444Z" fill="#FFCAE3" fill-opacity="0.9"/>
<path d="M703.569 34.8031C692.548 30.5901 688.042 35.817 684.74 44.4544C681.438 53.0918 682.313 60.7346 693.334 64.9476C704.354 69.1606 721.424 67.3024 724.726 58.6651C727.47 48.9591 714.589 39.016 703.569 34.8031Z" fill="#FFCAE3" fill-opacity="0.9"/>
<g filter="url(#filter36_f_1409_40338)">
<ellipse cx="725.88" cy="53.8637" rx="18.0826" ry="18.7523" fill="#FF6DA2" fill-opacity="0.4"/>
</g>
<path d="M603.072 30.5608C595.275 21.7057 588.855 24.2368 581.915 30.3474C574.974 36.458 572.194 43.631 579.991 52.4862C587.788 61.3413 603.763 67.6356 610.704 61.525C617.647 54.209 610.869 39.416 603.072 30.5608Z" fill="#FFCAE3" fill-opacity="0.9"/>
<path d="M611.215 29.8959C616.676 19.4375 623.515 20.3651 631.712 24.6452C639.909 28.9253 644.318 35.2289 638.857 45.6873C633.396 56.1457 619.382 66.0667 611.185 61.7866C602.698 56.3366 605.754 40.3543 611.215 29.8959Z" fill="#FFCAE3" fill-opacity="0.9"/>
<path d="M639.556 49.6843C651.323 50.5385 653.19 57.1826 652.521 66.4054C651.851 75.6281 647.82 82.1799 636.052 81.3257C624.285 80.4715 609.611 71.5548 610.28 62.332C611.908 52.3778 627.789 48.8301 639.556 49.6843Z" fill="#FFCAE3" fill-opacity="0.9"/>
<path d="M627.598 87.9021C629.109 99.6034 622.97 102.758 613.8 103.942C604.629 105.126 597.404 102.482 595.894 90.7806C594.384 79.0793 600.194 62.9214 609.365 61.7378C619.444 61.347 626.088 76.2009 627.598 87.9021Z" fill="#FFCAE3" fill-opacity="0.9"/>
<path d="M580.38 56.0152C568.78 58.1726 567.664 64.9832 569.355 74.0743C571.045 83.1654 575.781 89.2282 587.38 87.0708C598.979 84.9134 612.571 74.4201 610.88 65.3291C608.156 55.6176 591.979 53.8578 580.38 56.0152Z" fill="#FFCAE3" fill-opacity="0.9"/>
<g filter="url(#filter37_f_1409_40338)">
<ellipse cx="609.36" cy="60.632" rx="18.0826" ry="18.7523" transform="rotate(-31.4572 609.36 60.632)" fill="#FF6DA2" fill-opacity="0.4"/>
</g>
<path d="M849.211 -30.0701C847.181 -41.6925 840.383 -42.8841 831.274 -41.2935C822.165 -39.7028 816.051 -35.0346 818.08 -23.4122C820.11 -11.7897 830.453 1.91658 839.562 0.325917C849.303 -2.29137 851.24 -18.4476 849.211 -30.0701Z" fill="#FFCAE3" fill-opacity="0.9"/>
<path d="M856.504 -26.3877C866.62 -32.4591 871.97 -28.0989 876.729 -20.1703C881.487 -12.2416 881.959 -4.56326 871.843 1.50818C861.727 7.57961 844.594 8.72881 839.836 0.800165C835.44 -8.27799 846.388 -20.3163 856.504 -26.3877Z" fill="#FFCAE3" fill-opacity="0.9"/>
<path d="M870.352 5.28394C879.944 12.1535 878.069 18.7955 872.685 26.3135C867.301 33.8314 860.443 37.3162 850.851 30.4467C841.259 23.5771 833.395 8.31297 838.779 0.795064C845.362 -6.84679 860.76 -1.58561 870.352 5.28394Z" fill="#FFCAE3" fill-opacity="0.9"/>
<path d="M840.208 31.6444C835.39 42.414 828.507 41.9019 820.067 38.1257C811.626 34.3494 806.843 28.3242 811.661 17.5545C816.479 6.78484 829.868 -3.96606 838.309 -0.189807C847.11 4.73665 845.026 20.8747 840.208 31.6444Z" fill="#FFCAE3" fill-opacity="0.9"/>
<path d="M816.569 -20.1969C805.548 -24.4099 801.042 -19.183 797.74 -10.5456C794.438 -1.90823 795.313 5.73465 806.334 9.9476C817.354 14.1606 834.424 12.3024 837.726 3.66506C840.47 -6.04087 827.589 -15.984 816.569 -20.1969Z" fill="#FFCAE3" fill-opacity="0.9"/>
<g filter="url(#filter38_f_1409_40338)">
<ellipse cx="838.88" cy="-1.13633" rx="18.0826" ry="18.7523" fill="#FF6DA2" fill-opacity="0.4"/>
</g>
<path d="M718.352 -17.7161C727.944 -10.8465 726.069 -4.20446 720.685 3.31345C715.301 10.8314 708.443 14.3162 698.851 7.44669C689.259 0.577146 681.395 -14.687 686.779 -22.2049C693.362 -29.8468 708.76 -24.5856 718.352 -17.7161Z" fill="#FFCAE3" fill-opacity="0.9"/>
<path d="M688.208 8.64436C683.39 19.414 676.507 18.9019 668.067 15.1257C659.626 11.3494 654.843 5.32416 659.661 -5.4455C664.479 -16.2152 677.868 -26.9661 686.309 -23.1898C695.11 -18.2634 693.026 -2.1253 688.208 8.64436Z" fill="#FFCAE3" fill-opacity="0.9"/>
<g filter="url(#filter39_f_1409_40338)">
<ellipse cx="686.88" cy="-24.1363" rx="18.0826" ry="18.7523" fill="#FF6DA2" fill-opacity="0.4"/>
</g>
<path d="M785.691 -4.53245C780.113 -14.9291 773.285 -13.925 765.137 -9.55339C756.988 -5.18183 752.65 1.17078 758.227 11.5674C763.805 21.964 777.93 31.7275 786.078 27.356C794.504 21.8113 791.269 5.86415 785.691 -4.53245Z" fill="#FFCAE3" fill-opacity="0.9"/>
<path d="M793.772 -3.32767C801.469 -12.2695 807.917 -9.81049 814.926 -3.77795C821.934 2.25458 824.794 9.39606 817.097 18.3379C809.4 27.2798 793.496 33.7525 786.487 27.72C779.462 20.4822 786.075 5.61419 793.772 -3.32767Z" fill="#FFCAE3" fill-opacity="0.9"/>
<path d="M816.867 22.3899C828.132 25.8986 828.438 32.7933 825.689 41.6219C822.939 50.4506 817.522 55.9134 806.258 52.4047C794.993 48.896 782.732 36.8748 785.482 28.0462C789.331 18.7233 805.603 18.8812 816.867 22.3899Z" fill="#FFCAE3" fill-opacity="0.9"/>
<path d="M796.529 56.8837C795.338 68.6217 788.643 70.2975 779.443 69.3639C770.243 68.4302 763.81 64.2124 765.001 52.4743C766.192 40.7363 775.526 26.3239 784.726 27.2575C794.63 29.1699 797.72 45.1457 796.529 56.8837Z" fill="#FFCAE3" fill-opacity="0.9"/>
<path d="M757.802 15.0937C746.016 14.5558 743.379 20.9338 742.958 30.1712C742.536 39.4086 745.768 46.3896 757.554 46.9275C769.34 47.4654 784.962 40.3392 785.384 31.1018C784.94 21.0252 769.588 15.6316 757.802 15.0937Z" fill="#FFCAE3" fill-opacity="0.9"/>
<g filter="url(#filter40_f_1409_40338)">
<ellipse cx="784.972" cy="26.1796" rx="18.0826" ry="18.7523" transform="rotate(-18.308 784.972 26.1796)" fill="#FF6DA2" fill-opacity="0.4"/>
</g>
<path d="M737.211 -30.0701C735.181 -41.6925 728.383 -42.8841 719.274 -41.2935C710.165 -39.7028 704.051 -35.0346 706.08 -23.4122C708.11 -11.7897 718.453 1.91658 727.562 0.325917C737.303 -2.29137 739.24 -18.4476 737.211 -30.0701Z" fill="#FFCAE3" fill-opacity="0.9"/>
<path d="M744.504 -26.3877C754.62 -32.4591 759.97 -28.0989 764.729 -20.1703C769.487 -12.2416 769.959 -4.56326 759.843 1.50818C749.727 7.57961 732.594 8.72881 727.836 0.800165C723.44 -8.27799 734.388 -20.3163 744.504 -26.3877Z" fill="#FFCAE3" fill-opacity="0.9"/>
<path d="M758.352 5.28394C767.944 12.1535 766.069 18.7955 760.685 26.3135C755.301 33.8314 748.443 37.3162 738.851 30.4467C729.259 23.5771 721.395 8.31297 726.779 0.795064C733.362 -6.84679 748.76 -1.58561 758.352 5.28394Z" fill="#FFCAE3" fill-opacity="0.9"/>
<path d="M728.208 31.6444C723.39 42.414 716.507 41.9019 708.067 38.1257C699.626 34.3494 694.843 28.3242 699.661 17.5545C704.479 6.78484 717.868 -3.96606 726.309 -0.189807C735.11 4.73665 733.026 20.8747 728.208 31.6444Z" fill="#FFCAE3" fill-opacity="0.9"/>
<path d="M704.569 -20.1969C693.548 -24.4099 689.042 -19.183 685.74 -10.5456C682.438 -1.90823 683.313 5.73465 694.334 9.9476C705.354 14.1606 722.424 12.3024 725.726 3.66506C728.47 -6.04087 715.589 -15.984 704.569 -20.1969Z" fill="#FFCAE3" fill-opacity="0.9"/>
<g filter="url(#filter41_f_1409_40338)">
<ellipse cx="726.88" cy="-1.13633" rx="18.0826" ry="18.7523" fill="#FF6DA2" fill-opacity="0.4"/>
</g>
<path d="M695.81 11.2014C697.77 -0.432986 691.758 -3.82206 682.639 -5.35822C673.521 -6.89439 666.2 -4.53096 664.24 7.1034C662.28 18.7378 667.463 35.1076 676.582 36.6437C686.638 37.4225 693.85 22.8358 695.81 11.2014Z" fill="#FFCAE3" fill-opacity="0.9"/>
<path d="M701.459 17.1028C713.02 14.75 716.611 20.6439 718.455 29.7052C720.299 38.7664 718.185 46.163 706.623 48.5158C695.062 50.8687 678.526 46.2423 676.682 37.181C675.563 27.1569 689.898 19.4556 701.459 17.1028Z" fill="#FFCAE3" fill-opacity="0.9"/>
<path d="M703.959 51.5797C710.714 61.2533 706.732 66.8909 699.151 72.1846C691.569 77.4783 683.941 78.4782 677.187 68.8046C670.433 59.1309 668.105 42.1185 675.687 36.8248C684.441 31.8138 697.205 41.906 703.959 51.5797Z" fill="#FFCAE3" fill-opacity="0.9"/>
<path d="M666.755 66.385C658.623 74.9331 652.304 72.1565 645.605 65.783C638.905 59.4095 636.404 52.1347 644.536 43.5866C652.668 35.0384 668.874 29.3643 675.574 35.7378C682.23 43.3159 674.887 57.8368 666.755 66.385Z" fill="#FFCAE3" fill-opacity="0.9"/>
<path d="M661.744 9.62885C652.758 1.98387 646.767 5.40992 640.775 12.453C634.783 19.4961 633.061 26.9938 642.047 34.6388C651.034 42.2837 667.747 46.2209 673.739 39.1778C679.561 30.9414 670.73 17.2738 661.744 9.62885Z" fill="#FFCAE3" fill-opacity="0.9"/>
<g filter="url(#filter42_f_1409_40338)">
<ellipse cx="676.428" cy="35.0369" rx="18.0826" ry="18.7523" transform="rotate(19.4679 676.428 35.0369)" fill="#FF6DA2" fill-opacity="0.4"/>
</g>
<path d="M627.211 -14.0701C625.181 -25.6925 618.383 -26.8841 609.274 -25.2935C600.165 -23.7028 594.051 -19.0346 596.08 -7.41219C598.11 4.21025 608.453 17.9166 617.562 16.3259C627.303 13.7086 629.24 -2.44763 627.211 -14.0701Z" fill="#FFCAE3" fill-opacity="0.9"/>
<path d="M634.504 -10.3877C644.62 -16.4591 649.97 -12.0989 654.729 -4.17026C659.487 3.75838 659.959 11.4367 649.843 17.5082C639.727 23.5796 622.594 24.7288 617.836 16.8002C613.44 7.72201 624.388 -4.31626 634.504 -10.3877Z" fill="#FFCAE3" fill-opacity="0.9"/>
<path d="M648.352 21.2839C657.944 28.1535 656.069 34.7955 650.685 42.3135C645.301 49.8314 638.443 53.3162 628.851 46.4467C619.259 39.5771 611.395 24.313 616.779 16.7951C623.362 9.15321 638.76 14.4144 648.352 21.2839Z" fill="#FFCAE3" fill-opacity="0.9"/>
<path d="M618.208 47.6444C613.39 58.414 606.507 57.9019 598.067 54.1257C589.626 50.3494 584.843 44.3242 589.661 33.5545C594.479 22.7848 607.868 12.0339 616.309 15.8102C625.11 20.7366 623.026 36.8747 618.208 47.6444Z" fill="#FFCAE3" fill-opacity="0.9"/>
<path d="M594.569 -4.19691C583.548 -8.40986 579.042 -3.18297 575.74 5.4544C572.438 14.0918 573.313 21.7346 584.334 25.9476C595.354 30.1606 612.424 28.3024 615.726 19.6651C618.47 9.95913 605.589 0.0160451 594.569 -4.19691Z" fill="#FFCAE3" fill-opacity="0.9"/>
<g filter="url(#filter43_f_1409_40338)">
<ellipse cx="616.88" cy="14.8637" rx="18.0826" ry="18.7523" fill="#FF6DA2" fill-opacity="0.4"/>
</g>
<path d="M581.337 3.81417C585.597 -7.18803 580.39 -11.7173 571.767 -15.0565C563.144 -18.3957 555.497 -17.5533 551.237 -6.55112C546.976 4.45109 548.761 21.529 557.384 24.8682C567.078 27.6541 577.076 14.8164 581.337 3.81417Z" fill="#FFCAE3" fill-opacity="0.9"/>
<path d="M585.683 10.7329C597.481 10.754 599.813 17.2498 599.796 26.4968C599.78 35.7438 596.221 42.5638 584.422 42.5427C572.624 42.5215 557.357 34.6631 557.373 25.4161C558.294 15.3719 573.885 10.7117 585.683 10.7329Z" fill="#FFCAE3" fill-opacity="0.9"/>
<path d="M581.197 45.006C585.867 55.8407 580.833 60.562 572.342 64.2223C563.85 67.8825 556.177 67.3275 551.507 56.4928C546.837 45.6581 547.98 28.5253 556.471 24.8651C566.054 21.7175 576.527 34.1713 581.197 45.006Z" fill="#FFCAE3" fill-opacity="0.9"/>
<path d="M541.774 52.0258C532.088 58.7632 526.457 54.7723 521.177 47.1813C515.896 39.5903 514.91 31.961 524.595 25.2236C534.281 18.4861 551.297 16.1884 556.578 23.7794C561.573 32.5417 551.459 45.2883 541.774 52.0258Z" fill="#FFCAE3" fill-opacity="0.9"/>
<path d="M548.283 -4.57857C541.019 -13.8751 534.461 -11.7243 527.175 -6.03064C519.888 -0.336942 516.693 6.66101 523.958 15.9575C531.223 25.254 546.802 32.4731 554.089 26.7794C561.448 19.8825 555.548 4.71794 548.283 -4.57857Z" fill="#FFCAE3" fill-opacity="0.9"/>
<g filter="url(#filter44_f_1409_40338)">
<ellipse cx="557.556" cy="23.2638" rx="18.0826" ry="18.7523" transform="rotate(31.0736 557.556 23.2638)" fill="#FF6DA2" fill-opacity="0.4"/>
</g>
<path d="M283.211 13.9299C281.181 2.30749 274.383 1.11588 265.274 2.70655C256.165 4.29721 250.051 8.96538 252.08 20.5878C254.11 32.2103 264.453 45.9166 273.562 44.3259C283.303 41.7086 285.24 25.5524 283.211 13.9299Z" fill="#FFCAE3" fill-opacity="0.9"/>
<path d="M290.504 17.6123C300.62 11.5409 305.97 15.9011 310.729 23.8297C315.487 31.7584 315.959 39.4367 305.843 45.5082C295.727 51.5796 278.594 52.7288 273.836 44.8002C269.44 35.722 280.388 23.6837 290.504 17.6123Z" fill="#FFCAE3" fill-opacity="0.9"/>
<path d="M304.352 49.2839C313.944 56.1535 312.069 62.7955 306.685 70.3135C301.301 77.8314 294.443 81.3162 284.851 74.4467C275.259 67.5771 267.395 52.313 272.779 44.7951C279.362 37.1532 294.76 42.4144 304.352 49.2839Z" fill="#FFCAE3" fill-opacity="0.9"/>
<path d="M274.208 75.6444C269.39 86.414 262.507 85.9019 254.067 82.1257C245.626 78.3494 240.843 72.3242 245.661 61.5545C250.479 50.7848 263.868 40.0339 272.309 43.8102C281.11 48.7366 279.026 64.8747 274.208 75.6444Z" fill="#FFCAE3" fill-opacity="0.9"/>
<path d="M250.569 23.8031C239.548 19.5901 235.042 24.817 231.74 33.4544C228.438 42.0918 229.313 49.7346 240.334 53.9476C251.354 58.1606 268.424 56.3024 271.726 47.6651C274.47 37.9591 261.589 28.016 250.569 23.8031Z" fill="#FFCAE3" fill-opacity="0.9"/>
<g filter="url(#filter45_f_1409_40338)">
<ellipse cx="272.88" cy="42.8637" rx="18.0826" ry="18.7523" fill="#FF6DA2" fill-opacity="0.4"/>
</g>
<path d="M280.504 -41.3877C290.62 -47.4591 295.97 -43.0989 300.729 -35.1703C305.487 -27.2416 305.959 -19.5633 295.843 -13.4918C285.727 -7.42039 268.594 -6.27119 263.836 -14.1998C259.44 -23.278 270.388 -35.3163 280.504 -41.3877Z" fill="#FFCAE3" fill-opacity="0.9"/>
<path d="M294.352 -9.71606C303.944 -2.84652 302.069 3.79554 296.685 11.3135C291.301 18.8314 284.443 22.3162 274.851 15.4467C265.259 8.57715 257.395 -6.68703 262.779 -14.2049C269.362 -21.8468 284.76 -16.5856 294.352 -9.71606Z" fill="#FFCAE3" fill-opacity="0.9"/>
<path d="M264.208 16.6444C259.39 27.414 252.507 26.9019 244.067 23.1257C235.626 19.3494 230.843 13.3242 235.661 2.5545C240.479 -8.21516 253.868 -18.9661 262.309 -15.1898C271.11 -10.2634 269.026 5.8747 264.208 16.6444Z" fill="#FFCAE3" fill-opacity="0.9"/>
<path d="M240.569 -35.1969C229.548 -39.4099 225.042 -34.183 221.74 -25.5456C218.438 -16.9082 219.313 -9.26535 230.334 -5.0524C241.354 -0.839444 258.424 -2.69757 261.726 -11.3349C264.47 -21.0409 251.589 -30.984 240.569 -35.1969Z" fill="#FFCAE3" fill-opacity="0.9"/>
<g filter="url(#filter46_f_1409_40338)">
<ellipse cx="262.88" cy="-16.1363" rx="18.0826" ry="18.7523" fill="#FF6DA2" fill-opacity="0.4"/>
</g>
<path d="M232.899 22.0577C241.334 13.8091 238.471 7.52944 232.006 0.917908C225.541 -5.69362 218.233 -8.09482 209.797 0.153764C201.361 8.40235 195.91 24.6851 202.375 31.2966C210.044 37.8483 224.463 30.3063 232.899 22.0577Z" fill="#FFCAE3" fill-opacity="0.9"/>
<path d="M233.988 30.1537C244.717 35.0608 244.148 41.9388 240.302 50.3481C236.456 58.7573 230.392 63.4902 219.662 58.5831C208.933 53.676 198.293 40.1987 202.139 31.7895C207.138 23.0291 223.258 25.2466 233.988 30.1537Z" fill="#FFCAE3" fill-opacity="0.9"/>
<path d="M215.706 59.4898C215.468 71.2857 208.931 73.4974 199.685 73.3107C190.44 73.124 183.687 69.4402 183.925 57.6443C184.163 45.8484 192.301 30.7284 201.546 30.915C211.572 32.0203 215.944 47.6938 215.706 59.4898Z" fill="#FFCAE3" fill-opacity="0.9"/>
<path d="M176.917 49.5454C165.311 51.665 161.84 45.7 160.179 36.6034C158.517 27.5069 160.78 20.1543 172.386 18.0347C183.993 15.9152 200.432 20.8735 202.093 29.9701C203.01 40.0147 188.524 47.4258 176.917 49.5454Z" fill="#FFCAE3" fill-opacity="0.9"/>
<path d="M206.292 0.724841C203.531 -10.746 196.672 -11.5053 187.682 -9.34174C178.691 -7.17819 172.884 -2.13267 175.645 9.33815C178.405 20.809 189.594 33.8338 198.584 31.6702C208.14 28.4421 209.052 12.1957 206.292 0.724841Z" fill="#FFCAE3" fill-opacity="0.9"/>
<g filter="url(#filter47_f_1409_40338)">
<ellipse cx="203.197" cy="29.9062" rx="18.0826" ry="18.7523" transform="rotate(55.5478 203.197 29.9062)" fill="#FF6DA2" fill-opacity="0.4"/>
</g>
<path d="M532.211 -7.07007C530.181 -18.6925 523.383 -19.8841 514.274 -18.2935C505.165 -16.7028 499.051 -12.0346 501.08 -0.412186C503.11 11.2103 513.453 24.9166 522.562 23.3259C532.303 20.7086 534.24 4.55237 532.211 -7.07007Z" fill="#FFCAE3" fill-opacity="0.9"/>
<path d="M539.504 -3.3877C549.62 -9.45914 554.97 -5.0989 559.729 2.82974C564.487 10.7584 564.959 18.4367 554.843 24.5082C544.727 30.5796 527.594 31.7288 522.836 23.8002C518.44 14.722 529.388 2.68374 539.504 -3.3877Z" fill="#FFCAE3" fill-opacity="0.9"/>
<path d="M553.352 28.2839C562.944 35.1535 561.069 41.7955 555.685 49.3135C550.301 56.8314 543.443 60.3162 533.851 53.4467C524.259 46.5771 516.395 31.313 521.779 23.7951C528.362 16.1532 543.76 21.4144 553.352 28.2839Z" fill="#FFCAE3" fill-opacity="0.9"/>
<path d="M523.208 54.6444C518.39 65.414 511.507 64.9019 503.067 61.1257C494.626 57.3494 489.843 51.3242 494.661 40.5545C499.479 29.7848 512.868 19.0339 521.309 22.8102C530.11 27.7366 528.026 43.8747 523.208 54.6444Z" fill="#FFCAE3" fill-opacity="0.9"/>
<path d="M499.569 2.80309C488.548 -1.40986 484.042 3.81703 480.74 12.4544C477.438 21.0918 478.313 28.7346 489.334 32.9476C500.354 37.1606 517.424 35.3024 520.726 26.6651C523.47 16.9591 510.589 7.01605 499.569 2.80309Z" fill="#FFCAE3" fill-opacity="0.9"/>
<g filter="url(#filter48_f_1409_40338)">
<ellipse cx="521.88" cy="21.8637" rx="18.0826" ry="18.7523" fill="#FF6DA2" fill-opacity="0.4"/>
</g>
<path d="M425.211 -16.0701C423.181 -27.6925 416.383 -28.8841 407.274 -27.2935C398.165 -25.7028 392.051 -21.0346 394.08 -9.41219C396.11 2.21025 406.453 15.9166 415.562 14.3259C425.303 11.7086 427.24 -4.44763 425.211 -16.0701Z" fill="#FFCAE3" fill-opacity="0.9"/>
<path d="M432.504 -12.3877C442.62 -18.4591 447.97 -14.0989 452.729 -6.17026C457.487 1.75838 457.959 9.43674 447.843 15.5082C437.727 21.5796 420.594 22.7288 415.836 14.8002C411.44 5.72201 422.388 -6.31626 432.504 -12.3877Z" fill="#FFCAE3" fill-opacity="0.9"/>
<path d="M446.352 19.2839C455.944 26.1535 454.069 32.7955 448.685 40.3135C443.301 47.8314 436.443 51.3162 426.851 44.4467C417.259 37.5771 409.395 22.313 414.779 14.7951C421.362 7.15321 436.76 12.4144 446.352 19.2839Z" fill="#FFCAE3" fill-opacity="0.9"/>
<path d="M416.208 45.6444C411.39 56.414 404.507 55.9019 396.067 52.1257C387.626 48.3494 382.843 42.3242 387.661 31.5545C392.479 20.7848 405.868 10.0339 414.309 13.8102C423.11 18.7366 421.026 34.8747 416.208 45.6444Z" fill="#FFCAE3" fill-opacity="0.9"/>
<path d="M392.569 -6.19691C381.548 -10.4099 377.042 -5.18297 373.74 3.4544C370.438 12.0918 371.313 19.7346 382.334 23.9476C393.354 28.1606 410.424 26.3024 413.726 17.6651C416.47 7.95913 403.589 -1.98395 392.569 -6.19691Z" fill="#FFCAE3" fill-opacity="0.9"/>
<g filter="url(#filter49_f_1409_40338)">
<ellipse cx="414.88" cy="12.8637" rx="18.0826" ry="18.7523" fill="#FF6DA2" fill-opacity="0.4"/>
</g>
<path d="M649.207 101.93C647.177 90.3075 640.38 89.1159 631.27 90.7065C622.161 92.2972 616.047 96.9654 618.076 108.588C620.106 120.21 630.449 133.917 639.558 132.326C649.299 129.709 651.236 113.552 649.207 101.93Z" fill="#FFCAE3" fill-opacity="0.9"/>
<path d="M656.5 105.612C666.617 99.5409 671.966 103.901 676.725 111.83C681.483 119.758 681.955 127.437 671.839 133.508C661.723 139.58 644.59 140.729 639.832 132.8C635.436 123.722 646.384 111.684 656.5 105.612Z" fill="#FFCAE3" fill-opacity="0.9"/>
<path d="M670.348 137.284C679.94 144.153 678.065 150.796 672.681 158.313C667.297 165.831 660.439 169.316 650.847 162.447C641.255 155.577 633.391 140.313 638.775 132.795C645.358 125.153 660.756 130.414 670.348 137.284Z" fill="#FFCAE3" fill-opacity="0.9"/>
<path d="M640.204 163.644C635.386 174.414 628.503 173.902 620.063 170.126C611.622 166.349 606.839 160.324 611.657 149.554C616.475 138.785 629.864 128.034 638.305 131.81C647.106 136.737 645.022 152.875 640.204 163.644Z" fill="#FFCAE3" fill-opacity="0.9"/>
<path d="M616.565 111.803C605.545 107.59 601.038 112.817 597.736 121.454C594.434 130.092 595.309 137.735 606.33 141.948C617.35 146.161 634.42 144.302 637.722 135.665C640.466 125.959 627.586 116.016 616.565 111.803Z" fill="#FFCAE3" fill-opacity="0.9"/>
<g filter="url(#filter50_f_1409_40338)">
<ellipse cx="638.878" cy="130.864" rx="18.0826" ry="18.7523" fill="#FF6DA2" fill-opacity="0.4"/>
</g>
<path d="M350.211 -20.0701C348.181 -31.6925 341.383 -32.8841 332.274 -31.2935C323.165 -29.7028 317.051 -25.0346 319.08 -13.4122C321.11 -1.78975 331.453 11.9166 340.562 10.3259C350.303 7.70863 352.24 -8.44763 350.211 -20.0701Z" fill="#FFCAE3" fill-opacity="0.9"/>
<path d="M357.504 -16.3877C367.62 -22.4591 372.97 -18.0989 377.729 -10.1703C382.487 -2.24162 382.959 5.43674 372.843 11.5082C362.727 17.5796 345.594 18.7288 340.836 10.8002C336.44 1.72201 347.388 -10.3163 357.504 -16.3877Z" fill="#FFCAE3" fill-opacity="0.9"/>
<path d="M371.352 15.2839C380.944 22.1535 379.069 28.7955 373.685 36.3135C368.301 43.8314 361.443 47.3162 351.851 40.4467C342.259 33.5771 334.395 18.313 339.779 10.7951C346.362 3.15321 361.76 8.41439 371.352 15.2839Z" fill="#FFCAE3" fill-opacity="0.9"/>
<path d="M341.208 41.6444C336.39 52.414 329.507 51.9019 321.067 48.1257C312.626 44.3494 307.843 38.3242 312.661 27.5545C317.479 16.7848 330.868 6.03394 339.309 9.81019C348.11 14.7366 346.026 30.8747 341.208 41.6444Z" fill="#FFCAE3" fill-opacity="0.9"/>
<path d="M317.569 -10.1969C306.548 -14.4099 302.042 -9.18297 298.74 -0.5456C295.438 8.09177 296.313 15.7346 307.334 19.9476C318.354 24.1606 335.424 22.3024 338.726 13.6651C341.47 3.95913 328.589 -5.98395 317.569 -10.1969Z" fill="#FFCAE3" fill-opacity="0.9"/>
<g filter="url(#filter51_f_1409_40338)">
<ellipse cx="339.88" cy="8.86367" rx="18.0826" ry="18.7523" fill="#FF6DA2" fill-opacity="0.4"/>
</g>
<g filter="url(#filter52_di_1409_40338)">
<path d="M238.261 210.635C224.595 217.637 218.028 211.508 212.54 200.797C207.052 190.086 207.109 180.074 220.775 173.071C234.442 166.069 256.79 166.071 262.278 176.782C267.195 188.955 251.928 203.633 238.261 210.635Z" fill="#FFCAE3" fill-opacity="0.9" shape-rendering="crispEdges"/>
</g>
<g filter="url(#filter53_di_1409_40338)">
<path d="M1118.59 207.051C1109.09 219.116 1100.56 216.287 1091.11 208.842C1081.65 201.398 1077.52 192.275 1087.02 180.209C1096.52 168.143 1116.83 158.82 1126.29 166.265C1135.83 175.276 1128.08 194.985 1118.59 207.051Z" fill="#FFCAE3" fill-opacity="0.9" shape-rendering="crispEdges"/>
</g>
<g filter="url(#filter54_di_1409_40338)">
<path d="M510.127 361.789C495.066 364.784 490.427 357.092 488.08 345.288C485.732 333.483 488.527 323.869 503.588 320.874C518.649 317.879 540.144 323.997 542.491 335.801C543.889 348.854 525.188 358.794 510.127 361.789Z" fill="#FFCAE3"/>
</g>
<g filter="url(#filter55_di_1409_40338)">
<path d="M1327.3 169.643C1321.51 183.863 1312.53 183.499 1301.39 178.957C1290.24 174.415 1283.76 166.786 1289.55 152.566C1295.35 138.346 1312.29 123.774 1323.44 128.317C1335.1 134.339 1333.1 155.423 1327.3 169.643Z" fill="#FFCAE3" fill-opacity="0.9" shape-rendering="crispEdges"/>
</g>
<g filter="url(#filter56_di_1409_40338)">
<path d="M397.32 174.947C387.242 186.534 378.866 183.291 369.785 175.392C360.704 167.494 357.029 158.18 367.107 146.594C377.184 135.007 397.927 126.689 407.008 134.587C416.103 144.054 407.397 163.361 397.32 174.947Z" fill="#FFCAE3" fill-opacity="0.9" shape-rendering="crispEdges"/>
</g>
<g filter="url(#filter57_f_1409_40338)">
<path d="M980 558C817.5 732.5 1010.5 798.999 805.5 846.999C574.499 810.499 732 726.599 732 593.499C684.5 468 687.499 324.499 804 340.999C913.999 327.499 914.5 474 980 558Z" fill="#472525" fill-opacity="0.12"/>
</g>
<g filter="url(#filter58_f_1409_40338)">
<path d="M1316.99 689.973C1347.94 806.324 1292.6 828.862 1227.48 846.184C1162.37 863.507 1085.44 884.325 1054.49 767.973C1023.54 651.622 1034.99 369.475 1115.39 424.839C1207.49 356.473 1286.04 573.622 1316.99 689.973Z" fill="#5B3F3F" fill-opacity="0.12"/>
</g>
<g filter="url(#filter59_f_1409_40338)">
<path d="M511.249 642.999C488.064 749.583 564.797 855.499 427.288 816.502C285.797 797.999 396.111 705.583 419.296 598.999C442.482 492.416 366.296 358 511.249 430.528C663.797 409.5 534.435 536.416 511.249 642.999Z" fill="#583535" fill-opacity="0.12"/>
</g>
<g filter="url(#filter60_f_1409_40338)">
<path d="M940 407.116C940 431.692 866.259 310.001 797.5 310.001C728.741 310.001 659 422.693 659 398.117C659 373.54 690.5 225 797.5 262.616C885.5 211 940 382.539 940 407.116Z" fill="#FFE976" fill-opacity="0.2"/>
</g>
<g filter="url(#filter61_f_1409_40338)">
<path d="M1265 354.499C1268.14 373.012 1183.95 322.098 1105 335.5C1026.05 348.902 965.143 424.511 962 405.999C958.857 387.486 938 282.499 1099 299.499C1241 227 1261.86 335.986 1265 354.499Z" fill="#FFE976" fill-opacity="0.2"/>
</g>
<g filter="url(#filter62_f_1409_40338)">
<ellipse cx="458.619" cy="304.929" rx="26.5" ry="45.1626" transform="rotate(-9.54017 458.619 304.929)" fill="#FFE976" fill-opacity="0.2"/>
</g>
<g filter="url(#filter63_f_1409_40338)">
<ellipse cx="609.703" cy="339.281" rx="26.5" ry="63.7714" transform="rotate(-9.54017 609.703 339.281)" fill="#FFE976" fill-opacity="0.2"/>
</g>
</g>
<defs>
<filter id="filter0_i_1409_40338" x="0" y="0" width="1600" height="1050" filterUnits="userSpaceOnUse" color-interpolation-filters="sRGB">
<feFlood flood-opacity="0" result="BackgroundImageFix"/>
<feBlend mode="normal" in="SourceGraphic" in2="BackgroundImageFix" result="shape"/>
<feColorMatrix in="SourceAlpha" type="matrix" values="0 0 0 0 0 0 0 0 0 0 0 0 0 0 0 0 0 0 127 0" result="hardAlpha"/>
<feOffset dy="150"/>
<feGaussianBlur stdDeviation="100"/>
<feComposite in2="hardAlpha" operator="arithmetic" k2="-1" k3="1"/>
<feColorMatrix type="matrix" values="0 0 0 0 0.101767 0 0 0 0 0.0837326 0 0 0 0 0.309167 0 0 0 0.1 0"/>
<feBlend mode="normal" in2="shape" result="effect1_innerShadow_1409_40338"/>
</filter>
<filter id="filter1_d_1409_40338" x="-20" y="623" width="1640" height="293" filterUnits="userSpaceOnUse" color-interpolation-filters="sRGB">
<feFlood flood-opacity="0" result="BackgroundImageFix"/>
<feColorMatrix in="SourceAlpha" type="matrix" values="0 0 0 0 0 0 0 0 0 0 0 0 0 0 0 0 0 0 127 0" result="hardAlpha"/>
<feOffset dy="-4"/>
<feGaussianBlur stdDeviation="10"/>
<feComposite in2="hardAlpha" operator="out"/>
<feColorMatrix type="matrix" values="0 0 0 0 0 0 0 0 0 0 0 0 0 0 0 0 0 0 0.15 0"/>
<feBlend mode="normal" in2="BackgroundImageFix" result="effect1_dropShadow_1409_40338"/>
<feBlend mode="normal" in="SourceGraphic" in2="effect1_dropShadow_1409_40338" result="shape"/>
</filter>
<filter id="filter2_d_1409_40338" x="954.365" y="277.797" width="451.357" height="581.525" filterUnits="userSpaceOnUse" color-interpolation-filters="sRGB">
<feFlood flood-opacity="0" result="BackgroundImageFix"/>
<feColorMatrix in="SourceAlpha" type="matrix" values="0 0 0 0 0 0 0 0 0 0 0 0 0 0 0 0 0 0 127 0" result="hardAlpha"/>
<feOffset dy="4"/>
<feGaussianBlur stdDeviation="2"/>
<feComposite in2="hardAlpha" operator="out"/>
<feColorMatrix type="matrix" values="0 0 0 0 0 0 0 0 0 0 0 0 0 0 0 0 0 0 0.25 0"/>
<feBlend mode="normal" in2="BackgroundImageFix" result="effect1_dropShadow_1409_40338"/>
<feBlend mode="normal" in="SourceGraphic" in2="effect1_dropShadow_1409_40338" result="shape"/>
</filter>
<filter id="filter3_d_1409_40338" x="958.284" y="277.797" width="332.586" height="294.494" filterUnits="userSpaceOnUse" color-interpolation-filters="sRGB">
<feFlood flood-opacity="0" result="BackgroundImageFix"/>
<feColorMatrix in="SourceAlpha" type="matrix" values="0 0 0 0 0 0 0 0 0 0 0 0 0 0 0 0 0 0 127 0" result="hardAlpha"/>
<feOffset dy="4"/>
<feGaussianBlur stdDeviation="2"/>
<feComposite in2="hardAlpha" operator="out"/>
<feColorMatrix type="matrix" values="0 0 0 0 0 0 0 0 0 0 0 0 0 0 0 0 0 0 0.25 0"/>
<feBlend mode="normal" in2="BackgroundImageFix" result="effect1_dropShadow_1409_40338"/>
<feBlend mode="normal" in="SourceGraphic" in2="effect1_dropShadow_1409_40338" result="shape"/>
</filter>
<filter id="filter4_d_1409_40338" x="123.001" y="261.83" width="544.974" height="617.689" filterUnits="userSpaceOnUse" color-interpolation-filters="sRGB">
<feFlood flood-opacity="0" result="BackgroundImageFix"/>
<feColorMatrix in="SourceAlpha" type="matrix" values="0 0 0 0 0 0 0 0 0 0 0 0 0 0 0 0 0 0 127 0" result="hardAlpha"/>
<feOffset dy="4"/>
<feGaussianBlur stdDeviation="2"/>
<feComposite in2="hardAlpha" operator="out"/>
<feColorMatrix type="matrix" values="0 0 0 0 0 0 0 0 0 0 0 0 0 0 0 0 0 0 0.25 0"/>
<feBlend mode="normal" in2="BackgroundImageFix" result="effect1_dropShadow_1409_40338"/>
<feBlend mode="normal" in="SourceGraphic" in2="effect1_dropShadow_1409_40338" result="shape"/>
</filter>
<filter id="filter5_d_1409_40338" x="335.03" y="261.83" width="332.944" height="326.271" filterUnits="userSpaceOnUse" color-interpolation-filters="sRGB">
<feFlood flood-opacity="0" result="BackgroundImageFix"/>
<feColorMatrix in="SourceAlpha" type="matrix" values="0 0 0 0 0 0 0 0 0 0 0 0 0 0 0 0 0 0 127 0" result="hardAlpha"/>
<feOffset dy="4"/>
<feGaussianBlur stdDeviation="2"/>
<feComposite in2="hardAlpha" operator="out"/>
<feColorMatrix type="matrix" values="0 0 0 0 0 0 0 0 0 0 0 0 0 0 0 0 0 0 0.25 0"/>
<feBlend mode="normal" in2="BackgroundImageFix" result="effect1_dropShadow_1409_40338"/>
<feBlend mode="normal" in="SourceGraphic" in2="effect1_dropShadow_1409_40338" result="shape"/>
</filter>
<filter id="filter6_d_1409_40338" x="620" y="262" width="421.961" height="593.92" filterUnits="userSpaceOnUse" color-interpolation-filters="sRGB">
<feFlood flood-opacity="0" result="BackgroundImageFix"/>
<feColorMatrix in="SourceAlpha" type="matrix" values="0 0 0 0 0 0 0 0 0 0 0 0 0 0 0 0 0 0 127 0" result="hardAlpha"/>
<feOffset dy="4"/>
<feGaussianBlur stdDeviation="2"/>
<feComposite in2="hardAlpha" operator="out"/>
<feColorMatrix type="matrix" values="0 0 0 0 0 0 0 0 0 0 0 0 0 0 0 0 0 0 0.25 0"/>
<feBlend mode="normal" in2="BackgroundImageFix" result="effect1_dropShadow_1409_40338"/>
<feBlend mode="normal" in="SourceGraphic" in2="effect1_dropShadow_1409_40338" result="shape"/>
</filter>
<filter id="filter7_d_1409_40338" x="620" y="262" width="357.342" height="299.213" filterUnits="userSpaceOnUse" color-interpolation-filters="sRGB">
<feFlood flood-opacity="0" result="BackgroundImageFix"/>
<feColorMatrix in="SourceAlpha" type="matrix" values="0 0 0 0 0 0 0 0 0 0 0 0 0 0 0 0 0 0 127 0" result="hardAlpha"/>
<feOffset dy="4"/>
<feGaussianBlur stdDeviation="2"/>
<feComposite in2="hardAlpha" operator="out"/>
<feColorMatrix type="matrix" values="0 0 0 0 0 0 0 0 0 0 0 0 0 0 0 0 0 0 0.25 0"/>
<feBlend mode="normal" in2="BackgroundImageFix" result="effect1_dropShadow_1409_40338"/>
<feBlend mode="normal" in="SourceGraphic" in2="effect1_dropShadow_1409_40338" result="shape"/>
</filter>
<filter id="filter8_d_1409_40338" x="721.287" y="262" width="45.1206" height="66.6616" filterUnits="userSpaceOnUse" color-interpolation-filters="sRGB">
<feFlood flood-opacity="0" result="BackgroundImageFix"/>
<feColorMatrix in="SourceAlpha" type="matrix" values="0 0 0 0 0 0 0 0 0 0 0 0 0 0 0 0 0 0 127 0" result="hardAlpha"/>
<feOffset dy="2.16086"/>
<feGaussianBlur stdDeviation="1.08043"/>
<feComposite in2="hardAlpha" operator="out"/>
<feColorMatrix type="matrix" values="0 0 0 0 0 0 0 0 0 0 0 0 0 0 0 0 0 0 0.25 0"/>
<feBlend mode="normal" in2="BackgroundImageFix" result="effect1_dropShadow_1409_40338"/>
<feBlend mode="normal" in="SourceGraphic" in2="effect1_dropShadow_1409_40338" result="shape"/>
</filter>
<filter id="filter9_d_1409_40338" x="835.185" y="262" width="45.1206" height="66.6616" filterUnits="userSpaceOnUse" color-interpolation-filters="sRGB">
<feFlood flood-opacity="0" result="BackgroundImageFix"/>
<feColorMatrix in="SourceAlpha" type="matrix" values="0 0 0 0 0 0 0 0 0 0 0 0 0 0 0 0 0 0 127 0" result="hardAlpha"/>
<feOffset dy="2.16086"/>
<feGaussianBlur stdDeviation="1.08043"/>
<feComposite in2="hardAlpha" operator="out"/>
<feColorMatrix type="matrix" values="0 0 0 0 0 0 0 0 0 0 0 0 0 0 0 0 0 0 0.25 0"/>
<feBlend mode="normal" in2="BackgroundImageFix" result="effect1_dropShadow_1409_40338"/>
<feBlend mode="normal" in="SourceGraphic" in2="effect1_dropShadow_1409_40338" result="shape"/>
</filter>
<filter id="filter10_d_1409_40338" x="621.839" y="286.934" width="353.664" height="270.601" filterUnits="userSpaceOnUse" color-interpolation-filters="sRGB">
<feFlood flood-opacity="0" result="BackgroundImageFix"/>
<feColorMatrix in="SourceAlpha" type="matrix" values="0 0 0 0 0 0 0 0 0 0 0 0 0 0 0 0 0 0 127 0" result="hardAlpha"/>
<feOffset dy="2.16086"/>
<feGaussianBlur stdDeviation="1.08043"/>
<feComposite in2="hardAlpha" operator="out"/>
<feColorMatrix type="matrix" values="0 0 0 0 0 0 0 0 0 0 0 0 0 0 0 0 0 0 0.25 0"/>
<feBlend mode="normal" in2="BackgroundImageFix" result="effect1_dropShadow_1409_40338"/>
<feBlend mode="normal" in="SourceGraphic" in2="effect1_dropShadow_1409_40338" result="shape"/>
</filter>
<filter id="filter11_d_1409_40338" x="716.108" y="469.76" width="336.853" height="392.498" filterUnits="userSpaceOnUse" color-interpolation-filters="sRGB">
<feFlood flood-opacity="0" result="BackgroundImageFix"/>
<feColorMatrix in="SourceAlpha" type="matrix" values="0 0 0 0 0 0 0 0 0 0 0 0 0 0 0 0 0 0 127 0" result="hardAlpha"/>
<feOffset dx="5" dy="5"/>
<feGaussianBlur stdDeviation="5"/>
<feComposite in2="hardAlpha" operator="out"/>
<feColorMatrix type="matrix" values="0 0 0 0 0 0 0 0 0 0 0 0 0 0 0 0 0 0 0.25 0"/>
<feBlend mode="normal" in2="BackgroundImageFix" result="effect1_dropShadow_1409_40338"/>
<feBlend mode="normal" in="SourceGraphic" in2="effect1_dropShadow_1409_40338" result="shape"/>
</filter>
<filter id="filter12_f_1409_40338" x="1326.8" y="758.111" width="76.165" height="77.5039" filterUnits="userSpaceOnUse" color-interpolation-filters="sRGB">
<feFlood flood-opacity="0" result="BackgroundImageFix"/>
<feBlend mode="normal" in="SourceGraphic" in2="BackgroundImageFix" result="shape"/>
<feGaussianBlur stdDeviation="10" result="effect1_foregroundBlur_1409_40338"/>
</filter>
<filter id="filter13_f_1409_40338" x="1237.8" y="44.1113" width="76.165" height="77.5039" filterUnits="userSpaceOnUse" color-interpolation-filters="sRGB">
<feFlood flood-opacity="0" result="BackgroundImageFix"/>
<feBlend mode="normal" in="SourceGraphic" in2="BackgroundImageFix" result="shape"/>
<feGaussianBlur stdDeviation="10" result="effect1_foregroundBlur_1409_40338"/>
</filter>
<filter id="filter14_f_1409_40338" x="589.994" y="799.268" width="80.6396" height="81.9141" filterUnits="userSpaceOnUse" color-interpolation-filters="sRGB">
<feFlood flood-opacity="0" result="BackgroundImageFix"/>
<feBlend mode="normal" in="SourceGraphic" in2="BackgroundImageFix" result="shape"/>
<feGaussianBlur stdDeviation="10" result="effect1_foregroundBlur_1409_40338"/>
</filter>
<filter id="filter15_f_1409_40338" x="130.279" y="738.416" width="69.3242" height="70.2441" filterUnits="userSpaceOnUse" color-interpolation-filters="sRGB">
<feFlood flood-opacity="0" result="BackgroundImageFix"/>
<feBlend mode="normal" in="SourceGraphic" in2="BackgroundImageFix" result="shape"/>
<feGaussianBlur stdDeviation="10" result="effect1_foregroundBlur_1409_40338"/>
</filter>
<filter id="filter16_f_1409_40338" x="688.906" y="77.4648" width="76.7217" height="76.9629" filterUnits="userSpaceOnUse" color-interpolation-filters="sRGB">
<feFlood flood-opacity="0" result="BackgroundImageFix"/>
<feBlend mode="normal" in="SourceGraphic" in2="BackgroundImageFix" result="shape"/>
<feGaussianBlur stdDeviation="10" result="effect1_foregroundBlur_1409_40338"/>
</filter>
<filter id="filter17_f_1409_40338" x="624.798" y="52.1113" width="76.165" height="77.5039" filterUnits="userSpaceOnUse" color-interpolation-filters="sRGB">
<feFlood flood-opacity="0" result="BackgroundImageFix"/>
<feBlend mode="normal" in="SourceGraphic" in2="BackgroundImageFix" result="shape"/>
<feGaussianBlur stdDeviation="10" result="effect1_foregroundBlur_1409_40338"/>
</filter>
<filter id="filter18_f_1409_40338" x="538.948" y="81.1465" width="77.1445" height="76.5469" filterUnits="userSpaceOnUse" color-interpolation-filters="sRGB">
<feFlood flood-opacity="0" result="BackgroundImageFix"/>
<feBlend mode="normal" in="SourceGraphic" in2="BackgroundImageFix" result="shape"/>
<feGaussianBlur stdDeviation="10" result="effect1_foregroundBlur_1409_40338"/>
</filter>
<filter id="filter19_f_1409_40338" x="340.798" y="14.1113" width="76.165" height="77.5039" filterUnits="userSpaceOnUse" color-interpolation-filters="sRGB">
<feFlood flood-opacity="0" result="BackgroundImageFix"/>
<feBlend mode="normal" in="SourceGraphic" in2="BackgroundImageFix" result="shape"/>
<feGaussianBlur stdDeviation="10" result="effect1_foregroundBlur_1409_40338"/>
</filter>
<filter id="filter20_f_1409_40338" x="280.798" y="35.1113" width="76.165" height="77.5039" filterUnits="userSpaceOnUse" color-interpolation-filters="sRGB">
<feFlood flood-opacity="0" result="BackgroundImageFix"/>
<feBlend mode="normal" in="SourceGraphic" in2="BackgroundImageFix" result="shape"/>
<feGaussianBlur stdDeviation="10" result="effect1_foregroundBlur_1409_40338"/>
</filter>
<filter id="filter21_f_1409_40338" x="181.376" y="53.5723" width="76.624" height="77.0645" filterUnits="userSpaceOnUse" color-interpolation-filters="sRGB">
<feFlood flood-opacity="0" result="BackgroundImageFix"/>
<feBlend mode="normal" in="SourceGraphic" in2="BackgroundImageFix" result="shape"/>
<feGaussianBlur stdDeviation="10" result="effect1_foregroundBlur_1409_40338"/>
</filter>
<filter id="filter22_f_1409_40338" x="1142.8" y="26.1113" width="76.165" height="77.5039" filterUnits="userSpaceOnUse" color-interpolation-filters="sRGB">
<feFlood flood-opacity="0" result="BackgroundImageFix"/>
<feBlend mode="normal" in="SourceGraphic" in2="BackgroundImageFix" result="shape"/>
<feGaussianBlur stdDeviation="10" result="effect1_foregroundBlur_1409_40338"/>
</filter>
<filter id="filter23_f_1409_40338" x="749.798" y="54.1113" width="76.165" height="77.5039" filterUnits="userSpaceOnUse" color-interpolation-filters="sRGB">
<feFlood flood-opacity="0" result="BackgroundImageFix"/>
<feBlend mode="normal" in="SourceGraphic" in2="BackgroundImageFix" result="shape"/>
<feGaussianBlur stdDeviation="10" result="effect1_foregroundBlur_1409_40338"/>
</filter>
<filter id="filter24_f_1409_40338" x="877.989" y="69.6777" width="76.2275" height="77.459" filterUnits="userSpaceOnUse" color-interpolation-filters="sRGB">
<feFlood flood-opacity="0" result="BackgroundImageFix"/>
<feBlend mode="normal" in="SourceGraphic" in2="BackgroundImageFix" result="shape"/>
<feGaussianBlur stdDeviation="10" result="effect1_foregroundBlur_1409_40338"/>
</filter>
<filter id="filter25_f_1409_40338" x="929.798" y="90.1113" width="76.165" height="77.5039" filterUnits="userSpaceOnUse" color-interpolation-filters="sRGB">
<feFlood flood-opacity="0" result="BackgroundImageFix"/>
<feBlend mode="normal" in="SourceGraphic" in2="BackgroundImageFix" result="shape"/>
<feGaussianBlur stdDeviation="10" result="effect1_foregroundBlur_1409_40338"/>
</filter>
<filter id="filter26_f_1409_40338" x="1373.8" y="-26.8887" width="76.165" height="77.5039" filterUnits="userSpaceOnUse" color-interpolation-filters="sRGB">
<feFlood flood-opacity="0" result="BackgroundImageFix"/>
<feBlend mode="normal" in="SourceGraphic" in2="BackgroundImageFix" result="shape"/>
<feGaussianBlur stdDeviation="10" result="effect1_foregroundBlur_1409_40338"/>
</filter>
<filter id="filter27_f_1409_40338" x="1308.8" y="-39.8887" width="76.165" height="77.5039" filterUnits="userSpaceOnUse" color-interpolation-filters="sRGB">
<feFlood flood-opacity="0" result="BackgroundImageFix"/>
<feBlend mode="normal" in="SourceGraphic" in2="BackgroundImageFix" result="shape"/>
<feGaussianBlur stdDeviation="10" result="effect1_foregroundBlur_1409_40338"/>
</filter>
<filter id="filter28_f_1409_40338" x="1303.8" y="15.1113" width="76.165" height="77.5039" filterUnits="userSpaceOnUse" color-interpolation-filters="sRGB">
<feFlood flood-opacity="0" result="BackgroundImageFix"/>
<feBlend mode="normal" in="SourceGraphic" in2="BackgroundImageFix" result="shape"/>
<feGaussianBlur stdDeviation="10" result="effect1_foregroundBlur_1409_40338"/>
</filter>
<filter id="filter29_f_1409_40338" x="1241.8" y="-14.8887" width="76.165" height="77.5039" filterUnits="userSpaceOnUse" color-interpolation-filters="sRGB">
<feFlood flood-opacity="0" result="BackgroundImageFix"/>
<feBlend mode="normal" in="SourceGraphic" in2="BackgroundImageFix" result="shape"/>
<feGaussianBlur stdDeviation="10" result="effect1_foregroundBlur_1409_40338"/>
</filter>
<filter id="filter30_f_1409_40338" x="1180.2" y="-11.5586" width="76.3643" height="77.332" filterUnits="userSpaceOnUse" color-interpolation-filters="sRGB">
<feFlood flood-opacity="0" result="BackgroundImageFix"/>
<feBlend mode="normal" in="SourceGraphic" in2="BackgroundImageFix" result="shape"/>
<feGaussianBlur stdDeviation="10" result="effect1_foregroundBlur_1409_40338"/>
</filter>
<filter id="filter31_f_1409_40338" x="1042.8" y="-28.8887" width="76.165" height="77.5039" filterUnits="userSpaceOnUse" color-interpolation-filters="sRGB">
<feFlood flood-opacity="0" result="BackgroundImageFix"/>
<feBlend mode="normal" in="SourceGraphic" in2="BackgroundImageFix" result="shape"/>
<feGaussianBlur stdDeviation="10" result="effect1_foregroundBlur_1409_40338"/>
</filter>
<filter id="filter32_f_1409_40338" x="500.798" y="42.1113" width="76.165" height="77.5039" filterUnits="userSpaceOnUse" color-interpolation-filters="sRGB">
<feFlood flood-opacity="0" result="BackgroundImageFix"/>
<feBlend mode="normal" in="SourceGraphic" in2="BackgroundImageFix" result="shape"/>
<feGaussianBlur stdDeviation="10" result="effect1_foregroundBlur_1409_40338"/>
</filter>
<filter id="filter33_f_1409_40338" x="973.97" y="-12.0039" width="76.5771" height="77.1133" filterUnits="userSpaceOnUse" color-interpolation-filters="sRGB">
<feFlood flood-opacity="0" result="BackgroundImageFix"/>
<feBlend mode="normal" in="SourceGraphic" in2="BackgroundImageFix" result="shape"/>
<feGaussianBlur stdDeviation="10" result="effect1_foregroundBlur_1409_40338"/>
</filter>
<filter id="filter34_f_1409_40338" x="874.798" y="-39.8887" width="76.165" height="77.5039" filterUnits="userSpaceOnUse" color-interpolation-filters="sRGB">
<feFlood flood-opacity="0" result="BackgroundImageFix"/>
<feBlend mode="normal" in="SourceGraphic" in2="BackgroundImageFix" result="shape"/>
<feGaussianBlur stdDeviation="10" result="effect1_foregroundBlur_1409_40338"/>
</filter>
<filter id="filter35_f_1409_40338" x="830.798" y="4.11133" width="76.165" height="77.5039" filterUnits="userSpaceOnUse" color-interpolation-filters="sRGB">
<feFlood flood-opacity="0" result="BackgroundImageFix"/>
<feBlend mode="normal" in="SourceGraphic" in2="BackgroundImageFix" result="shape"/>
<feGaussianBlur stdDeviation="10" result="effect1_foregroundBlur_1409_40338"/>
</filter>
<filter id="filter36_f_1409_40338" x="687.798" y="15.1113" width="76.165" height="77.5039" filterUnits="userSpaceOnUse" color-interpolation-filters="sRGB">
<feFlood flood-opacity="0" result="BackgroundImageFix"/>
<feBlend mode="normal" in="SourceGraphic" in2="BackgroundImageFix" result="shape"/>
<feGaussianBlur stdDeviation="10" result="effect1_foregroundBlur_1409_40338"/>
</filter>
<filter id="filter37_f_1409_40338" x="571.09" y="22.0566" width="76.5391" height="77.1504" filterUnits="userSpaceOnUse" color-interpolation-filters="sRGB">
<feFlood flood-opacity="0" result="BackgroundImageFix"/>
<feBlend mode="normal" in="SourceGraphic" in2="BackgroundImageFix" result="shape"/>
<feGaussianBlur stdDeviation="10" result="effect1_foregroundBlur_1409_40338"/>
</filter>
<filter id="filter38_f_1409_40338" x="800.798" y="-39.8887" width="76.165" height="77.5039" filterUnits="userSpaceOnUse" color-interpolation-filters="sRGB">
<feFlood flood-opacity="0" result="BackgroundImageFix"/>
<feBlend mode="normal" in="SourceGraphic" in2="BackgroundImageFix" result="shape"/>
<feGaussianBlur stdDeviation="10" result="effect1_foregroundBlur_1409_40338"/>
</filter>
<filter id="filter39_f_1409_40338" x="648.798" y="-62.8887" width="76.165" height="77.5039" filterUnits="userSpaceOnUse" color-interpolation-filters="sRGB">
<feFlood flood-opacity="0" result="BackgroundImageFix"/>
<feBlend mode="normal" in="SourceGraphic" in2="BackgroundImageFix" result="shape"/>
<feGaussianBlur stdDeviation="10" result="effect1_foregroundBlur_1409_40338"/>
</filter>
<filter id="filter40_f_1409_40338" x="746.817" y="-12.5137" width="76.3096" height="77.3848" filterUnits="userSpaceOnUse" color-interpolation-filters="sRGB">
<feFlood flood-opacity="0" result="BackgroundImageFix"/>
<feBlend mode="normal" in="SourceGraphic" in2="BackgroundImageFix" result="shape"/>
<feGaussianBlur stdDeviation="10" result="effect1_foregroundBlur_1409_40338"/>
</filter>
<filter id="filter41_f_1409_40338" x="688.798" y="-39.8887" width="76.165" height="77.5039" filterUnits="userSpaceOnUse" color-interpolation-filters="sRGB">
<feFlood flood-opacity="0" result="BackgroundImageFix"/>
<feBlend mode="normal" in="SourceGraphic" in2="BackgroundImageFix" result="shape"/>
<feGaussianBlur stdDeviation="10" result="effect1_foregroundBlur_1409_40338"/>
</filter>
<filter id="filter42_f_1409_40338" x="638.265" y="-3.64648" width="76.3262" height="77.3672" filterUnits="userSpaceOnUse" color-interpolation-filters="sRGB">
<feFlood flood-opacity="0" result="BackgroundImageFix"/>
<feBlend mode="normal" in="SourceGraphic" in2="BackgroundImageFix" result="shape"/>
<feGaussianBlur stdDeviation="10" result="effect1_foregroundBlur_1409_40338"/>
</filter>
<filter id="filter43_f_1409_40338" x="578.798" y="-23.8887" width="76.165" height="77.5039" filterUnits="userSpaceOnUse" color-interpolation-filters="sRGB">
<feFlood flood-opacity="0" result="BackgroundImageFix"/>
<feBlend mode="normal" in="SourceGraphic" in2="BackgroundImageFix" result="shape"/>
<feGaussianBlur stdDeviation="10" result="effect1_foregroundBlur_1409_40338"/>
</filter>
<filter id="filter44_f_1409_40338" x="519.29" y="-15.3164" width="76.5322" height="77.1602" filterUnits="userSpaceOnUse" color-interpolation-filters="sRGB">
<feFlood flood-opacity="0" result="BackgroundImageFix"/>
<feBlend mode="normal" in="SourceGraphic" in2="BackgroundImageFix" result="shape"/>
<feGaussianBlur stdDeviation="10" result="effect1_foregroundBlur_1409_40338"/>
</filter>
<filter id="filter45_f_1409_40338" x="234.798" y="4.11133" width="76.165" height="77.5039" filterUnits="userSpaceOnUse" color-interpolation-filters="sRGB">
<feFlood flood-opacity="0" result="BackgroundImageFix"/>
<feBlend mode="normal" in="SourceGraphic" in2="BackgroundImageFix" result="shape"/>
<feGaussianBlur stdDeviation="10" result="effect1_foregroundBlur_1409_40338"/>
</filter>
<filter id="filter46_f_1409_40338" x="224.798" y="-54.8887" width="76.165" height="77.5039" filterUnits="userSpaceOnUse" color-interpolation-filters="sRGB">
<feFlood flood-opacity="0" result="BackgroundImageFix"/>
<feBlend mode="normal" in="SourceGraphic" in2="BackgroundImageFix" result="shape"/>
<feGaussianBlur stdDeviation="10" result="effect1_foregroundBlur_1409_40338"/>
</filter>
<filter id="filter47_f_1409_40338" x="164.654" y="-8.39453" width="77.0859" height="76.6016" filterUnits="userSpaceOnUse" color-interpolation-filters="sRGB">
<feFlood flood-opacity="0" result="BackgroundImageFix"/>
<feBlend mode="normal" in="SourceGraphic" in2="BackgroundImageFix" result="shape"/>
<feGaussianBlur stdDeviation="10" result="effect1_foregroundBlur_1409_40338"/>
</filter>
<filter id="filter48_f_1409_40338" x="483.798" y="-16.8887" width="76.165" height="77.5039" filterUnits="userSpaceOnUse" color-interpolation-filters="sRGB">
<feFlood flood-opacity="0" result="BackgroundImageFix"/>
<feBlend mode="normal" in="SourceGraphic" in2="BackgroundImageFix" result="shape"/>
<feGaussianBlur stdDeviation="10" result="effect1_foregroundBlur_1409_40338"/>
</filter>
<filter id="filter49_f_1409_40338" x="376.798" y="-25.8887" width="76.165" height="77.5039" filterUnits="userSpaceOnUse" color-interpolation-filters="sRGB">
<feFlood flood-opacity="0" result="BackgroundImageFix"/>
<feBlend mode="normal" in="SourceGraphic" in2="BackgroundImageFix" result="shape"/>
<feGaussianBlur stdDeviation="10" result="effect1_foregroundBlur_1409_40338"/>
</filter>
<filter id="filter50_f_1409_40338" x="600.795" y="92.1113" width="76.165" height="77.5039" filterUnits="userSpaceOnUse" color-interpolation-filters="sRGB">
<feFlood flood-opacity="0" result="BackgroundImageFix"/>
<feBlend mode="normal" in="SourceGraphic" in2="BackgroundImageFix" result="shape"/>
<feGaussianBlur stdDeviation="10" result="effect1_foregroundBlur_1409_40338"/>
</filter>
<filter id="filter51_f_1409_40338" x="301.798" y="-29.8887" width="76.165" height="77.5039" filterUnits="userSpaceOnUse" color-interpolation-filters="sRGB">
<feFlood flood-opacity="0" result="BackgroundImageFix"/>
<feBlend mode="normal" in="SourceGraphic" in2="BackgroundImageFix" result="shape"/>
<feGaussianBlur stdDeviation="10" result="effect1_foregroundBlur_1409_40338"/>
</filter>
<filter id="filter52_di_1409_40338" x="205.127" y="158.211" width="62.0938" height="63.4121" filterUnits="userSpaceOnUse" color-interpolation-filters="sRGB">
<feFlood flood-opacity="0" result="BackgroundImageFix"/>
<feColorMatrix in="SourceAlpha" type="matrix" values="0 0 0 0 0 0 0 0 0 0 0 0 0 0 0 0 0 0 127 0" result="hardAlpha"/>
<feOffset dy="4"/>
<feGaussianBlur stdDeviation="2"/>
<feComposite in2="hardAlpha" operator="out"/>
<feColorMatrix type="matrix" values="0 0 0 0 0 0 0 0 0 0 0 0 0 0 0 0 0 0 0.25 0"/>
<feBlend mode="normal" in2="BackgroundImageFix" result="effect1_dropShadow_1409_40338"/>
<feBlend mode="normal" in="SourceGraphic" in2="effect1_dropShadow_1409_40338" result="shape"/>
<feColorMatrix in="SourceAlpha" type="matrix" values="0 0 0 0 0 0 0 0 0 0 0 0 0 0 0 0 0 0 127 0" result="hardAlpha"/>
<feOffset dy="-12"/>
<feGaussianBlur stdDeviation="5"/>
<feComposite in2="hardAlpha" operator="arithmetic" k2="-1" k3="1"/>
<feColorMatrix type="matrix" values="0 0 0 0 1 0 0 0 0 0.291667 0 0 0 0 0.419167 0 0 0 0.2 0"/>
<feBlend mode="normal" in2="shape" result="effect2_innerShadow_1409_40338"/>
</filter>
<filter id="filter53_di_1409_40338" x="1077.63" y="153.605" width="57.0166" height="69.6621" filterUnits="userSpaceOnUse" color-interpolation-filters="sRGB">
<feFlood flood-opacity="0" result="BackgroundImageFix"/>
<feColorMatrix in="SourceAlpha" type="matrix" values="0 0 0 0 0 0 0 0 0 0 0 0 0 0 0 0 0 0 127 0" result="hardAlpha"/>
<feOffset dy="4"/>
<feGaussianBlur stdDeviation="2"/>
<feComposite in2="hardAlpha" operator="out"/>
<feColorMatrix type="matrix" values="0 0 0 0 0 0 0 0 0 0 0 0 0 0 0 0 0 0 0.25 0"/>
<feBlend mode="normal" in2="BackgroundImageFix" result="effect1_dropShadow_1409_40338"/>
<feBlend mode="normal" in="SourceGraphic" in2="effect1_dropShadow_1409_40338" result="shape"/>
<feColorMatrix in="SourceAlpha" type="matrix" values="0 0 0 0 0 0 0 0 0 0 0 0 0 0 0 0 0 0 127 0" result="hardAlpha"/>
<feOffset dy="-12"/>
<feGaussianBlur stdDeviation="5"/>
<feComposite in2="hardAlpha" operator="arithmetic" k2="-1" k3="1"/>
<feColorMatrix type="matrix" values="0 0 0 0 1 0 0 0 0 0.291667 0 0 0 0 0.419167 0 0 0 0.2 0"/>
<feBlend mode="normal" in2="shape" result="effect2_innerShadow_1409_40338"/>
</filter>
<filter id="filter54_di_1409_40338" x="483.346" y="310.119" width="63.2197" height="60.3184" filterUnits="userSpaceOnUse" color-interpolation-filters="sRGB">
<feFlood flood-opacity="0" result="BackgroundImageFix"/>
<feColorMatrix in="SourceAlpha" type="matrix" values="0 0 0 0 0 0 0 0 0 0 0 0 0 0 0 0 0 0 127 0" result="hardAlpha"/>
<feOffset dy="4"/>
<feGaussianBlur stdDeviation="2"/>
<feComposite in2="hardAlpha" operator="out"/>
<feColorMatrix type="matrix" values="0 0 0 0 0 0 0 0 0 0 0 0 0 0 0 0 0 0 0.25 0"/>
<feBlend mode="normal" in2="BackgroundImageFix" result="effect1_dropShadow_1409_40338"/>
<feBlend mode="normal" in="SourceGraphic" in2="effect1_dropShadow_1409_40338" result="shape"/>
<feColorMatrix in="SourceAlpha" type="matrix" values="0 0 0 0 0 0 0 0 0 0 0 0 0 0 0 0 0 0 127 0" result="hardAlpha"/>
<feOffset dy="-12"/>
<feGaussianBlur stdDeviation="5"/>
<feComposite in2="hardAlpha" operator="arithmetic" k2="-1" k3="1"/>
<feColorMatrix type="matrix" values="0 0 0 0 1 0 0 0 0 0.291667 0 0 0 0 0.419167 0 0 0 0.2 0"/>
<feBlend mode="normal" in2="shape" result="effect2_innerShadow_1409_40338"/>
</filter>
<filter id="filter55_di_1409_40338" x="1283.39" y="117.471" width="52.5488" height="72.2852" filterUnits="userSpaceOnUse" color-interpolation-filters="sRGB">
<feFlood flood-opacity="0" result="BackgroundImageFix"/>
<feColorMatrix in="SourceAlpha" type="matrix" values="0 0 0 0 0 0 0 0 0 0 0 0 0 0 0 0 0 0 127 0" result="hardAlpha"/>
<feOffset dy="4"/>
<feGaussianBlur stdDeviation="2"/>
<feComposite in2="hardAlpha" operator="out"/>
<feColorMatrix type="matrix" values="0 0 0 0 0 0 0 0 0 0 0 0 0 0 0 0 0 0 0.25 0"/>
<feBlend mode="normal" in2="BackgroundImageFix" result="effect1_dropShadow_1409_40338"/>
<feBlend mode="normal" in="SourceGraphic" in2="effect1_dropShadow_1409_40338" result="shape"/>
<feColorMatrix in="SourceAlpha" type="matrix" values="0 0 0 0 0 0 0 0 0 0 0 0 0 0 0 0 0 0 127 0" result="hardAlpha"/>
<feOffset dy="-12"/>
<feGaussianBlur stdDeviation="5"/>
<feComposite in2="hardAlpha" operator="arithmetic" k2="-1" k3="1"/>
<feColorMatrix type="matrix" values="0 0 0 0 1 0 0 0 0 0.291667 0 0 0 0 0.419167 0 0 0 0.2 0"/>
<feBlend mode="normal" in2="shape" result="effect2_innerShadow_1409_40338"/>
</filter>
<filter id="filter56_di_1409_40338" x="357.068" y="121.48" width="57.7627" height="69.0332" filterUnits="userSpaceOnUse" color-interpolation-filters="sRGB">
<feFlood flood-opacity="0" result="BackgroundImageFix"/>
<feColorMatrix in="SourceAlpha" type="matrix" values="0 0 0 0 0 0 0 0 0 0 0 0 0 0 0 0 0 0 127 0" result="hardAlpha"/>
<feOffset dy="4"/>
<feGaussianBlur stdDeviation="2"/>
<feComposite in2="hardAlpha" operator="out"/>
<feColorMatrix type="matrix" values="0 0 0 0 0 0 0 0 0 0 0 0 0 0 0 0 0 0 0.25 0"/>
<feBlend mode="normal" in2="BackgroundImageFix" result="effect1_dropShadow_1409_40338"/>
<feBlend mode="normal" in="SourceGraphic" in2="effect1_dropShadow_1409_40338" result="shape"/>
<feColorMatrix in="SourceAlpha" type="matrix" values="0 0 0 0 0 0 0 0 0 0 0 0 0 0 0 0 0 0 127 0" result="hardAlpha"/>
<feOffset dy="-12"/>
<feGaussianBlur stdDeviation="5"/>
<feComposite in2="hardAlpha" operator="arithmetic" k2="-1" k3="1"/>
<feColorMatrix type="matrix" values="0 0 0 0 1 0 0 0 0 0.291667 0 0 0 0 0.419167 0 0 0 0.2 0"/>
<feBlend mode="normal" in2="shape" result="effect2_innerShadow_1409_40338"/>
</filter>
<filter id="filter57_f_1409_40338" x="559.577" y="219.697" width="540.423" height="747.301" filterUnits="userSpaceOnUse" color-interpolation-filters="sRGB">
<feFlood flood-opacity="0" result="BackgroundImageFix"/>
<feBlend mode="normal" in="SourceGraphic" in2="BackgroundImageFix" result="shape"/>
<feGaussianBlur stdDeviation="60" result="effect1_foregroundBlur_1409_40338"/>
</filter>
<filter id="filter58_f_1409_40338" x="918.655" y="291.803" width="527.167" height="687.926" filterUnits="userSpaceOnUse" color-interpolation-filters="sRGB">
<feFlood flood-opacity="0" result="BackgroundImageFix"/>
<feBlend mode="normal" in="SourceGraphic" in2="BackgroundImageFix" result="shape"/>
<feGaussianBlur stdDeviation="60" result="effect1_foregroundBlur_1409_40338"/>
</filter>
<filter id="filter59_f_1409_40338" x="236.467" y="289.963" width="468.034" height="654.803" filterUnits="userSpaceOnUse" color-interpolation-filters="sRGB">
<feFlood flood-opacity="0" result="BackgroundImageFix"/>
<feBlend mode="normal" in="SourceGraphic" in2="BackgroundImageFix" result="shape"/>
<feGaussianBlur stdDeviation="60" result="effect1_foregroundBlur_1409_40338"/>
</filter>
<filter id="filter60_f_1409_40338" x="579" y="172.986" width="441" height="317.406" filterUnits="userSpaceOnUse" color-interpolation-filters="sRGB">
<feFlood flood-opacity="0" result="BackgroundImageFix"/>
<feBlend mode="normal" in="SourceGraphic" in2="BackgroundImageFix" result="shape"/>
<feGaussianBlur stdDeviation="40" result="effect1_foregroundBlur_1409_40338"/>
</filter>
<filter id="filter61_f_1409_40338" x="879.435" y="194.893" width="465.65" height="294.008" filterUnits="userSpaceOnUse" color-interpolation-filters="sRGB">
<feFlood flood-opacity="0" result="BackgroundImageFix"/>
<feBlend mode="normal" in="SourceGraphic" in2="BackgroundImageFix" result="shape"/>
<feGaussianBlur stdDeviation="40" result="effect1_foregroundBlur_1409_40338"/>
</filter>
<filter id="filter62_f_1409_40338" x="351.428" y="180.172" width="214.382" height="249.514" filterUnits="userSpaceOnUse" color-interpolation-filters="sRGB">
<feFlood flood-opacity="0" result="BackgroundImageFix"/>
<feBlend mode="normal" in="SourceGraphic" in2="BackgroundImageFix" result="shape"/>
<feGaussianBlur stdDeviation="40" result="effect1_foregroundBlur_1409_40338"/>
</filter>
<filter id="filter63_f_1409_40338" x="501.506" y="196.234" width="216.395" height="286.092" filterUnits="userSpaceOnUse" color-interpolation-filters="sRGB">
<feFlood flood-opacity="0" result="BackgroundImageFix"/>
<feBlend mode="normal" in="SourceGraphic" in2="BackgroundImageFix" result="shape"/>
<feGaussianBlur stdDeviation="40" result="effect1_foregroundBlur_1409_40338"/>
</filter>
</defs>
</svg>
