<svg width="40" height="40" viewBox="0 0 40 40" fill="none" xmlns="http://www.w3.org/2000/svg">
<circle cx="20" cy="20" r="20" fill="white"/>
<path fill-rule="evenodd" clip-rule="evenodd" d="M30 9.09968V9.09973V14.5997V25.0997H29.9725C29.9907 25.2639 30 25.4307 30 25.5997C30 28.085 27.9853 30.0997 25.5 30.0997C23.0147 30.0997 21 28.085 21 25.5997C21 23.1145 23.0147 21.0997 25.5 21.0997C26.4251 21.0997 27.285 21.3789 28 21.8575V14.8938L21.5 15.8497V9.02278L27.5 8.09968C29.5 7.69968 30 8.59968 30 9.09968Z" fill="#1F5721"/>
<path fill-rule="evenodd" clip-rule="evenodd" d="M13 11.5997C13 10.3997 14 10.0997 14.5 10.0997L21.5 9.02277V15.8497L15 16.8055V27.0997H14.9725C14.9907 27.2639 15 27.4307 15 27.5997C15 30.085 12.9853 32.0997 10.5 32.0997C8.01472 32.0997 6 30.085 6 27.5997C6 25.1145 8.01472 23.0997 10.5 23.0997C11.4251 23.0997 12.285 23.3789 13 23.8575V17.0997V12.0997V11.5997Z" fill="#338C37"/>
</svg>
