<svg width="195" height="163" viewBox="0 0 195 163" fill="none" xmlns="http://www.w3.org/2000/svg">
<g filter="url(#filter0_d_417_35805)">
<ellipse cx="67.4859" cy="16.9115" rx="11.068" ry="16.9115" fill="#D29863"/>
</g>
<g filter="url(#filter1_d_417_35805)">
<ellipse cx="129.282" cy="16.9115" rx="11.068" ry="16.9115" fill="#D29863"/>
</g>
<g filter="url(#filter2_d_417_35805)">
<ellipse cx="128.82" cy="17.3952" rx="6.91747" ry="10.6301" fill="#AE7E53"/>
</g>
<g filter="url(#filter3_d_417_35805)">
<ellipse cx="67.9463" cy="17.3952" rx="6.91747" ry="10.6301" fill="#AE7E53"/>
</g>
<g filter="url(#filter4_d_417_35805)">
<path d="M192 99.5344C192 106.299 192.146 112.654 186.47 122.727C184.292 126.593 180.111 131.682 174.354 137.223C155.913 154.973 128.108 158 97.003 158C65.8983 158 49.9609 152.685 22.7522 137.223C14.9124 132.768 10.4491 127.076 7.99889 122.727C2.32294 112.654 2.46124 105.816 2.46124 99.5344C2.46124 85.981 24.5787 70.6334 31.9794 59.43C38.8969 31.8884 58.4208 13.5273 97.003 13.5273C135.585 13.5273 156.033 32.8548 163.411 59.43C170.812 70.6334 192 85.981 192 99.5344Z" fill="#D29863"/>
</g>
<ellipse cx="96.5385" cy="92.7717" rx="7.8398" ry="3.86548" fill="#553E2A"/>
<ellipse cx="78.2941" cy="77.6802" rx="3.11733" ry="8.57373" fill="black"/>
<ellipse cx="114.925" cy="77.6802" rx="3.11733" ry="8.57373" fill="black"/>
<path d="M89.4844 105.733C89.8349 106.178 90.6529 106.953 92.5811 106.953C93.6912 106.953 94.7694 106.368 95.2103 106.152C95.4734 106.024 95.6995 105.955 95.9407 105.968M102.397 105.771C101.871 106.457 101.345 106.991 99.3003 106.953C98.1906 106.932 97.029 106.393 96.5542 106.152C96.3243 106.036 96.128 105.977 95.9407 105.968M95.9407 105.968V102.883" stroke="#553E2A" stroke-width="1.62065" stroke-linecap="round"/>
<g filter="url(#filter5_f_417_35805)">
<path d="M51.3443 105.816C51.3443 113.021 45.7696 118.862 38.8928 118.862C32.0161 118.862 26.4414 113.021 26.4414 105.816C26.4414 98.6109 32.0161 92.77 38.8928 92.77C45.7696 92.77 51.3443 98.6109 51.3443 105.816Z" fill="#FF5555"/>
</g>
<g filter="url(#filter6_f_417_35805)">
<path d="M168.942 105.816C168.942 113.021 163.367 118.862 156.491 118.862C149.614 118.862 144.039 113.021 144.039 105.816C144.039 98.6109 149.614 92.77 156.491 92.77C163.367 92.77 168.942 98.6109 168.942 105.816Z" fill="#FF5555"/>
</g>
<mask id="mask0_417_35805" style="mask-type:alpha" maskUnits="userSpaceOnUse" x="2" y="13" width="190" height="145">
<path d="M191.539 99.5344C191.539 106.299 191.685 112.654 186.009 122.727C183.831 126.593 179.65 131.682 173.893 137.223C155.452 154.973 127.647 158 96.542 158C65.4374 158 49.5 152.685 22.2912 137.223C14.4514 132.768 9.98818 127.076 7.53795 122.727C1.862 112.654 2.0003 105.816 2.0003 99.5344C2.0003 85.981 24.1177 70.6334 31.5185 59.43C38.436 31.8884 57.9599 13.5273 96.542 13.5273C135.124 13.5273 155.572 32.8548 162.95 59.43C170.351 70.6334 191.539 85.981 191.539 99.5344Z" fill="#D29863"/>
</mask>
<g mask="url(#mask0_417_35805)">
<path d="M80.8594 15.4609V29.9565" stroke="#866140" stroke-width="2.70108" stroke-linecap="round"/>
<path d="M96.5386 15.4609V29.9565" stroke="#866140" stroke-width="2.70108" stroke-linecap="round"/>
<path d="M111.296 15.4609V29.9565" stroke="#866140" stroke-width="2.70108" stroke-linecap="round"/>
</g>
<defs>
<filter id="filter0_d_417_35805" x="54.2571" y="0" width="26.4575" height="38.1445" filterUnits="userSpaceOnUse" color-interpolation-filters="sRGB">
<feFlood flood-opacity="0" result="BackgroundImageFix"/>
<feColorMatrix in="SourceAlpha" type="matrix" values="0 0 0 0 0 0 0 0 0 0 0 0 0 0 0 0 0 0 127 0" result="hardAlpha"/>
<feOffset dy="2.16086"/>
<feGaussianBlur stdDeviation="1.08043"/>
<feComposite in2="hardAlpha" operator="out"/>
<feColorMatrix type="matrix" values="0 0 0 0 0 0 0 0 0 0 0 0 0 0 0 0 0 0 0.25 0"/>
<feBlend mode="normal" in2="BackgroundImageFix" result="effect1_dropShadow_417_35805"/>
<feBlend mode="normal" in="SourceGraphic" in2="effect1_dropShadow_417_35805" result="shape"/>
</filter>
<filter id="filter1_d_417_35805" x="116.053" y="0" width="26.4575" height="38.1445" filterUnits="userSpaceOnUse" color-interpolation-filters="sRGB">
<feFlood flood-opacity="0" result="BackgroundImageFix"/>
<feColorMatrix in="SourceAlpha" type="matrix" values="0 0 0 0 0 0 0 0 0 0 0 0 0 0 0 0 0 0 127 0" result="hardAlpha"/>
<feOffset dy="2.16086"/>
<feGaussianBlur stdDeviation="1.08043"/>
<feComposite in2="hardAlpha" operator="out"/>
<feColorMatrix type="matrix" values="0 0 0 0 0 0 0 0 0 0 0 0 0 0 0 0 0 0 0.25 0"/>
<feBlend mode="normal" in2="BackgroundImageFix" result="effect1_dropShadow_417_35805"/>
<feBlend mode="normal" in="SourceGraphic" in2="effect1_dropShadow_417_35805" result="shape"/>
</filter>
<filter id="filter2_d_417_35805" x="119.742" y="6.76514" width="18.1567" height="25.582" filterUnits="userSpaceOnUse" color-interpolation-filters="sRGB">
<feFlood flood-opacity="0" result="BackgroundImageFix"/>
<feColorMatrix in="SourceAlpha" type="matrix" values="0 0 0 0 0 0 0 0 0 0 0 0 0 0 0 0 0 0 127 0" result="hardAlpha"/>
<feOffset dy="2.16086"/>
<feGaussianBlur stdDeviation="1.08043"/>
<feComposite in2="hardAlpha" operator="out"/>
<feColorMatrix type="matrix" values="0 0 0 0 0 0 0 0 0 0 0 0 0 0 0 0 0 0 0.25 0"/>
<feBlend mode="normal" in2="BackgroundImageFix" result="effect1_dropShadow_417_35805"/>
<feBlend mode="normal" in="SourceGraphic" in2="effect1_dropShadow_417_35805" result="shape"/>
</filter>
<filter id="filter3_d_417_35805" x="58.8679" y="6.76514" width="18.1567" height="25.582" filterUnits="userSpaceOnUse" color-interpolation-filters="sRGB">
<feFlood flood-opacity="0" result="BackgroundImageFix"/>
<feColorMatrix in="SourceAlpha" type="matrix" values="0 0 0 0 0 0 0 0 0 0 0 0 0 0 0 0 0 0 127 0" result="hardAlpha"/>
<feOffset dy="2.16086"/>
<feGaussianBlur stdDeviation="1.08043"/>
<feComposite in2="hardAlpha" operator="out"/>
<feColorMatrix type="matrix" values="0 0 0 0 0 0 0 0 0 0 0 0 0 0 0 0 0 0 0.25 0"/>
<feBlend mode="normal" in2="BackgroundImageFix" result="effect1_dropShadow_417_35805"/>
<feBlend mode="normal" in="SourceGraphic" in2="effect1_dropShadow_417_35805" result="shape"/>
</filter>
<filter id="filter4_d_417_35805" x="0.300074" y="13.5273" width="193.861" height="148.794" filterUnits="userSpaceOnUse" color-interpolation-filters="sRGB">
<feFlood flood-opacity="0" result="BackgroundImageFix"/>
<feColorMatrix in="SourceAlpha" type="matrix" values="0 0 0 0 0 0 0 0 0 0 0 0 0 0 0 0 0 0 127 0" result="hardAlpha"/>
<feOffset dy="2.16086"/>
<feGaussianBlur stdDeviation="1.08043"/>
<feComposite in2="hardAlpha" operator="out"/>
<feColorMatrix type="matrix" values="0 0 0 0 0 0 0 0 0 0 0 0 0 0 0 0 0 0 0.25 0"/>
<feBlend mode="normal" in2="BackgroundImageFix" result="effect1_dropShadow_417_35805"/>
<feBlend mode="normal" in="SourceGraphic" in2="effect1_dropShadow_417_35805" result="shape"/>
</filter>
<filter id="filter5_f_417_35805" x="4.83277" y="71.1614" width="68.1201" height="69.3091" filterUnits="userSpaceOnUse" color-interpolation-filters="sRGB">
<feFlood flood-opacity="0" result="BackgroundImageFix"/>
<feBlend mode="normal" in="SourceGraphic" in2="BackgroundImageFix" result="shape"/>
<feGaussianBlur stdDeviation="10.8043" result="effect1_foregroundBlur_417_35805"/>
</filter>
<filter id="filter6_f_417_35805" x="122.43" y="71.1614" width="68.1201" height="69.3091" filterUnits="userSpaceOnUse" color-interpolation-filters="sRGB">
<feFlood flood-opacity="0" result="BackgroundImageFix"/>
<feBlend mode="normal" in="SourceGraphic" in2="BackgroundImageFix" result="shape"/>
<feGaussianBlur stdDeviation="10.8043" result="effect1_foregroundBlur_417_35805"/>
</filter>
</defs>
</svg>
