<svg width="40" height="34" viewBox="0 0 40 34" fill="none" xmlns="http://www.w3.org/2000/svg">
<g filter="url(#filter0_d_1390_40634)">
<ellipse cx="13.7871" cy="3.92848" rx="2.3301" ry="3.56031" fill="#D29863"/>
</g>
<g filter="url(#filter1_d_1390_40634)">
<ellipse cx="26.7969" cy="3.92848" rx="2.3301" ry="3.56031" fill="#D29863"/>
</g>
<g filter="url(#filter2_d_1390_40634)">
<ellipse cx="26.6985" cy="4.03088" rx="1.45631" ry="2.23791" fill="#AE7E53"/>
</g>
<g filter="url(#filter3_d_1390_40634)">
<ellipse cx="13.884" cy="4.03088" rx="1.45631" ry="2.23791" fill="#AE7E53"/>
</g>
<path d="M40.0005 21.3226C40.0005 22.7467 40.0313 24.0845 38.8363 26.2053C38.3778 27.0191 37.4977 28.0904 36.2857 29.257C32.4034 32.9938 26.5496 33.6311 20.0012 33.6311C13.4529 33.6311 10.0976 32.5121 4.3695 29.257C2.71901 28.3191 1.77938 27.1208 1.26354 26.2053C0.0686034 24.0845 0.0977191 22.645 0.0977191 21.3226C0.0977191 18.4692 4.75402 15.2381 6.31208 12.8795C7.76839 7.0813 11.8787 3.21582 20.0012 3.21582C28.1238 3.21582 32.4286 7.28475 33.982 12.8795C35.54 15.2381 40.0005 18.4692 40.0005 21.3226Z" fill="#D29863"/>
<ellipse cx="19.9024" cy="19.8987" rx="1.65048" ry="0.813786" fill="#553E2A"/>
<ellipse cx="16.0625" cy="16.722" rx="0.65628" ry="1.805" fill="black"/>
<ellipse cx="23.7735" cy="16.722" rx="0.65628" ry="1.805" fill="black"/>
<path d="M18.418 22.6273C18.4918 22.7209 18.664 22.884 19.0699 22.884C19.3036 22.884 19.5306 22.761 19.6234 22.7156C19.6788 22.6885 19.7264 22.6741 19.7772 22.6767M21.1364 22.6353C21.0257 22.7797 20.915 22.8921 20.4845 22.884C20.2509 22.8797 20.0063 22.7663 19.9063 22.7156C19.858 22.691 19.8166 22.6787 19.7772 22.6767M19.7772 22.6767V22.0273" stroke="#553E2A" stroke-width="0.341189" stroke-linecap="round"/>
<g filter="url(#filter4_f_1390_40634)">
<path d="M10.3892 22.645C10.3892 24.1618 9.21558 25.3915 7.76784 25.3915C6.32011 25.3915 5.14648 24.1618 5.14648 22.645C5.14648 21.1281 6.32011 19.8984 7.76784 19.8984C9.21558 19.8984 10.3892 21.1281 10.3892 22.645Z" fill="#FF5555"/>
</g>
<g filter="url(#filter5_f_1390_40634)">
<path d="M35.1451 22.645C35.1451 24.1618 33.9714 25.3915 32.5237 25.3915C31.076 25.3915 29.9023 24.1618 29.9023 22.645C29.9023 21.1281 31.076 19.8984 32.5237 19.8984C33.9714 19.8984 35.1451 21.1281 35.1451 22.645Z" fill="#FF5555"/>
</g>
<mask id="mask0_1390_40634" style="mask-type:alpha" maskUnits="userSpaceOnUse" x="0" y="3" width="40" height="31">
<path d="M39.9029 21.3235C39.9029 22.7477 39.9336 24.0855 38.7387 26.2063C38.2801 27.02 37.4 28.0914 36.188 29.258C32.3057 32.9948 26.4519 33.6321 19.9036 33.6321C13.3552 33.6321 9.99999 32.5131 4.27184 29.258C2.62136 28.32 1.68172 27.1218 1.16588 26.2063C-0.0290529 24.0855 6.28673e-05 22.6459 6.28673e-05 21.3235C6.28673e-05 18.4702 4.65636 15.2391 6.21442 12.8805C7.67073 7.08228 11.781 3.2168 19.9036 3.2168C28.0261 3.2168 32.3309 7.28573 33.8843 12.8805C35.4424 15.2391 39.9029 18.4702 39.9029 21.3235Z" fill="#D29863"/>
</mask>
<g mask="url(#mask0_1390_40634)">
<path d="M16.6016 3.62402V6.67572" stroke="#866140" stroke-width="0.568648" stroke-linecap="round"/>
<path d="M19.9023 3.62402V6.67572" stroke="#866140" stroke-width="0.568648" stroke-linecap="round"/>
<path d="M23.0098 3.62402V6.67572" stroke="#866140" stroke-width="0.568648" stroke-linecap="round"/>
</g>
<defs>
<filter id="filter0_d_1390_40634" x="11.0021" y="0.368164" width="5.56999" height="8.03093" filterUnits="userSpaceOnUse" color-interpolation-filters="sRGB">
<feFlood flood-opacity="0" result="BackgroundImageFix"/>
<feColorMatrix in="SourceAlpha" type="matrix" values="0 0 0 0 0 0 0 0 0 0 0 0 0 0 0 0 0 0 127 0" result="hardAlpha"/>
<feOffset dy="0.454919"/>
<feGaussianBlur stdDeviation="0.227459"/>
<feComposite in2="hardAlpha" operator="out"/>
<feColorMatrix type="matrix" values="0 0 0 0 0 0 0 0 0 0 0 0 0 0 0 0 0 0 0.25 0"/>
<feBlend mode="normal" in2="BackgroundImageFix" result="effect1_dropShadow_1390_40634"/>
<feBlend mode="normal" in="SourceGraphic" in2="effect1_dropShadow_1390_40634" result="shape"/>
</filter>
<filter id="filter1_d_1390_40634" x="24.0119" y="0.368164" width="5.56999" height="8.03093" filterUnits="userSpaceOnUse" color-interpolation-filters="sRGB">
<feFlood flood-opacity="0" result="BackgroundImageFix"/>
<feColorMatrix in="SourceAlpha" type="matrix" values="0 0 0 0 0 0 0 0 0 0 0 0 0 0 0 0 0 0 127 0" result="hardAlpha"/>
<feOffset dy="0.454919"/>
<feGaussianBlur stdDeviation="0.227459"/>
<feComposite in2="hardAlpha" operator="out"/>
<feColorMatrix type="matrix" values="0 0 0 0 0 0 0 0 0 0 0 0 0 0 0 0 0 0 0.25 0"/>
<feBlend mode="normal" in2="BackgroundImageFix" result="effect1_dropShadow_1390_40634"/>
<feBlend mode="normal" in="SourceGraphic" in2="effect1_dropShadow_1390_40634" result="shape"/>
</filter>
<filter id="filter2_d_1390_40634" x="24.7873" y="1.79297" width="3.82195" height="5.38542" filterUnits="userSpaceOnUse" color-interpolation-filters="sRGB">
<feFlood flood-opacity="0" result="BackgroundImageFix"/>
<feColorMatrix in="SourceAlpha" type="matrix" values="0 0 0 0 0 0 0 0 0 0 0 0 0 0 0 0 0 0 127 0" result="hardAlpha"/>
<feOffset dy="0.454919"/>
<feGaussianBlur stdDeviation="0.227459"/>
<feComposite in2="hardAlpha" operator="out"/>
<feColorMatrix type="matrix" values="0 0 0 0 0 0 0 0 0 0 0 0 0 0 0 0 0 0 0.25 0"/>
<feBlend mode="normal" in2="BackgroundImageFix" result="effect1_dropShadow_1390_40634"/>
<feBlend mode="normal" in="SourceGraphic" in2="effect1_dropShadow_1390_40634" result="shape"/>
</filter>
<filter id="filter3_d_1390_40634" x="11.9728" y="1.79297" width="3.82195" height="5.38542" filterUnits="userSpaceOnUse" color-interpolation-filters="sRGB">
<feFlood flood-opacity="0" result="BackgroundImageFix"/>
<feColorMatrix in="SourceAlpha" type="matrix" values="0 0 0 0 0 0 0 0 0 0 0 0 0 0 0 0 0 0 127 0" result="hardAlpha"/>
<feOffset dy="0.454919"/>
<feGaussianBlur stdDeviation="0.227459"/>
<feComposite in2="hardAlpha" operator="out"/>
<feColorMatrix type="matrix" values="0 0 0 0 0 0 0 0 0 0 0 0 0 0 0 0 0 0 0.25 0"/>
<feBlend mode="normal" in2="BackgroundImageFix" result="effect1_dropShadow_1390_40634"/>
<feBlend mode="normal" in="SourceGraphic" in2="effect1_dropShadow_1390_40634" result="shape"/>
</filter>
<filter id="filter4_f_1390_40634" x="0.597297" y="15.3492" width="14.3406" height="14.5915" filterUnits="userSpaceOnUse" color-interpolation-filters="sRGB">
<feFlood flood-opacity="0" result="BackgroundImageFix"/>
<feBlend mode="normal" in="SourceGraphic" in2="BackgroundImageFix" result="shape"/>
<feGaussianBlur stdDeviation="2.27459" result="effect1_foregroundBlur_1390_40634"/>
</filter>
<filter id="filter5_f_1390_40634" x="25.3532" y="15.3492" width="14.3406" height="14.5915" filterUnits="userSpaceOnUse" color-interpolation-filters="sRGB">
<feFlood flood-opacity="0" result="BackgroundImageFix"/>
<feBlend mode="normal" in="SourceGraphic" in2="BackgroundImageFix" result="shape"/>
<feGaussianBlur stdDeviation="2.27459" result="effect1_foregroundBlur_1390_40634"/>
</filter>
</defs>
</svg>
