{
    "asset" : {
        "generator" : "Khronos glTF Blender I/O v3.4.50",
        "version" : "2.0"
    },
    "scene" : 0,
    "scenes" : [
        {
            "name" : "Scene",
            "nodes" : [
                0
            ]
        }
    ],
    "nodes" : [
        {
            "mesh" : 0,
            "name" : "Sphere.001",
            "rotation" : [
                -0.004304892849177122,
                0,
                0,
                0.9999908208847046
            ],
            "scale" : [
                0.6047826409339905,
                0.6153101325035095,
                0.6165103316307068
            ],
            "translation" : [
                0,
                -0.11311468482017517,
                -0.003168940544128418
            ]
        }
    ],
    "materials" : [
        {
            "doubleSided" : true,
            "name" : "Material.002",
            "pbrMetallicRoughness" : {
                "baseColorFactor" : [
                    0.7681513428688049,
                    0.2158602774143219,
                    0,
                    1
                ],
                "metallicFactor" : 0,
                "roughnessFactor" : 0.4000000059604645
            }
        },
        {
            "doubleSided" : true,
            "name" : "Material.001",
            "pbrMetallicRoughness" : {
                "baseColorFactor" : [
                    0.17144116759300232,
                    0.03820431977510452,
                    0,
                    1
                ],
                "metallicFactor" : 0,
                "roughnessFactor" : 0.4000000059604645
            }
        }
    ],
    "meshes" : [
        {
            "name" : "Sphere.001",
            "primitives" : [
                {
                    "attributes" : {
                        "POSITION" : 0,
                        "TEXCOORD_0" : 1,
                        "NORMAL" : 2
                    },
                    "indices" : 3,
                    "material" : 0
                },
                {
                    "attributes" : {
                        "POSITION" : 4,
                        "TEXCOORD_0" : 5,
                        "NORMAL" : 6
                    },
                    "indices" : 7,
                    "material" : 1
                }
            ]
        }
    ],
    "accessors" : [
        {
            "bufferView" : 0,
            "componentType" : 5126,
            "count" : 362,
            "max" : [
                0.4938017725944519,
                0.48695117235183716,
                0.4975076913833618
            ],
            "min" : [
                -0.49380216002464294,
                -0.3208959996700287,
                -0.49009618163108826
            ],
            "type" : "VEC3"
        },
        {
            "bufferView" : 1,
            "componentType" : 5126,
            "count" : 362,
            "type" : "VEC2"
        },
        {
            "bufferView" : 2,
            "componentType" : 5126,
            "count" : 362,
            "type" : "VEC3"
        },
        {
            "bufferView" : 3,
            "componentType" : 5123,
            "count" : 1914,
            "type" : "SCALAR"
        },
        {
            "bufferView" : 4,
            "componentType" : 5126,
            "count" : 230,
            "max" : [
                0.389541894197464,
                0.7323476672172546,
                0.3897220194339752
            ],
            "min" : [
                -0.38954177498817444,
                0.4873255789279938,
                -0.38936179876327515
            ],
            "type" : "VEC3"
        },
        {
            "bufferView" : 5,
            "componentType" : 5126,
            "count" : 230,
            "type" : "VEC2"
        },
        {
            "bufferView" : 6,
            "componentType" : 5126,
            "count" : 230,
            "type" : "VEC3"
        },
        {
            "bufferView" : 7,
            "componentType" : 5123,
            "count" : 1146,
            "type" : "SCALAR"
        }
    ],
    "bufferViews" : [
        {
            "buffer" : 0,
            "byteLength" : 4344,
            "byteOffset" : 0,
            "target" : 34962
        },
        {
            "buffer" : 0,
            "byteLength" : 2896,
            "byteOffset" : 4344,
            "target" : 34962
        },
        {
            "buffer" : 0,
            "byteLength" : 4344,
            "byteOffset" : 7240,
            "target" : 34962
        },
        {
            "buffer" : 0,
            "byteLength" : 3828,
            "byteOffset" : 11584,
            "target" : 34963
        },
        {
            "buffer" : 0,
            "byteLength" : 2760,
            "byteOffset" : 15412,
            "target" : 34962
        },
        {
            "buffer" : 0,
            "byteLength" : 1840,
            "byteOffset" : 18172,
            "target" : 34962
        },
        {
            "buffer" : 0,
            "byteLength" : 2760,
            "byteOffset" : 20012,
            "target" : 34962
        },
        {
            "buffer" : 0,
            "byteLength" : 2292,
            "byteOffset" : 22772,
            "target" : 34963
        }
    ],
    "buffers" : [
        {
            "byteLength" : 25064,
            "uri" : "acorn.bin"
        }
    ]
}
