<svg width="800" height="800" viewBox="0 0 800 800" fill="none" xmlns="http://www.w3.org/2000/svg">
<mask id="mask0_1225_40617" style="mask-type:alpha" maskUnits="userSpaceOnUse" x="0" y="0" width="800" height="800">
<rect width="800" height="800" fill="#696354"/>
</mask>
<g mask="url(#mask0_1225_40617)">
<rect width="800" height="800" fill="#696354"/>
<g filter="url(#filter0_d_1225_40617)">
<path d="M754.527 590.263C737.352 612.587 706.907 614.483 673.305 631.409C652.343 641.968 637.128 675.148 616.719 684.815C583.354 700.619 546.44 688.562 524.494 671.648C467.606 627.805 498.233 556.617 571.06 462.121C652.259 389.674 720.844 417.46 754.198 452.882C787.551 488.304 782.792 553.523 754.527 590.263Z" fill="#D29863"/>
<path d="M674.118 447.889C653.577 456.693 542.083 524.954 542.083 524.954C516.651 531.848 512.901 526.019 512.901 526.019C512.901 526.019 584.564 471.384 671.577 434.113C699.01 421.628 723.091 429.458 723.091 429.458L730.174 433.213L740.528 440.649C740.528 440.649 699.778 436.891 674.118 447.889Z" fill="#9D6C3E"/>
<path d="M702.194 497.386C671.691 512.203 490.656 626.423 490.656 626.423C452.748 638.992 446.912 630.976 446.912 630.976C446.912 630.976 623.428 512.413 708.171 478.138C746.263 461.912 766.011 469.213 766.011 469.213L769.657 476.898L773.393 486.825C773.393 486.825 740.298 478.878 702.194 497.386Z" fill="#9D6C3E"/>
<path d="M708.527 464.024C708.527 464.024 668.82 478.969 661.626 483.943C650.729 491.477 506.462 579.253 506.462 579.253C474.369 588.397 469.927 581.741 469.927 581.741C469.927 581.741 646.797 477.836 663.513 468.877C678.956 460.601 696.321 455.2 708.265 451.28C736.85 443.921 749.309 447.92 749.309 447.92L754.653 453.087L759.585 459.163C759.585 459.163 740.336 453.186 708.527 464.024Z" fill="#9D6C3E"/>
</g>
<g filter="url(#filter1_d_1225_40617)">
<ellipse cx="401" cy="530" rx="233" ry="193" fill="#D29863"/>
</g>
<mask id="mask1_1225_40617" style="mask-type:alpha" maskUnits="userSpaceOnUse" x="168" y="337" width="466" height="386">
<ellipse cx="401" cy="530" rx="233" ry="193" fill="#D29863"/>
</mask>
<g mask="url(#mask1_1225_40617)">
<ellipse cx="401.5" cy="459" rx="185.5" ry="142" fill="#F8C08D"/>
</g>
<mask id="mask2_1225_40617" style="mask-type:alpha" maskUnits="userSpaceOnUse" x="-1" y="-1" width="800" height="800">
<rect x="-1" y="-1" width="800" height="800" fill="white"/>
</mask>
<g mask="url(#mask2_1225_40617)">
<path d="M21.1371 626.714C23.6973 612.412 36.1384 602 50.6677 602H746.11C760.627 602 773.061 612.394 775.635 626.681L804.638 787.681C807.952 806.083 793.81 823 775.113 823H21.8472C3.16321 823 -10.9757 806.105 -7.68342 787.714L21.1371 626.714Z" fill="#DB8A78"/>
</g>
<path d="M63.3113 555.983C68.8076 547.278 78.3831 542 88.6776 542H709.088C719.512 542 729.189 547.411 734.647 556.292L770.908 615.292C783.193 635.28 768.811 661 745.349 661H51.4231C27.7979 661 13.4431 634.959 26.0568 614.983L63.3113 555.983Z" fill="#F99F8B"/>
<path d="M171.75 542H220.25L167.75 661H98.75L135.25 601.5L171.75 542Z" fill="#FFCECE" fill-opacity="0.8"/>
<path d="M629.5 542H581L633.5 661H702.5L666 601.5L629.5 542Z" fill="#FFCECE" fill-opacity="0.8"/>
<path d="M308 541H357L337.5 661H271.5L308 541Z" fill="#FFCECE" fill-opacity="0.8"/>
<path d="M490.5 541H441.5L461 661H527L490.5 541Z" fill="#FFCECE" fill-opacity="0.8"/>
<path d="M98.5 661H168L154.5 799H81.5L98.5 661Z" fill="#EAB5B5" fill-opacity="0.8"/>
<path d="M702.5 661H633L646.5 799H719.5L702.5 661Z" fill="#EAB5B5" fill-opacity="0.8"/>
<path d="M271 661H338L335 799H264L271 661Z" fill="#EAB5B5" fill-opacity="0.8"/>
<path d="M460 661H527L533.5 799H463.5L460 661Z" fill="#EAB5B5" fill-opacity="0.8"/>
<path d="M59.5 562H738L750 581H47.5L59.5 562Z" fill="#D37070" fill-opacity="0.5"/>
<path d="M35.8285 602H761.172L774 621H23L35.8285 602Z" fill="#D37070" fill-opacity="0.5"/>
<path d="M7.09102 712H790.403L799 758H-1L7.09102 712Z" fill="#BA5C5C" fill-opacity="0.5"/>
<path d="M395 542H405L407 661H392.5L395 542Z" fill="#A06060" fill-opacity="0.8"/>
<path d="M534 542H544L590 661H575L534 542Z" fill="#A06060" fill-opacity="0.8"/>
<path d="M270 542H260L214 661H229L270 542Z" fill="#A06060" fill-opacity="0.8"/>
<path d="M123.5 542H135L59 661L43.5 660L123.5 542Z" fill="#A06060" fill-opacity="0.8"/>
<path d="M677 542H665.5L741.5 661L757 660L677 542Z" fill="#A06060" fill-opacity="0.8"/>
<path d="M392.639 661H407.417L409 799H390L392.639 661Z" fill="#915C59" fill-opacity="0.8"/>
<path d="M575 661H590L602.5 799H581.5L575 661Z" fill="#915C59" fill-opacity="0.8"/>
<path d="M228.5 661H213.5L201 799H222L228.5 661Z" fill="#915C59" fill-opacity="0.8"/>
<path d="M742 660H757L781 799H763.5L742 660Z" fill="#915C59" fill-opacity="0.8"/>
<path d="M59 660H44L20 799H37.5L59 660Z" fill="#915C59" fill-opacity="0.8"/>
<ellipse cx="9" cy="9.5" rx="9" ry="9.5" transform="matrix(-1 0 0 1 308.001 320)" fill="white"/>
<path d="M263.335 305.464C266.747 312.71 275.183 315.913 282.179 312.619C289.174 309.325 292.079 300.782 288.668 293.536C285.256 286.291 276.82 283.088 269.825 286.382C262.829 289.676 259.924 298.219 263.335 305.464Z" fill="white"/>
<ellipse cx="162" cy="138" rx="162" ry="138" transform="matrix(-1 0 0 1 392.001 29)" fill="white"/>
<g filter="url(#filter2_d_1225_40617)">
<g filter="url(#filter3_d_1225_40617)">
<ellipse cx="200.145" cy="103.34" rx="11.3482" ry="17.3397" fill="#D29863"/>
</g>
<g filter="url(#filter4_d_1225_40617)">
<ellipse cx="263.506" cy="103.34" rx="11.3482" ry="17.3397" fill="#D29863"/>
</g>
<g filter="url(#filter5_d_1225_40617)">
<ellipse cx="263.033" cy="103.837" rx="7.0926" ry="10.8992" fill="#AE7E53"/>
</g>
<g filter="url(#filter6_d_1225_40617)">
<ellipse cx="200.618" cy="103.837" rx="7.0926" ry="10.8992" fill="#AE7E53"/>
</g>
<g filter="url(#filter7_d_1225_40617)">
<path d="M327.811 188.054C327.811 194.99 327.961 201.505 322.141 211.834C319.908 215.797 315.622 221.015 309.719 226.696C290.811 244.896 262.302 247.999 230.41 247.999C198.518 247.999 182.177 242.55 154.279 226.696C146.241 222.128 141.665 216.293 139.152 211.834C133.333 201.505 133.474 194.494 133.474 188.054C133.474 174.157 156.152 158.421 163.74 146.934C170.833 118.695 190.851 99.8691 230.41 99.8691C269.969 99.8691 290.934 119.686 298.499 146.934C306.088 158.421 327.811 174.157 327.811 188.054Z" fill="#D29863"/>
</g>
<ellipse cx="229.934" cy="181.122" rx="8.03828" ry="3.96335" fill="#553E2A"/>
<path d="M223.701 193.408C224.06 193.864 224.899 194.659 226.876 194.659C228.014 194.659 229.119 194.059 229.572 193.838C229.841 193.706 230.073 193.636 230.32 193.649M236.94 193.447C236.401 194.151 235.862 194.698 233.765 194.659C232.627 194.637 231.436 194.085 230.949 193.838C230.714 193.719 230.512 193.659 230.32 193.649M230.32 193.649V190.486" stroke="#553E2A" stroke-width="1.62065" stroke-linecap="round"/>
<g filter="url(#filter8_f_1225_40617)">
<path d="M183.595 194.495C183.595 201.883 177.879 207.872 170.828 207.872C163.777 207.872 158.062 201.883 158.062 194.495C158.062 187.108 163.777 181.119 170.828 181.119C177.879 181.119 183.595 187.108 183.595 194.495Z" fill="#F57249"/>
</g>
<g filter="url(#filter9_f_1225_40617)">
<path d="M304.17 194.495C304.17 201.883 298.454 207.872 291.403 207.872C284.353 207.872 278.637 201.883 278.637 194.495C278.637 187.108 284.353 181.119 291.403 181.119C298.454 181.119 304.17 187.108 304.17 194.495Z" fill="#F57249"/>
</g>
<mask id="mask3_1225_40617" style="mask-type:alpha" maskUnits="userSpaceOnUse" x="133" y="99" width="195" height="150">
<path d="M327.339 188.056C327.339 194.991 327.488 201.507 321.669 211.836C319.436 215.799 315.149 221.017 309.247 226.698C290.339 244.897 261.829 248.001 229.937 248.001C198.045 248.001 181.704 242.552 153.806 226.698C145.768 222.13 141.192 216.294 138.68 211.836C132.86 201.507 133.002 194.496 133.002 188.056C133.002 174.159 155.679 158.423 163.267 146.936C170.36 118.697 190.378 99.8711 229.937 99.8711C269.496 99.8711 290.461 119.688 298.027 146.936C305.615 158.423 327.339 174.159 327.339 188.056Z" fill="#D29863"/>
</mask>
<g mask="url(#mask3_1225_40617)">
<path d="M213.857 101.854V116.716" stroke="#866140" stroke-width="2.70108" stroke-linecap="round"/>
<path d="M229.934 101.854V116.716" stroke="#866140" stroke-width="2.70108" stroke-linecap="round"/>
<path d="M245.065 101.854V116.716" stroke="#866140" stroke-width="2.70108" stroke-linecap="round"/>
</g>
<path d="M246.001 162L258.863 162.496" stroke="#46392E" stroke-width="5" stroke-linecap="round"/>
<path d="M246.001 166L258.863 166.496" stroke="#46392E" stroke-width="5" stroke-linecap="round"/>
<path d="M246.001 158L258.863 158.496" stroke="#46392E" stroke-width="5" stroke-linecap="round"/>
<path d="M246.001 170L258.863 170.496" stroke="#46392E" stroke-width="5" stroke-linecap="round"/>
<path d="M201.001 170.496L213.863 170" stroke="#46392E" stroke-width="5" stroke-linecap="round"/>
<path d="M201.001 166.496L213.863 166" stroke="#46392E" stroke-width="5" stroke-linecap="round"/>
<path d="M201.001 162.496L213.863 162" stroke="#46392E" stroke-width="5" stroke-linecap="round"/>
<path d="M246.001 170L258.863 170.496" stroke="#46392E" stroke-width="5" stroke-linecap="round"/>
<path d="M201.001 170.496L213.863 170" stroke="#46392E" stroke-width="5" stroke-linecap="round"/>
<path d="M201.001 166.496L213.863 166" stroke="#46392E" stroke-width="5" stroke-linecap="round"/>
<path d="M201.001 162.496L213.863 162" stroke="#46392E" stroke-width="5" stroke-linecap="round"/>
<path d="M201.001 158.496L213.863 158" stroke="#46392E" stroke-width="5" stroke-linecap="round"/>
<path d="M201.001 158.496L213.863 158" stroke="#46392E" stroke-width="5" stroke-linecap="round"/>
<g filter="url(#filter10_f_1225_40617)">
<path d="M206.491 161.183L208.624 159.741L210.225 155.999L211.675 159.702L213.897 161.328L211.702 162.946L210.225 166.446L208.624 162.946L206.491 161.183Z" fill="#FDFF8C"/>
</g>
<g filter="url(#filter11_f_1225_40617)">
<path d="M251.491 161.185L253.624 159.743L255.225 156.001L256.675 159.704L258.897 161.33L256.702 162.948L255.225 166.448L253.624 162.948L251.491 161.185Z" fill="#FDFF8C"/>
</g>
<g filter="url(#filter12_f_1225_40617)">
<path d="M201.174 167.082L202.854 165.947L204.114 163.001L205.255 165.916L207.004 167.196L205.277 168.47L204.114 171.226L202.854 168.47L201.174 167.082Z" fill="#FDFF8C"/>
</g>
<g filter="url(#filter13_f_1225_40617)">
<path d="M246.174 167.082L247.854 165.947L249.114 163.001L250.255 165.916L252.004 167.196L250.277 168.47L249.114 171.226L247.854 168.47L246.174 167.082Z" fill="#FDFF8C"/>
</g>
</g>
<g filter="url(#filter14_d_1225_40617)">
<path d="M195.969 492.187C210.583 541.162 207.12 585.432 188.235 591.067C169.35 596.701 142.194 561.568 127.581 512.593C112.968 463.618 116.431 419.348 135.316 413.713C154.201 408.078 181.356 443.212 195.969 492.187Z" fill="#D29863"/>
<path d="M211.302 495.718C217.054 546.524 205.858 589.585 186.295 591.896C166.732 594.207 146.209 554.895 140.457 504.088C134.705 453.282 145.901 410.222 165.464 407.911C185.028 405.599 205.55 444.912 211.302 495.718Z" fill="#D29863"/>
<path d="M117.196 523.798C140.225 569.45 173.186 599.334 190.817 590.547C208.448 581.761 204.073 537.63 181.044 491.979C158.015 446.328 125.054 416.443 107.423 425.23C89.7914 434.017 94.167 478.147 117.196 523.798Z" fill="#D29863"/>
</g>
<path d="M188.367 498.832C182.208 478.19 170.657 493.741 162.306 501.021C152.817 499.064 133.584 494.294 139.743 514.936C144.379 535.899 166.419 563.642 178.05 553.788C192.961 554.924 195.801 523.748 188.367 498.832Z" fill="#F8C08D"/>
<ellipse cx="149.834" cy="459.661" rx="6.98165" ry="19.1198" transform="rotate(-16.6141 149.834 459.661)" fill="#F8C08D"/>
<ellipse cx="6.9756" cy="19.1369" rx="6.9756" ry="19.1369" transform="matrix(0.999116 -0.0420368 0.0351965 0.99938 167.734 434.365)" fill="#F8C08D"/>
<ellipse cx="6.9756" cy="19.1369" rx="6.9756" ry="19.1369" transform="matrix(-0.858791 0.512326 0.518192 0.855264 120.903 448.34)" fill="#F8C08D"/>
<g filter="url(#filter15_d_1225_40617)">
<g filter="url(#filter16_d_1225_40617)">
<path d="M599.031 487.187C584.417 536.162 587.88 580.432 606.765 586.067C625.65 591.701 652.806 556.568 667.419 507.593C682.032 458.618 678.569 414.348 659.684 408.713C640.799 403.078 613.644 438.212 599.031 487.187Z" fill="#D29863"/>
<path d="M583.698 490.718C577.946 541.524 589.142 584.585 608.705 586.896C628.268 589.207 648.791 549.895 654.543 499.088C660.295 448.282 649.099 405.222 629.536 402.911C609.972 400.599 589.45 439.912 583.698 490.718Z" fill="#D29863"/>
<path d="M677.804 518.798C654.775 564.45 621.814 594.334 604.183 585.547C586.552 576.761 590.927 532.63 613.956 486.979C636.985 441.328 669.946 411.443 687.577 420.23C705.209 429.017 700.833 473.147 677.804 518.798Z" fill="#D29863"/>
</g>
<path d="M606.633 493.832C612.792 473.19 624.343 488.741 632.694 496.021C642.183 494.064 661.416 489.294 655.257 509.936C650.621 530.899 628.581 558.642 616.95 548.788C602.039 549.924 599.199 518.748 606.633 493.832Z" fill="#F8C08D"/>
<ellipse cx="6.98165" cy="19.1198" rx="6.98165" ry="19.1198" transform="matrix(-0.958252 -0.285923 -0.285923 0.958252 657.323 438.336)" fill="#F8C08D"/>
<ellipse cx="6.9756" cy="19.1369" rx="6.9756" ry="19.1369" transform="matrix(-0.999116 -0.0420368 -0.0351965 0.99938 627.266 429.365)" fill="#F8C08D"/>
<ellipse cx="6.9756" cy="19.1369" rx="6.9756" ry="19.1369" transform="matrix(0.858791 0.512326 -0.518192 0.855264 674.097 443.34)" fill="#F8C08D"/>
</g>
<g filter="url(#filter17_f_1225_40617)">
<ellipse cx="459" cy="190.5" rx="40" ry="39.5" fill="#FFF975" fill-opacity="0.8"/>
</g>
<g filter="url(#filter18_f_1225_40617)">
<path d="M435.996 190.314L448.885 181.607L458.554 159.001L467.312 181.367L480.733 191.193L467.478 200.967L458.554 222.108L448.885 200.967L435.996 190.314Z" fill="#FEFFC4"/>
</g>
<g filter="url(#filter19_f_1225_40617)">
<ellipse cx="627" cy="85.5" rx="40" ry="39.5" fill="#FFF975" fill-opacity="0.8"/>
</g>
<g filter="url(#filter20_f_1225_40617)">
<path d="M603.996 85.3144L616.885 76.6074L626.554 54.001L635.312 76.3671L648.733 86.1925L635.478 95.9669L626.554 117.108L616.885 95.9669L603.996 85.3144Z" fill="#FEFFC4"/>
</g>
<g filter="url(#filter21_f_1225_40617)">
<ellipse cx="661.848" cy="352.5" rx="27.8481" ry="27.5" fill="#FFF975" fill-opacity="0.8"/>
</g>
<g filter="url(#filter22_f_1225_40617)">
<path d="M645.833 352.37L654.806 346.308L661.538 330.569L667.635 346.141L676.979 352.981L667.751 359.786L661.538 374.505L654.806 359.786L645.833 352.37Z" fill="#FEFFC4"/>
</g>
<g filter="url(#filter23_f_1225_40617)">
<ellipse cx="66.761" cy="47.5" rx="20.7595" ry="20.5" fill="#FFF975" fill-opacity="0.8"/>
</g>
<g filter="url(#filter24_f_1225_40617)">
<path d="M54.8224 47.4026L61.5112 42.8838L66.5293 31.1514L71.0748 42.7591L78.0401 47.8584L71.1609 52.9311L66.5293 63.9033L61.5112 52.9311L54.8224 47.4026Z" fill="#FEFFC4"/>
</g>
<g filter="url(#filter25_f_1225_40617)">
<ellipse cx="742.761" cy="268.5" rx="20.7595" ry="20.5" fill="#FFF975" fill-opacity="0.8"/>
</g>
<g filter="url(#filter26_f_1225_40617)">
<path d="M730.822 268.403L737.511 263.884L742.529 252.151L747.075 263.759L754.04 268.858L747.161 273.931L742.529 284.903L737.511 273.931L730.822 268.403Z" fill="#FEFFC4"/>
</g>
<g filter="url(#filter27_f_1225_40617)">
<ellipse cx="88.5015" cy="367.156" rx="27.5" ry="27.1562" fill="#FFF975" fill-opacity="0.8"/>
</g>
<g filter="url(#filter28_f_1225_40617)">
<path d="M72.6865 367.028L81.5473 361.042L88.1946 345.5L94.216 360.877L103.443 367.632L94.3301 374.352L88.1946 388.887L81.5473 374.352L72.6865 367.028Z" fill="#FEFFC4"/>
</g>
<path d="M601.203 234V229.437L619.35 203.975H601.168V197.636H629.009V202.2L610.845 227.661H629.044V234H601.203ZM568.247 282V278.349L582.764 257.98H568.219V252.909H590.491V256.56L575.96 276.929H590.52V282H568.247ZM530.773 321V318.08L542.386 301.784H530.75V297.727H548.568V300.648L536.943 316.943H548.591V321H530.773Z" fill="white"/>
<path d="M698.696 754.504C700.412 755.064 701.282 756.187 701.305 757.875L701.359 761.734C701.46 762.295 701.75 762.572 702.23 762.565L707.348 762.073C708.202 762.061 709.068 762.903 709.946 764.599C709.971 766.422 707.563 767.456 702.722 767.7L702.746 769.403C702.781 771.965 703.513 773.236 704.94 773.216C706.894 772.908 708.171 772.604 708.771 772.304C710.081 772.838 710.802 773.401 710.935 773.993L710.959 775.696C710.972 776.665 708.988 777.406 705.005 777.919C701.161 777.972 698.851 775.869 698.073 771.608C698.038 769.046 697.593 767.771 696.739 767.782L692.895 767.836C691.187 767.859 690.321 767.012 690.297 765.293L690.292 764.871C690.275 763.642 692.4 762.899 696.668 762.642L696.597 757.518C696.575 755.924 697.274 754.92 698.696 754.504ZM722.782 760.578C727.648 762.146 730.103 764.534 730.148 767.742L730.171 769.445C728.939 776.015 726.136 779.33 721.761 779.391C716.064 779.469 713.164 775.806 713.061 768.401C714.473 763.537 716.861 761.082 720.226 761.035C720.434 761.032 721.286 760.88 722.782 760.578ZM717.776 769.195C717.809 771.611 718.687 773.308 720.409 774.284L722.549 774.254C723.591 774.24 724.56 772.377 725.457 768.667C724.654 766.396 723.358 765.273 721.566 765.298C720.139 765.318 718.876 766.617 717.776 769.195ZM734.785 759.552C736.555 759.528 738.016 761.93 739.166 766.758C742.281 763.017 745.386 761.125 748.479 761.082C750.481 761.21 751.493 762.051 751.514 763.603C751.529 764.686 749.412 765.997 745.162 767.535L741.379 773.134L741.445 777.837C741.45 778.254 741.029 778.687 740.181 779.136L738.478 779.159C737.26 779.176 736.068 775.489 734.903 768.098C734.434 768.105 733.551 765.982 732.252 761.728C732.232 760.301 733.077 759.576 734.785 759.552ZM756.524 750.704L763.367 750.609C765.367 750.582 766.378 751.422 766.402 753.13C765.868 754.44 765.305 755.161 764.713 755.294L755.308 755.424C754.87 755.43 754.295 754.871 753.581 753.745C753.554 751.745 754.534 750.732 756.524 750.704ZM761.8 760.46C763.508 760.436 764.421 764.7 764.54 773.252C763.98 774.968 763.419 775.83 762.856 775.838L761.153 775.861C759.726 775.881 758.952 771.475 758.83 762.642C759.206 761.21 760.196 760.482 761.8 760.46Z" fill="black"/>
<path d="M698.696 754.504L699.006 753.553L698.712 753.458L698.415 753.544L698.696 754.504ZM701.359 761.734L700.359 761.747L700.36 761.83L700.375 761.912L701.359 761.734ZM702.23 762.565L702.243 763.565L702.284 763.565L702.325 763.561L702.23 762.565ZM707.348 762.073L707.334 761.073L707.293 761.073L707.252 761.077L707.348 762.073ZM709.946 764.599L710.946 764.586L710.943 764.35L710.834 764.14L709.946 764.599ZM702.722 767.7L702.672 766.701L701.709 766.749L701.723 767.713L702.722 767.7ZM704.94 773.216L704.953 774.216L705.025 774.215L705.095 774.204L704.94 773.216ZM708.771 772.304L709.149 771.378L708.729 771.207L708.324 771.41L708.771 772.304ZM710.935 773.993L711.935 773.979L711.934 773.875L711.911 773.773L710.935 773.993ZM705.005 777.919L705.018 778.919L705.076 778.918L705.133 778.911L705.005 777.919ZM698.073 771.608L697.073 771.622L697.074 771.705L697.089 771.788L698.073 771.608ZM696.668 762.642L696.728 763.64L697.681 763.583L697.668 762.628L696.668 762.642ZM698.386 755.455C699.105 755.689 699.562 756.013 699.845 756.379C700.123 756.738 700.296 757.22 700.305 757.888L702.305 757.861C702.291 756.842 702.017 755.918 701.426 755.154C700.839 754.396 700.003 753.879 699.006 753.553L698.386 755.455ZM700.305 757.888L700.359 761.747L702.359 761.72L702.305 757.861L700.305 757.888ZM700.375 761.912C700.448 762.316 700.611 762.751 700.962 763.086C701.332 763.439 701.796 763.571 702.243 763.565L702.216 761.565C702.193 761.566 702.205 761.562 702.237 761.574C702.273 761.586 702.311 761.609 702.343 761.639C702.373 761.668 702.38 761.687 702.376 761.678C702.371 761.667 702.356 761.63 702.343 761.556L700.375 761.912ZM702.325 763.561L707.444 763.068L707.252 761.077L702.134 761.57L702.325 763.561ZM707.362 763.073C707.43 763.072 707.619 763.099 707.941 763.412C708.265 763.728 708.643 764.258 709.058 765.059L710.834 764.14C710.371 763.245 709.877 762.505 709.335 761.979C708.792 761.45 708.12 761.062 707.334 761.073L707.362 763.073ZM708.946 764.613C708.951 764.946 708.788 765.383 707.765 765.823C706.726 766.268 705.057 766.581 702.672 766.701L702.773 768.698C705.229 768.575 707.184 768.248 708.553 767.661C709.938 767.066 710.966 766.076 710.946 764.586L708.946 764.613ZM701.723 767.713L701.746 769.416L703.746 769.389L703.722 767.686L701.723 767.713ZM701.746 769.416C701.765 770.758 701.962 771.92 702.454 772.776C702.709 773.219 703.052 773.595 703.498 773.854C703.946 774.114 704.442 774.223 704.953 774.216L704.926 772.217C704.723 772.219 704.593 772.177 704.502 772.124C704.408 772.07 704.299 771.972 704.188 771.779C703.949 771.364 703.763 770.61 703.746 769.389L701.746 769.416ZM705.095 774.204C706.087 774.048 706.922 773.89 707.595 773.73C708.251 773.574 708.812 773.401 709.218 773.198L708.324 771.41C708.13 771.506 707.752 771.636 707.132 771.784C706.527 771.928 705.747 772.077 704.784 772.229L705.095 774.204ZM708.394 773.23C709.004 773.479 709.419 773.712 709.679 773.915C709.946 774.124 709.964 774.232 709.96 774.212L711.911 773.773C711.773 773.162 711.364 772.693 710.91 772.338C710.448 771.978 709.848 771.663 709.149 771.378L708.394 773.23ZM709.935 774.007L709.959 775.71L711.959 775.682L711.935 773.979L709.935 774.007ZM709.959 775.71C709.957 775.564 710.045 775.533 709.939 775.624C709.821 775.726 709.576 775.875 709.131 776.041C708.248 776.371 706.847 776.673 704.877 776.927L705.133 778.911C707.145 778.651 708.728 778.326 709.83 777.915C710.377 777.711 710.874 777.461 711.249 777.135C711.637 776.799 711.967 776.312 711.959 775.682L709.959 775.71ZM704.991 776.919C703.262 776.943 701.989 776.485 701.062 775.642C700.121 774.785 699.421 773.425 699.057 771.429L697.089 771.788C697.503 774.052 698.346 775.874 699.716 777.121C701.1 778.381 702.904 778.948 705.018 778.919L704.991 776.919ZM699.073 771.594C699.055 770.284 698.934 769.194 698.657 768.401C698.389 767.633 697.816 766.767 696.725 766.783L696.753 768.782C696.515 768.786 696.592 768.552 696.769 769.059C696.937 769.541 697.056 770.37 697.073 771.622L699.073 771.594ZM696.725 766.783L692.881 766.836L692.909 768.835L696.753 768.782L696.725 766.783ZM692.881 766.836C692.183 766.845 691.84 766.675 691.664 766.503C691.487 766.33 691.307 765.986 691.297 765.279L689.297 765.307C689.311 766.319 689.576 767.258 690.265 767.932C690.955 768.608 691.899 768.849 692.909 768.835L692.881 766.836ZM691.297 765.279L691.291 764.857L689.292 764.885L689.297 765.307L691.297 765.279ZM691.291 764.857C691.291 764.854 691.291 764.858 691.291 764.857C691.293 764.853 691.308 764.823 691.364 764.771C691.485 764.658 691.737 764.499 692.203 764.336C693.132 764.011 694.619 763.767 696.728 763.64L696.607 761.644C694.448 761.774 692.739 762.03 691.543 762.448C690.442 762.833 689.273 763.55 689.292 764.885L691.291 764.857ZM697.668 762.628L697.597 757.504L695.597 757.532L695.668 762.656L697.668 762.628ZM697.597 757.504C697.588 756.853 697.727 756.426 697.926 756.141C698.119 755.863 698.437 755.622 698.976 755.464L698.415 753.544C697.533 753.802 696.79 754.271 696.284 754.998C695.784 755.717 695.584 756.589 695.597 757.532L697.597 757.504ZM722.782 760.578L723.089 759.626L722.84 759.546L722.584 759.598L722.782 760.578ZM730.171 769.445L731.154 769.63L731.172 769.531L731.171 769.431L730.171 769.445ZM713.061 768.401L712.101 768.122L712.059 768.265L712.061 768.414L713.061 768.401ZM717.776 769.195L716.856 768.802L716.773 768.997L716.776 769.209L717.776 769.195ZM720.409 774.284L719.916 775.154L720.152 775.287L720.423 775.284L720.409 774.284ZM725.457 768.667L726.429 768.902L726.498 768.613L726.4 768.333L725.457 768.667ZM722.475 761.53C727.215 763.057 729.112 765.213 729.148 767.756L731.147 767.728C731.094 763.856 728.081 761.235 723.089 759.626L722.475 761.53ZM729.148 767.756L729.171 769.459L731.171 769.431L731.147 767.728L729.148 767.756ZM729.188 769.261C728.588 772.46 727.626 774.741 726.381 776.213C725.168 777.648 723.648 778.364 721.747 778.391L721.775 780.391C724.249 780.356 726.318 779.385 727.908 777.505C729.466 775.662 730.522 773.001 731.154 769.63L729.188 769.261ZM721.747 778.391C719.133 778.427 717.312 777.616 716.097 776.082C714.844 774.498 714.111 771.989 714.061 768.387L712.061 768.414C712.114 772.217 712.883 775.243 714.529 777.323C716.214 779.452 718.692 780.433 721.775 780.391L721.747 778.391ZM714.022 768.679C714.702 766.335 715.59 764.676 716.628 763.609C717.641 762.567 718.828 762.055 720.24 762.035L720.212 760.035C718.259 760.062 716.57 760.8 715.195 762.214C713.845 763.602 712.832 765.602 712.101 768.122L714.022 768.679ZM720.24 762.035C720.445 762.032 720.803 761.973 721.197 761.903C721.634 761.825 722.229 761.71 722.98 761.558L722.584 759.598C721.839 759.748 721.26 759.86 720.845 759.934C720.637 759.971 720.476 759.998 720.358 760.015C720.222 760.035 720.19 760.035 720.212 760.035L720.24 762.035ZM716.776 769.209C716.813 771.888 717.813 773.961 719.916 775.154L720.902 773.414C719.561 772.654 718.806 771.334 718.776 769.181L716.776 769.209ZM720.423 775.284L722.563 775.254L722.536 773.254L720.395 773.284L720.423 775.284ZM722.563 775.254C723.143 775.246 723.626 774.977 723.999 774.628C724.365 774.286 724.674 773.827 724.945 773.308C725.485 772.269 725.974 770.783 726.429 768.902L724.485 768.432C724.043 770.261 723.599 771.562 723.17 772.385C722.956 772.797 722.771 773.038 722.635 773.166C722.506 773.286 722.477 773.255 722.536 773.254L722.563 775.254ZM726.4 768.333C725.963 767.097 725.359 766.077 724.537 765.366C723.694 764.636 722.681 764.283 721.552 764.298L721.58 766.298C722.242 766.289 722.774 766.484 723.228 766.878C723.703 767.289 724.148 767.966 724.514 769L726.4 768.333ZM721.552 764.298C720.507 764.313 719.596 764.804 718.831 765.59C718.08 766.362 717.431 767.455 716.856 768.802L718.696 769.587C719.221 768.356 719.753 767.511 720.265 766.984C720.764 766.471 721.198 766.303 721.58 766.298L721.552 764.298ZM739.166 766.758L738.193 766.99L738.656 768.933L739.935 767.398L739.166 766.758ZM748.479 761.082L748.543 760.084L748.504 760.081L748.465 760.082L748.479 761.082ZM745.162 767.535L744.821 766.594L744.515 766.705L744.333 766.975L745.162 767.535ZM741.379 773.134L740.551 772.575L740.375 772.835L740.38 773.148L741.379 773.134ZM740.181 779.136L740.195 780.136L740.436 780.132L740.649 780.02L740.181 779.136ZM734.903 768.098L735.891 767.943L735.756 767.087L734.889 767.099L734.903 768.098ZM732.252 761.728L731.252 761.742L731.254 761.884L731.296 762.02L732.252 761.728ZM734.799 760.552C735.155 760.547 735.693 760.769 736.354 761.855C737.003 762.923 737.627 764.612 738.193 766.99L740.139 766.526C739.555 764.076 738.873 762.149 738.063 760.816C737.263 759.5 736.186 758.533 734.771 758.552L734.799 760.552ZM739.935 767.398C742.969 763.753 745.825 762.119 748.493 762.082L748.465 760.082C744.947 760.131 741.593 762.28 738.398 766.118L739.935 767.398ZM748.415 762.08C749.309 762.137 749.822 762.347 750.1 762.578C750.34 762.777 750.507 763.075 750.514 763.616L752.514 763.589C752.5 762.579 752.15 761.68 751.378 761.039C750.645 760.43 749.651 760.155 748.543 760.084L748.415 762.08ZM750.514 763.616C750.513 763.545 750.549 763.599 750.374 763.798C750.203 763.993 749.898 764.246 749.411 764.548C748.44 765.149 746.925 765.833 744.821 766.594L745.502 768.475C747.649 767.698 749.317 766.958 750.464 766.248C751.035 765.894 751.523 765.521 751.877 765.118C752.228 764.718 752.523 764.202 752.514 763.589L750.514 763.616ZM744.333 766.975L740.551 772.575L742.208 773.694L745.99 768.094L744.333 766.975ZM740.38 773.148L740.445 777.851L742.444 777.823L742.379 773.121L740.38 773.148ZM740.445 777.851C740.442 777.695 740.525 777.665 740.416 777.777C740.308 777.888 740.092 778.051 739.713 778.252L740.649 780.02C741.118 779.771 741.537 779.493 741.85 779.171C742.162 778.85 742.452 778.396 742.444 777.823L740.445 777.851ZM740.167 778.136L738.464 778.16L738.492 780.159L740.195 780.136L740.167 778.136ZM738.464 778.16C738.704 778.156 738.667 778.327 738.405 777.929C738.177 777.581 737.91 776.99 737.622 776.099C737.051 774.332 736.471 771.625 735.891 767.943L733.915 768.254C734.5 771.963 735.098 774.795 735.719 776.714C736.027 777.667 736.359 778.457 736.733 779.027C737.074 779.546 737.643 780.171 738.492 780.159L738.464 778.16ZM734.889 767.099C735.209 767.094 735.384 767.265 735.384 767.265C735.403 767.282 735.379 767.264 735.316 767.166C735.194 766.975 735.026 766.64 734.812 766.127C734.389 765.111 733.855 763.555 733.209 761.436L731.296 762.02C731.947 764.155 732.504 765.787 732.965 766.895C733.194 767.443 733.415 767.904 733.631 768.242C733.737 768.409 733.869 768.588 734.031 768.737C734.174 768.869 734.48 769.104 734.917 769.098L734.889 767.099ZM733.252 761.714C733.245 761.207 733.385 760.99 733.522 760.873C733.693 760.726 734.059 760.562 734.799 760.552L734.771 758.552C733.802 758.566 732.892 758.777 732.219 759.356C731.511 759.963 731.239 760.822 731.252 761.742L733.252 761.714ZM766.402 753.13L767.328 753.508L767.405 753.32L767.402 753.116L766.402 753.13ZM764.713 755.294L764.727 756.294L764.831 756.293L764.933 756.27L764.713 755.294ZM753.581 753.745L752.581 753.759L752.585 754.042L752.737 754.28L753.581 753.745ZM764.54 773.252L765.49 773.562L765.542 773.404L765.539 773.238L764.54 773.252ZM758.83 762.642L757.863 762.388L757.828 762.52L757.83 762.656L758.83 762.642ZM756.538 751.704L763.381 751.609L763.353 749.609L756.51 749.704L756.538 751.704ZM763.381 751.609C764.262 751.597 764.739 751.782 764.987 751.988C765.204 752.169 765.393 752.489 765.402 753.144L767.402 753.116C767.387 752.063 767.059 751.109 766.264 750.45C765.501 749.815 764.472 749.594 763.353 749.609L763.381 751.609ZM765.476 752.753C765.227 753.363 764.994 753.778 764.791 754.038C764.582 754.305 764.474 754.323 764.494 754.319L764.933 756.27C765.544 756.132 766.013 755.723 766.368 755.269C766.728 754.807 767.043 754.207 767.328 753.508L765.476 752.753ZM764.699 754.294L755.294 754.425L755.322 756.424L764.727 756.294L764.699 754.294ZM755.294 754.425C755.49 754.422 755.487 754.527 755.245 754.292C755.038 754.091 754.764 753.744 754.426 753.21L752.737 754.28C753.112 754.872 753.482 755.368 753.851 755.726C754.185 756.051 754.689 756.433 755.322 756.424L755.294 754.425ZM754.581 753.731C754.569 752.884 754.773 752.43 755.015 752.18C755.255 751.932 755.698 751.716 756.538 751.704L756.51 749.704C755.36 749.72 754.318 750.024 753.578 750.79C752.838 751.554 752.565 752.606 752.581 753.759L754.581 753.731ZM761.814 761.46C761.814 761.46 761.811 761.46 761.807 761.459C761.805 761.458 761.813 761.46 761.833 761.474C761.876 761.504 761.965 761.585 762.081 761.772C762.32 762.158 762.569 762.825 762.788 763.85C763.223 765.882 763.481 769.006 763.54 773.265L765.539 773.238C765.48 768.946 765.222 765.662 764.744 763.431C764.507 762.324 764.199 761.395 763.783 760.72C763.363 760.041 762.711 759.447 761.786 759.46L761.814 761.46ZM763.589 772.942C763.319 773.769 763.071 774.317 762.861 774.64C762.616 775.015 762.591 774.841 762.843 774.838L762.87 776.837C763.684 776.826 764.221 776.217 764.537 775.731C764.888 775.191 765.2 774.45 765.49 773.562L763.589 772.942ZM762.843 774.838L761.14 774.861L761.167 776.861L762.87 776.837L762.843 774.838ZM761.14 774.861C761.39 774.858 761.333 775.064 761.099 774.598C760.89 774.18 760.675 773.469 760.487 772.398C760.114 770.276 759.891 767.032 759.83 762.628L757.83 762.656C757.891 767.085 758.116 770.46 758.517 772.744C758.716 773.877 758.971 774.815 759.312 775.495C759.628 776.125 760.204 776.874 761.167 776.861L761.14 774.861ZM759.797 762.896C759.939 762.354 760.172 762.03 760.446 761.828C760.729 761.621 761.157 761.469 761.814 761.46L761.786 759.46C760.839 759.473 759.97 759.697 759.262 760.216C758.547 760.742 758.096 761.498 757.863 762.388L759.797 762.896Z" fill="white"/>
</g>
<defs>
<filter id="filter0_d_1225_40617" x="446.912" y="416.758" width="336.587" height="281.428" filterUnits="userSpaceOnUse" color-interpolation-filters="sRGB">
<feFlood flood-opacity="0" result="BackgroundImageFix"/>
<feColorMatrix in="SourceAlpha" type="matrix" values="0 0 0 0 0 0 0 0 0 0 0 0 0 0 0 0 0 0 127 0" result="hardAlpha"/>
<feOffset dx="3" dy="3"/>
<feGaussianBlur stdDeviation="1.5"/>
<feComposite in2="hardAlpha" operator="out"/>
<feColorMatrix type="matrix" values="0 0 0 0 0 0 0 0 0 0 0 0 0 0 0 0 0 0 0.25 0"/>
<feBlend mode="normal" in2="BackgroundImageFix" result="effect1_dropShadow_1225_40617"/>
<feBlend mode="normal" in="SourceGraphic" in2="effect1_dropShadow_1225_40617" result="shape"/>
</filter>
<filter id="filter1_d_1225_40617" x="166" y="337" width="474" height="394" filterUnits="userSpaceOnUse" color-interpolation-filters="sRGB">
<feFlood flood-opacity="0" result="BackgroundImageFix"/>
<feColorMatrix in="SourceAlpha" type="matrix" values="0 0 0 0 0 0 0 0 0 0 0 0 0 0 0 0 0 0 127 0" result="hardAlpha"/>
<feOffset dx="2" dy="4"/>
<feGaussianBlur stdDeviation="2"/>
<feComposite in2="hardAlpha" operator="out"/>
<feColorMatrix type="matrix" values="0 0 0 0 0 0 0 0 0 0 0 0 0 0 0 0 0 0 0.25 0"/>
<feBlend mode="normal" in2="BackgroundImageFix" result="effect1_dropShadow_1225_40617"/>
<feBlend mode="normal" in="SourceGraphic" in2="effect1_dropShadow_1225_40617" result="shape"/>
</filter>
<filter id="filter2_d_1225_40617" x="130.474" y="83" width="210.338" height="178" filterUnits="userSpaceOnUse" color-interpolation-filters="sRGB">
<feFlood flood-opacity="0" result="BackgroundImageFix"/>
<feColorMatrix in="SourceAlpha" type="matrix" values="0 0 0 0 0 0 0 0 0 0 0 0 0 0 0 0 0 0 127 0" result="hardAlpha"/>
<feOffset dx="5" dy="5"/>
<feGaussianBlur stdDeviation="4"/>
<feComposite in2="hardAlpha" operator="out"/>
<feColorMatrix type="matrix" values="0 0 0 0 0 0 0 0 0 0 0 0 0 0 0 0 0 0 0.25 0"/>
<feBlend mode="normal" in2="BackgroundImageFix" result="effect1_dropShadow_1225_40617"/>
<feBlend mode="normal" in="SourceGraphic" in2="effect1_dropShadow_1225_40617" result="shape"/>
</filter>
<filter id="filter3_d_1225_40617" x="186.636" y="86" width="27.018" height="39.0014" filterUnits="userSpaceOnUse" color-interpolation-filters="sRGB">
<feFlood flood-opacity="0" result="BackgroundImageFix"/>
<feColorMatrix in="SourceAlpha" type="matrix" values="0 0 0 0 0 0 0 0 0 0 0 0 0 0 0 0 0 0 127 0" result="hardAlpha"/>
<feOffset dy="2.16086"/>
<feGaussianBlur stdDeviation="1.08043"/>
<feComposite in2="hardAlpha" operator="out"/>
<feColorMatrix type="matrix" values="0 0 0 0 0 0 0 0 0 0 0 0 0 0 0 0 0 0 0.25 0"/>
<feBlend mode="normal" in2="BackgroundImageFix" result="effect1_dropShadow_1225_40617"/>
<feBlend mode="normal" in="SourceGraphic" in2="effect1_dropShadow_1225_40617" result="shape"/>
</filter>
<filter id="filter4_d_1225_40617" x="249.997" y="86" width="27.018" height="39.0014" filterUnits="userSpaceOnUse" color-interpolation-filters="sRGB">
<feFlood flood-opacity="0" result="BackgroundImageFix"/>
<feColorMatrix in="SourceAlpha" type="matrix" values="0 0 0 0 0 0 0 0 0 0 0 0 0 0 0 0 0 0 127 0" result="hardAlpha"/>
<feOffset dy="2.16086"/>
<feGaussianBlur stdDeviation="1.08043"/>
<feComposite in2="hardAlpha" operator="out"/>
<feColorMatrix type="matrix" values="0 0 0 0 0 0 0 0 0 0 0 0 0 0 0 0 0 0 0.25 0"/>
<feBlend mode="normal" in2="BackgroundImageFix" result="effect1_dropShadow_1225_40617"/>
<feBlend mode="normal" in="SourceGraphic" in2="effect1_dropShadow_1225_40617" result="shape"/>
</filter>
<filter id="filter5_d_1225_40617" x="253.779" y="92.9375" width="18.5068" height="26.1206" filterUnits="userSpaceOnUse" color-interpolation-filters="sRGB">
<feFlood flood-opacity="0" result="BackgroundImageFix"/>
<feColorMatrix in="SourceAlpha" type="matrix" values="0 0 0 0 0 0 0 0 0 0 0 0 0 0 0 0 0 0 127 0" result="hardAlpha"/>
<feOffset dy="2.16086"/>
<feGaussianBlur stdDeviation="1.08043"/>
<feComposite in2="hardAlpha" operator="out"/>
<feColorMatrix type="matrix" values="0 0 0 0 0 0 0 0 0 0 0 0 0 0 0 0 0 0 0.25 0"/>
<feBlend mode="normal" in2="BackgroundImageFix" result="effect1_dropShadow_1225_40617"/>
<feBlend mode="normal" in="SourceGraphic" in2="effect1_dropShadow_1225_40617" result="shape"/>
</filter>
<filter id="filter6_d_1225_40617" x="191.364" y="92.9375" width="18.5068" height="26.1206" filterUnits="userSpaceOnUse" color-interpolation-filters="sRGB">
<feFlood flood-opacity="0" result="BackgroundImageFix"/>
<feColorMatrix in="SourceAlpha" type="matrix" values="0 0 0 0 0 0 0 0 0 0 0 0 0 0 0 0 0 0 127 0" result="hardAlpha"/>
<feOffset dy="2.16086"/>
<feGaussianBlur stdDeviation="1.08043"/>
<feComposite in2="hardAlpha" operator="out"/>
<feColorMatrix type="matrix" values="0 0 0 0 0 0 0 0 0 0 0 0 0 0 0 0 0 0 0.25 0"/>
<feBlend mode="normal" in2="BackgroundImageFix" result="effect1_dropShadow_1225_40617"/>
<feBlend mode="normal" in="SourceGraphic" in2="effect1_dropShadow_1225_40617" result="shape"/>
</filter>
<filter id="filter7_d_1225_40617" x="131.313" y="99.8691" width="198.66" height="152.453" filterUnits="userSpaceOnUse" color-interpolation-filters="sRGB">
<feFlood flood-opacity="0" result="BackgroundImageFix"/>
<feColorMatrix in="SourceAlpha" type="matrix" values="0 0 0 0 0 0 0 0 0 0 0 0 0 0 0 0 0 0 127 0" result="hardAlpha"/>
<feOffset dy="2.16086"/>
<feGaussianBlur stdDeviation="1.08043"/>
<feComposite in2="hardAlpha" operator="out"/>
<feColorMatrix type="matrix" values="0 0 0 0 0 0 0 0 0 0 0 0 0 0 0 0 0 0 0.25 0"/>
<feBlend mode="normal" in2="BackgroundImageFix" result="effect1_dropShadow_1225_40617"/>
<feBlend mode="normal" in="SourceGraphic" in2="effect1_dropShadow_1225_40617" result="shape"/>
</filter>
<filter id="filter8_f_1225_40617" x="136.453" y="159.511" width="68.7505" height="69.9692" filterUnits="userSpaceOnUse" color-interpolation-filters="sRGB">
<feFlood flood-opacity="0" result="BackgroundImageFix"/>
<feBlend mode="normal" in="SourceGraphic" in2="BackgroundImageFix" result="shape"/>
<feGaussianBlur stdDeviation="10.8043" result="effect1_foregroundBlur_1225_40617"/>
</filter>
<filter id="filter9_f_1225_40617" x="257.028" y="159.511" width="68.7505" height="69.9692" filterUnits="userSpaceOnUse" color-interpolation-filters="sRGB">
<feFlood flood-opacity="0" result="BackgroundImageFix"/>
<feBlend mode="normal" in="SourceGraphic" in2="BackgroundImageFix" result="shape"/>
<feGaussianBlur stdDeviation="10.8043" result="effect1_foregroundBlur_1225_40617"/>
</filter>
<filter id="filter10_f_1225_40617" x="205.491" y="155" width="9.40625" height="12.4453" filterUnits="userSpaceOnUse" color-interpolation-filters="sRGB">
<feFlood flood-opacity="0" result="BackgroundImageFix"/>
<feBlend mode="normal" in="SourceGraphic" in2="BackgroundImageFix" result="shape"/>
<feGaussianBlur stdDeviation="0.5" result="effect1_foregroundBlur_1225_40617"/>
</filter>
<filter id="filter11_f_1225_40617" x="250.491" y="155.002" width="9.40625" height="12.4453" filterUnits="userSpaceOnUse" color-interpolation-filters="sRGB">
<feFlood flood-opacity="0" result="BackgroundImageFix"/>
<feBlend mode="normal" in="SourceGraphic" in2="BackgroundImageFix" result="shape"/>
<feGaussianBlur stdDeviation="0.5" result="effect1_foregroundBlur_1225_40617"/>
</filter>
<filter id="filter12_f_1225_40617" x="200.174" y="162.002" width="7.83057" height="10.2227" filterUnits="userSpaceOnUse" color-interpolation-filters="sRGB">
<feFlood flood-opacity="0" result="BackgroundImageFix"/>
<feBlend mode="normal" in="SourceGraphic" in2="BackgroundImageFix" result="shape"/>
<feGaussianBlur stdDeviation="0.5" result="effect1_foregroundBlur_1225_40617"/>
</filter>
<filter id="filter13_f_1225_40617" x="245.174" y="162.002" width="7.83057" height="10.2227" filterUnits="userSpaceOnUse" color-interpolation-filters="sRGB">
<feFlood flood-opacity="0" result="BackgroundImageFix"/>
<feBlend mode="normal" in="SourceGraphic" in2="BackgroundImageFix" result="shape"/>
<feGaussianBlur stdDeviation="0.5" result="effect1_foregroundBlur_1225_40617"/>
</filter>
<filter id="filter14_d_1225_40617" x="95.6025" y="406.814" width="124.208" height="192.266" filterUnits="userSpaceOnUse" color-interpolation-filters="sRGB">
<feFlood flood-opacity="0" result="BackgroundImageFix"/>
<feColorMatrix in="SourceAlpha" type="matrix" values="0 0 0 0 0 0 0 0 0 0 0 0 0 0 0 0 0 0 127 0" result="hardAlpha"/>
<feOffset dx="3" dy="3"/>
<feGaussianBlur stdDeviation="2"/>
<feComposite in2="hardAlpha" operator="out"/>
<feColorMatrix type="matrix" values="0 0 0 0 0 0 0 0 0 0 0 0 0 0 0 0 0 0 0.25 0"/>
<feBlend mode="normal" in2="BackgroundImageFix" result="effect1_dropShadow_1225_40617"/>
<feBlend mode="normal" in="SourceGraphic" in2="effect1_dropShadow_1225_40617" result="shape"/>
</filter>
<filter id="filter15_d_1225_40617" x="574.189" y="402.814" width="124.208" height="192.266" filterUnits="userSpaceOnUse" color-interpolation-filters="sRGB">
<feFlood flood-opacity="0" result="BackgroundImageFix"/>
<feColorMatrix in="SourceAlpha" type="matrix" values="0 0 0 0 0 0 0 0 0 0 0 0 0 0 0 0 0 0 127 0" result="hardAlpha"/>
<feOffset dx="-4" dy="4"/>
<feGaussianBlur stdDeviation="2"/>
<feComposite in2="hardAlpha" operator="out"/>
<feColorMatrix type="matrix" values="0 0 0 0 0 0 0 0 0 0 0 0 0 0 0 0 0 0 0.25 0"/>
<feBlend mode="normal" in2="BackgroundImageFix" result="effect1_dropShadow_1225_40617"/>
<feBlend mode="normal" in="SourceGraphic" in2="effect1_dropShadow_1225_40617" result="shape"/>
</filter>
<filter id="filter16_d_1225_40617" x="581.189" y="401.814" width="124.208" height="192.266" filterUnits="userSpaceOnUse" color-interpolation-filters="sRGB">
<feFlood flood-opacity="0" result="BackgroundImageFix"/>
<feColorMatrix in="SourceAlpha" type="matrix" values="0 0 0 0 0 0 0 0 0 0 0 0 0 0 0 0 0 0 127 0" result="hardAlpha"/>
<feOffset dx="3" dy="3"/>
<feGaussianBlur stdDeviation="2"/>
<feComposite in2="hardAlpha" operator="out"/>
<feColorMatrix type="matrix" values="0 0 0 0 0 0 0 0 0 0 0 0 0 0 0 0 0 0 0.25 0"/>
<feBlend mode="normal" in2="BackgroundImageFix" result="effect1_dropShadow_1225_40617"/>
<feBlend mode="normal" in="SourceGraphic" in2="effect1_dropShadow_1225_40617" result="shape"/>
</filter>
<filter id="filter17_f_1225_40617" x="379" y="111" width="160" height="159" filterUnits="userSpaceOnUse" color-interpolation-filters="sRGB">
<feFlood flood-opacity="0" result="BackgroundImageFix"/>
<feBlend mode="normal" in="SourceGraphic" in2="BackgroundImageFix" result="shape"/>
<feGaussianBlur stdDeviation="20" result="effect1_foregroundBlur_1225_40617"/>
</filter>
<filter id="filter18_f_1225_40617" x="431.997" y="155" width="52.7363" height="71.1094" filterUnits="userSpaceOnUse" color-interpolation-filters="sRGB">
<feFlood flood-opacity="0" result="BackgroundImageFix"/>
<feBlend mode="normal" in="SourceGraphic" in2="BackgroundImageFix" result="shape"/>
<feGaussianBlur stdDeviation="2" result="effect1_foregroundBlur_1225_40617"/>
</filter>
<filter id="filter19_f_1225_40617" x="547" y="6" width="160" height="159" filterUnits="userSpaceOnUse" color-interpolation-filters="sRGB">
<feFlood flood-opacity="0" result="BackgroundImageFix"/>
<feBlend mode="normal" in="SourceGraphic" in2="BackgroundImageFix" result="shape"/>
<feGaussianBlur stdDeviation="20" result="effect1_foregroundBlur_1225_40617"/>
</filter>
<filter id="filter20_f_1225_40617" x="599.997" y="50" width="52.7363" height="71.1094" filterUnits="userSpaceOnUse" color-interpolation-filters="sRGB">
<feFlood flood-opacity="0" result="BackgroundImageFix"/>
<feBlend mode="normal" in="SourceGraphic" in2="BackgroundImageFix" result="shape"/>
<feGaussianBlur stdDeviation="2" result="effect1_foregroundBlur_1225_40617"/>
</filter>
<filter id="filter21_f_1225_40617" x="594" y="285" width="135.696" height="135" filterUnits="userSpaceOnUse" color-interpolation-filters="sRGB">
<feFlood flood-opacity="0" result="BackgroundImageFix"/>
<feBlend mode="normal" in="SourceGraphic" in2="BackgroundImageFix" result="shape"/>
<feGaussianBlur stdDeviation="20" result="effect1_foregroundBlur_1225_40617"/>
</filter>
<filter id="filter22_f_1225_40617" x="641.833" y="326.568" width="39.146" height="51.9375" filterUnits="userSpaceOnUse" color-interpolation-filters="sRGB">
<feFlood flood-opacity="0" result="BackgroundImageFix"/>
<feBlend mode="normal" in="SourceGraphic" in2="BackgroundImageFix" result="shape"/>
<feGaussianBlur stdDeviation="2" result="effect1_foregroundBlur_1225_40617"/>
</filter>
<filter id="filter23_f_1225_40617" x="6.00146" y="-13" width="121.519" height="121" filterUnits="userSpaceOnUse" color-interpolation-filters="sRGB">
<feFlood flood-opacity="0" result="BackgroundImageFix"/>
<feBlend mode="normal" in="SourceGraphic" in2="BackgroundImageFix" result="shape"/>
<feGaussianBlur stdDeviation="20" result="effect1_foregroundBlur_1225_40617"/>
</filter>
<filter id="filter24_f_1225_40617" x="50.8223" y="27.1523" width="31.2178" height="40.75" filterUnits="userSpaceOnUse" color-interpolation-filters="sRGB">
<feFlood flood-opacity="0" result="BackgroundImageFix"/>
<feBlend mode="normal" in="SourceGraphic" in2="BackgroundImageFix" result="shape"/>
<feGaussianBlur stdDeviation="2" result="effect1_foregroundBlur_1225_40617"/>
</filter>
<filter id="filter25_f_1225_40617" x="682.001" y="208" width="121.519" height="121" filterUnits="userSpaceOnUse" color-interpolation-filters="sRGB">
<feFlood flood-opacity="0" result="BackgroundImageFix"/>
<feBlend mode="normal" in="SourceGraphic" in2="BackgroundImageFix" result="shape"/>
<feGaussianBlur stdDeviation="20" result="effect1_foregroundBlur_1225_40617"/>
</filter>
<filter id="filter26_f_1225_40617" x="726.822" y="248.152" width="31.2178" height="40.75" filterUnits="userSpaceOnUse" color-interpolation-filters="sRGB">
<feFlood flood-opacity="0" result="BackgroundImageFix"/>
<feBlend mode="normal" in="SourceGraphic" in2="BackgroundImageFix" result="shape"/>
<feGaussianBlur stdDeviation="2" result="effect1_foregroundBlur_1225_40617"/>
</filter>
<filter id="filter27_f_1225_40617" x="21.0015" y="300" width="135" height="134.312" filterUnits="userSpaceOnUse" color-interpolation-filters="sRGB">
<feFlood flood-opacity="0" result="BackgroundImageFix"/>
<feBlend mode="normal" in="SourceGraphic" in2="BackgroundImageFix" result="shape"/>
<feGaussianBlur stdDeviation="20" result="effect1_foregroundBlur_1225_40617"/>
</filter>
<filter id="filter28_f_1225_40617" x="68.6865" y="341.5" width="38.7563" height="51.3867" filterUnits="userSpaceOnUse" color-interpolation-filters="sRGB">
<feFlood flood-opacity="0" result="BackgroundImageFix"/>
<feBlend mode="normal" in="SourceGraphic" in2="BackgroundImageFix" result="shape"/>
<feGaussianBlur stdDeviation="2" result="effect1_foregroundBlur_1225_40617"/>
</filter>
</defs>
</svg>
