<svg width="560" height="512" viewBox="0 0 560 512" fill="none" xmlns="http://www.w3.org/2000/svg">
<path d="M0 16C0 7.16344 7.16344 0 16 0H544C552.837 0 560 7.16344 560 16V496C560 504.837 552.837 512 544 512H16C7.16344 512 0 504.837 0 496V16Z" fill="white"/>
<rect x="32" y="176" width="64" height="64" rx="32" fill="#D29763"/>
<path d="M54.25 475.375C55.7604 475.375 57.1042 475.094 58.2812 474.531C59.4583 473.958 60.3854 473.177 61.0625 472.188C61.7396 471.198 62.0781 470.078 62.0781 468.828V468.797C62.0781 467.193 61.5677 465.906 60.5469 464.938C59.5365 463.958 58.2083 463.401 56.5625 463.266V463.203C57.5 463.005 58.3281 462.667 59.0469 462.188C59.7656 461.708 60.3281 461.109 60.7344 460.391C61.1406 459.672 61.3438 458.849 61.3438 457.922V457.891C61.3438 456.745 61.0469 455.74 60.4531 454.875C59.8698 454 59.0417 453.318 57.9688 452.828C56.9062 452.328 55.6562 452.078 54.2188 452.078C52.8125 452.078 51.5677 452.333 50.4844 452.844C49.4115 453.354 48.5469 454.068 47.8906 454.984C47.2448 455.901 46.8594 456.974 46.7344 458.203L46.7188 458.359H49.4219L49.4375 458.203C49.5208 457.443 49.7708 456.786 50.1875 456.234C50.6042 455.682 51.1562 455.26 51.8438 454.969C52.5417 454.667 53.3333 454.516 54.2188 454.516C55.1354 454.516 55.9115 454.661 56.5469 454.953C57.1927 455.245 57.6823 455.667 58.0156 456.219C58.349 456.771 58.5156 457.443 58.5156 458.234V458.266C58.5156 459.016 58.3229 459.688 57.9375 460.281C57.5521 460.865 57.0156 461.328 56.3281 461.672C55.6406 462.005 54.849 462.172 53.9531 462.172H51.25V464.547H54.0781C55.6615 464.547 56.9115 464.922 57.8281 465.672C58.7552 466.411 59.2188 467.474 59.2188 468.859V468.891C59.2188 469.682 59.0104 470.385 58.5938 471C58.1771 471.604 57.5938 472.078 56.8438 472.422C56.1042 472.766 55.2396 472.938 54.25 472.938C53.25 472.938 52.3698 472.781 51.6094 472.469C50.849 472.146 50.2396 471.703 49.7812 471.141C49.3333 470.578 49.0677 469.927 48.9844 469.188L48.9688 469.031H46.2656L46.2812 469.219C46.3854 470.406 46.7708 471.464 47.4375 472.391C48.1146 473.318 49.0312 474.047 50.1875 474.578C51.3438 475.109 52.6979 475.375 54.25 475.375ZM73.4531 475.375C75.1823 475.375 76.6667 474.901 77.9062 473.953C79.1458 473.005 80.0938 471.661 80.75 469.922C81.4167 468.182 81.75 466.12 81.75 463.734V463.703C81.75 461.318 81.4167 459.255 80.75 457.516C80.0938 455.776 79.1458 454.438 77.9062 453.5C76.6667 452.552 75.1823 452.078 73.4531 452.078C71.724 452.078 70.2396 452.552 69 453.5C67.7708 454.438 66.8281 455.776 66.1719 457.516C65.5156 459.255 65.1875 461.318 65.1875 463.703V463.734C65.1875 466.12 65.5156 468.182 66.1719 469.922C66.8281 471.661 67.7708 473.005 69 473.953C70.2396 474.901 71.724 475.375 73.4531 475.375ZM73.4531 472.922C72.3073 472.922 71.3281 472.552 70.5156 471.812C69.7031 471.062 69.0833 470 68.6562 468.625C68.2292 467.25 68.0156 465.62 68.0156 463.734V463.703C68.0156 461.818 68.2292 460.193 68.6562 458.828C69.0833 457.453 69.7031 456.396 70.5156 455.656C71.3281 454.917 72.3073 454.547 73.4531 454.547C74.599 454.547 75.5781 454.917 76.3906 455.656C77.2135 456.396 77.8385 457.453 78.2656 458.828C78.7031 460.193 78.9219 461.818 78.9219 463.703V463.734C78.9219 465.62 78.7031 467.25 78.2656 468.625C77.8385 470 77.2135 471.062 76.3906 471.812C75.5781 472.552 74.599 472.922 73.4531 472.922Z" fill="black"/>
<path d="M47.2969 411H62.1719V408.5H50.3281L51.1562 409.281V407.547L50.3281 409.281L56.5156 402.938C57.901 401.521 58.974 400.333 59.7344 399.375C60.4948 398.406 61.026 397.536 61.3281 396.766C61.6406 395.995 61.7969 395.198 61.7969 394.375V394.344C61.7969 393.167 61.4896 392.104 60.875 391.156C60.2708 390.208 59.4375 389.458 58.375 388.906C57.3125 388.354 56.099 388.078 54.7344 388.078C53.3385 388.078 52.0625 388.375 50.9062 388.969C49.7604 389.552 48.849 390.359 48.1719 391.391C47.4948 392.411 47.1562 393.573 47.1562 394.875V394.969H49.875V394.891C49.875 394.078 50.0885 393.344 50.5156 392.688C50.9427 392.031 51.526 391.51 52.2656 391.125C53.0052 390.729 53.8438 390.531 54.7812 390.531C55.6042 390.531 56.3281 390.703 56.9531 391.047C57.5885 391.38 58.0833 391.844 58.4375 392.438C58.8021 393.031 58.9844 393.714 58.9844 394.484V394.516C58.9844 395.141 58.8802 395.729 58.6719 396.281C58.474 396.833 58.1042 397.458 57.5625 398.156C57.0312 398.844 56.2552 399.719 55.2344 400.781L47.2969 409.062V411ZM73.0156 411.375C74.526 411.375 75.8698 411.094 77.0469 410.531C78.224 409.958 79.151 409.177 79.8281 408.188C80.5052 407.198 80.8438 406.078 80.8438 404.828V404.797C80.8438 403.193 80.3333 401.906 79.3125 400.938C78.3021 399.958 76.974 399.401 75.3281 399.266V399.203C76.2656 399.005 77.0938 398.667 77.8125 398.188C78.5312 397.708 79.0938 397.109 79.5 396.391C79.9062 395.672 80.1094 394.849 80.1094 393.922V393.891C80.1094 392.745 79.8125 391.74 79.2188 390.875C78.6354 390 77.8073 389.318 76.7344 388.828C75.6719 388.328 74.4219 388.078 72.9844 388.078C71.5781 388.078 70.3333 388.333 69.25 388.844C68.1771 389.354 67.3125 390.068 66.6562 390.984C66.0104 391.901 65.625 392.974 65.5 394.203L65.4844 394.359H68.1875L68.2031 394.203C68.2865 393.443 68.5365 392.786 68.9531 392.234C69.3698 391.682 69.9219 391.26 70.6094 390.969C71.3073 390.667 72.099 390.516 72.9844 390.516C73.901 390.516 74.6771 390.661 75.3125 390.953C75.9583 391.245 76.4479 391.667 76.7812 392.219C77.1146 392.771 77.2812 393.443 77.2812 394.234V394.266C77.2812 395.016 77.0885 395.688 76.7031 396.281C76.3177 396.865 75.7812 397.328 75.0938 397.672C74.4062 398.005 73.6146 398.172 72.7188 398.172H70.0156V400.547H72.8438C74.4271 400.547 75.6771 400.922 76.5938 401.672C77.5208 402.411 77.9844 403.474 77.9844 404.859V404.891C77.9844 405.682 77.776 406.385 77.3594 407C76.9427 407.604 76.3594 408.078 75.6094 408.422C74.8698 408.766 74.0052 408.938 73.0156 408.938C72.0156 408.938 71.1354 408.781 70.375 408.469C69.6146 408.146 69.0052 407.703 68.5469 407.141C68.099 406.578 67.8333 405.927 67.75 405.188L67.7344 405.031H65.0312L65.0469 405.219C65.151 406.406 65.5365 407.464 66.2031 408.391C66.8802 409.318 67.7969 410.047 68.9531 410.578C70.1094 411.109 71.4635 411.375 73.0156 411.375Z" fill="black"/>
<path d="M54.6094 347H57.3281V324.453H54.5781L48.5781 328.766V331.594L54.5469 327.438H54.6094V347ZM71.2031 347.375C72.7448 347.375 74.1146 347.047 75.3125 346.391C76.5104 345.724 77.4531 344.818 78.1406 343.672C78.8385 342.516 79.1875 341.198 79.1875 339.719V339.688C79.1875 338.26 78.8594 336.984 78.2031 335.859C77.5573 334.734 76.6719 333.849 75.5469 333.203C74.4219 332.557 73.1406 332.234 71.7031 332.234C70.6823 332.234 69.7552 332.401 68.9219 332.734C68.0885 333.057 67.3698 333.495 66.7656 334.047C66.1719 334.589 65.724 335.193 65.4219 335.859H65.0938V339.688H66.0312V339.672C66.0312 338.714 66.2552 337.859 66.7031 337.109C67.1615 336.359 67.7812 335.771 68.5625 335.344C69.3542 334.917 70.2396 334.703 71.2188 334.703C72.2083 334.703 73.0885 334.922 73.8594 335.359C74.6302 335.786 75.2344 336.38 75.6719 337.141C76.1094 337.901 76.3281 338.771 76.3281 339.75V339.781C76.3281 340.729 76.099 341.589 75.6406 342.359C75.1823 343.13 74.5625 343.745 73.7812 344.203C73 344.651 72.1302 344.875 71.1719 344.875C70.2135 344.875 69.3438 344.646 68.5625 344.188C67.7812 343.719 67.1615 343.094 66.7031 342.312C66.2552 341.521 66.0312 340.646 66.0312 339.688L65.3594 335.984C65.3594 335.88 65.3594 335.781 65.3594 335.688C65.3594 335.583 65.3646 335.479 65.375 335.375C65.4167 333.792 65.6406 332.333 66.0469 331C66.4635 329.667 67.1042 328.594 67.9688 327.781C68.8333 326.969 69.9635 326.562 71.3594 326.562C72.1302 326.562 72.8177 326.688 73.4219 326.938C74.0365 327.177 74.5573 327.521 74.9844 327.969C75.4115 328.417 75.7344 328.953 75.9531 329.578L76.0156 329.75H78.875L78.8281 329.547C78.5781 328.453 78.1094 327.495 77.4219 326.672C76.7344 325.849 75.875 325.214 74.8438 324.766C73.8229 324.307 72.6719 324.078 71.3906 324.078C69.5573 324.078 67.9844 324.552 66.6719 325.5C65.3698 326.448 64.3698 327.823 63.6719 329.625C62.9844 331.417 62.6406 333.578 62.6406 336.109V336.141C62.6406 338.234 62.8854 340 63.375 341.438C63.875 342.865 64.5365 344.016 65.3594 344.891C66.1927 345.766 67.1146 346.401 68.125 346.797C69.1354 347.182 70.1615 347.375 71.2031 347.375Z" fill="black"/>
<path d="M63.8906 260.078C62.349 260.078 60.9792 260.411 59.7812 261.078C58.5833 261.734 57.6354 262.641 56.9375 263.797C56.25 264.943 55.9062 266.255 55.9062 267.734V267.766C55.9062 269.193 56.2292 270.469 56.875 271.594C57.5312 272.719 58.4219 273.604 59.5469 274.25C60.6823 274.896 61.9635 275.219 63.3906 275.219C64.4115 275.219 65.3385 275.057 66.1719 274.734C67.0156 274.401 67.7344 273.964 68.3281 273.422C68.9219 272.87 69.3698 272.26 69.6719 271.594H70V267.766H69.0625V267.781C69.0625 268.74 68.8333 269.594 68.375 270.344C67.9271 271.094 67.3125 271.682 66.5312 272.109C65.75 272.536 64.8646 272.75 63.875 272.75C62.8854 272.75 62.0052 272.536 61.2344 272.109C60.4635 271.672 59.8594 271.073 59.4219 270.312C58.9844 269.552 58.7656 268.682 58.7656 267.703V267.672C58.7656 266.724 58.9948 265.865 59.4531 265.094C59.9115 264.323 60.5312 263.714 61.3125 263.266C62.0938 262.807 62.9635 262.578 63.9219 262.578C64.8906 262.578 65.7604 262.812 66.5312 263.281C67.3125 263.74 67.9271 264.359 68.375 265.141C68.8333 265.922 69.0625 266.797 69.0625 267.766L69.7344 271.469C69.7344 271.573 69.7344 271.677 69.7344 271.781C69.7344 271.875 69.7292 271.974 69.7188 272.078C69.6771 273.651 69.4479 275.109 69.0312 276.453C68.625 277.786 67.9896 278.859 67.125 279.672C66.2708 280.484 65.1406 280.891 63.7344 280.891C62.9635 280.891 62.2708 280.771 61.6562 280.531C61.0521 280.281 60.5365 279.932 60.1094 279.484C59.6927 279.026 59.3698 278.49 59.1406 277.875L59.0781 277.703H56.2188L56.2656 277.906C56.5156 279 56.9844 279.958 57.6719 280.781C58.3594 281.594 59.2188 282.229 60.25 282.688C61.2812 283.146 62.4323 283.375 63.7031 283.375C65.5469 283.375 67.1198 282.901 68.4219 281.953C69.724 281.005 70.7188 279.635 71.4062 277.844C72.1042 276.042 72.4531 273.875 72.4531 271.344V271.312C72.4531 269.219 72.2031 267.458 71.7031 266.031C71.2135 264.594 70.5521 263.438 69.7188 262.562C68.8958 261.688 67.9792 261.057 66.9688 260.672C65.9583 260.276 64.9323 260.078 63.8906 260.078Z" fill="black"/>
<path d="M45.8281 155H60.7031V152.5H48.8594L49.6875 153.281V151.547L48.8594 153.281L55.0469 146.938C56.4323 145.521 57.5052 144.333 58.2656 143.375C59.026 142.406 59.5573 141.536 59.8594 140.766C60.1719 139.995 60.3281 139.198 60.3281 138.375V138.344C60.3281 137.167 60.0208 136.104 59.4062 135.156C58.8021 134.208 57.9688 133.458 56.9062 132.906C55.8438 132.354 54.6302 132.078 53.2656 132.078C51.8698 132.078 50.5938 132.375 49.4375 132.969C48.2917 133.552 47.3802 134.359 46.7031 135.391C46.026 136.411 45.6875 137.573 45.6875 138.875V138.969H48.4062V138.891C48.4062 138.078 48.6198 137.344 49.0469 136.688C49.474 136.031 50.0573 135.51 50.7969 135.125C51.5365 134.729 52.375 134.531 53.3125 134.531C54.1354 134.531 54.8594 134.703 55.4844 135.047C56.1198 135.38 56.6146 135.844 56.9688 136.438C57.3333 137.031 57.5156 137.714 57.5156 138.484V138.516C57.5156 139.141 57.4115 139.729 57.2031 140.281C57.0052 140.833 56.6354 141.458 56.0938 142.156C55.5625 142.844 54.7865 143.719 53.7656 144.781L45.8281 153.062V155ZM72.1094 155.375C73.651 155.375 75.0208 155.047 76.2188 154.391C77.4167 153.724 78.3594 152.818 79.0469 151.672C79.7448 150.516 80.0938 149.198 80.0938 147.719V147.688C80.0938 146.26 79.7656 144.984 79.1094 143.859C78.4635 142.734 77.5781 141.849 76.4531 141.203C75.3281 140.557 74.0469 140.234 72.6094 140.234C71.5885 140.234 70.6615 140.401 69.8281 140.734C68.9948 141.057 68.276 141.495 67.6719 142.047C67.0781 142.589 66.6302 143.193 66.3281 143.859H66V147.688H66.9375V147.672C66.9375 146.714 67.1615 145.859 67.6094 145.109C68.0677 144.359 68.6875 143.771 69.4688 143.344C70.2604 142.917 71.1458 142.703 72.125 142.703C73.1146 142.703 73.9948 142.922 74.7656 143.359C75.5365 143.786 76.1406 144.38 76.5781 145.141C77.0156 145.901 77.2344 146.771 77.2344 147.75V147.781C77.2344 148.729 77.0052 149.589 76.5469 150.359C76.0885 151.13 75.4688 151.745 74.6875 152.203C73.9062 152.651 73.0365 152.875 72.0781 152.875C71.1198 152.875 70.25 152.646 69.4688 152.188C68.6875 151.719 68.0677 151.094 67.6094 150.312C67.1615 149.521 66.9375 148.646 66.9375 147.688L66.2656 143.984C66.2656 143.88 66.2656 143.781 66.2656 143.688C66.2656 143.583 66.2708 143.479 66.2812 143.375C66.3229 141.792 66.5469 140.333 66.9531 139C67.3698 137.667 68.0104 136.594 68.875 135.781C69.7396 134.969 70.8698 134.562 72.2656 134.562C73.0365 134.562 73.724 134.688 74.3281 134.938C74.9427 135.177 75.4635 135.521 75.8906 135.969C76.3177 136.417 76.6406 136.953 76.8594 137.578L76.9219 137.75H79.7812L79.7344 137.547C79.4844 136.453 79.0156 135.495 78.3281 134.672C77.6406 133.849 76.7812 133.214 75.75 132.766C74.7292 132.307 73.5781 132.078 72.2969 132.078C70.4635 132.078 68.8906 132.552 67.5781 133.5C66.276 134.448 65.276 135.823 64.5781 137.625C63.8906 139.417 63.5469 141.578 63.5469 144.109V144.141C63.5469 146.234 63.7917 148 64.2812 149.438C64.7812 150.865 65.4427 152.016 66.2656 152.891C67.099 153.766 68.0208 154.401 69.0312 154.797C70.0417 155.182 71.0677 155.375 72.1094 155.375Z" fill="#E5E5E5"/>
<path d="M56.7656 219H71.6406V216.5H59.7969L60.625 217.281V215.547L59.7969 217.281L65.9844 210.938C67.3698 209.521 68.4427 208.333 69.2031 207.375C69.9635 206.406 70.4948 205.536 70.7969 204.766C71.1094 203.995 71.2656 203.198 71.2656 202.375V202.344C71.2656 201.167 70.9583 200.104 70.3438 199.156C69.7396 198.208 68.9062 197.458 67.8438 196.906C66.7812 196.354 65.5677 196.078 64.2031 196.078C62.8073 196.078 61.5312 196.375 60.375 196.969C59.2292 197.552 58.3177 198.359 57.6406 199.391C56.9635 200.411 56.625 201.573 56.625 202.875V202.969H59.3438V202.891C59.3438 202.078 59.5573 201.344 59.9844 200.688C60.4115 200.031 60.9948 199.51 61.7344 199.125C62.474 198.729 63.3125 198.531 64.25 198.531C65.0729 198.531 65.7969 198.703 66.4219 199.047C67.0573 199.38 67.5521 199.844 67.9062 200.438C68.2708 201.031 68.4531 201.714 68.4531 202.484V202.516C68.4531 203.141 68.349 203.729 68.1406 204.281C67.9427 204.833 67.5729 205.458 67.0312 206.156C66.5 206.844 65.724 207.719 64.7031 208.781L56.7656 217.062V219Z" fill="black"/>
<path d="M136.484 475H139.203V452.453H136.453L130.453 456.766V459.594L136.422 455.438H136.484V475Z" fill="#E5E5E5"/>
<path d="M119.484 411H134.359V408.5H122.516L123.344 409.281V407.547L122.516 409.281L128.703 402.938C130.089 401.521 131.161 400.333 131.922 399.375C132.682 398.406 133.214 397.536 133.516 396.766C133.828 395.995 133.984 395.198 133.984 394.375V394.344C133.984 393.167 133.677 392.104 133.062 391.156C132.458 390.208 131.625 389.458 130.562 388.906C129.5 388.354 128.286 388.078 126.922 388.078C125.526 388.078 124.25 388.375 123.094 388.969C121.948 389.552 121.036 390.359 120.359 391.391C119.682 392.411 119.344 393.573 119.344 394.875V394.969H122.062V394.891C122.062 394.078 122.276 393.344 122.703 392.688C123.13 392.031 123.714 391.51 124.453 391.125C125.193 390.729 126.031 390.531 126.969 390.531C127.792 390.531 128.516 390.703 129.141 391.047C129.776 391.38 130.271 391.844 130.625 392.438C130.99 393.031 131.172 393.714 131.172 394.484V394.516C131.172 395.141 131.068 395.729 130.859 396.281C130.661 396.833 130.292 397.458 129.75 398.156C129.219 398.844 128.443 399.719 127.422 400.781L119.484 409.062V411ZM147.547 411H150.266V406.312H153.453V403.844H150.266V388.453H146.109C145.453 389.474 144.792 390.495 144.125 391.516C143.469 392.536 142.812 393.557 142.156 394.578C141.5 395.599 140.839 396.62 140.172 397.641C139.516 398.661 138.854 399.682 138.188 400.703C137.531 401.724 136.875 402.745 136.219 403.766V406.312H147.547V411ZM139 403.844V403.781C139.562 402.917 140.125 402.057 140.688 401.203C141.25 400.339 141.812 399.474 142.375 398.609C142.948 397.745 143.516 396.885 144.078 396.031C144.641 395.167 145.203 394.307 145.766 393.453C146.328 392.589 146.891 391.724 147.453 390.859H147.547V403.844H139Z" fill="black"/>
<path d="M127.734 347H130.453V324.453H127.703L121.703 328.766V331.594L127.672 327.438H127.734V347ZM137.469 347H140.422L150.453 327.062V324.453H135.531V326.953H147.672V327.016L137.469 347Z" fill="black"/>
<path d="M126.781 283H129.5V260.453H126.75L120.75 264.766V267.594L126.719 263.438H126.781V283ZM143.078 283.375C144.807 283.375 146.292 282.901 147.531 281.953C148.771 281.005 149.719 279.661 150.375 277.922C151.042 276.182 151.375 274.12 151.375 271.734V271.703C151.375 269.318 151.042 267.255 150.375 265.516C149.719 263.776 148.771 262.438 147.531 261.5C146.292 260.552 144.807 260.078 143.078 260.078C141.349 260.078 139.865 260.552 138.625 261.5C137.396 262.438 136.453 263.776 135.797 265.516C135.141 267.255 134.812 269.318 134.812 271.703V271.734C134.812 274.12 135.141 276.182 135.797 277.922C136.453 279.661 137.396 281.005 138.625 281.953C139.865 282.901 141.349 283.375 143.078 283.375ZM143.078 280.922C141.932 280.922 140.953 280.552 140.141 279.812C139.328 279.062 138.708 278 138.281 276.625C137.854 275.25 137.641 273.62 137.641 271.734V271.703C137.641 269.818 137.854 268.193 138.281 266.828C138.708 265.453 139.328 264.396 140.141 263.656C140.953 262.917 141.932 262.547 143.078 262.547C144.224 262.547 145.203 262.917 146.016 263.656C146.839 264.396 147.464 265.453 147.891 266.828C148.328 268.193 148.547 269.818 148.547 271.703V271.734C148.547 273.62 148.328 275.25 147.891 276.625C147.464 278 146.839 279.062 146.016 279.812C145.203 280.552 144.224 280.922 143.078 280.922Z" fill="black"/>
<path d="M117.828 155H132.703V152.5H120.859L121.688 153.281V151.547L120.859 153.281L127.047 146.938C128.432 145.521 129.505 144.333 130.266 143.375C131.026 142.406 131.557 141.536 131.859 140.766C132.172 139.995 132.328 139.198 132.328 138.375V138.344C132.328 137.167 132.021 136.104 131.406 135.156C130.802 134.208 129.969 133.458 128.906 132.906C127.844 132.354 126.63 132.078 125.266 132.078C123.87 132.078 122.594 132.375 121.438 132.969C120.292 133.552 119.38 134.359 118.703 135.391C118.026 136.411 117.688 137.573 117.688 138.875V138.969H120.406V138.891C120.406 138.078 120.62 137.344 121.047 136.688C121.474 136.031 122.057 135.51 122.797 135.125C123.536 134.729 124.375 134.531 125.312 134.531C126.135 134.531 126.859 134.703 127.484 135.047C128.12 135.38 128.615 135.844 128.969 136.438C129.333 137.031 129.516 137.714 129.516 138.484V138.516C129.516 139.141 129.411 139.729 129.203 140.281C129.005 140.833 128.635 141.458 128.094 142.156C127.562 142.844 126.786 143.719 125.766 144.781L117.828 153.062V155ZM137.25 155H140.203L150.234 135.062V132.453H135.312V134.953H147.453V135.016L137.25 155Z" fill="#E5E5E5"/>
<path d="M135.953 219.375C137.464 219.375 138.807 219.094 139.984 218.531C141.161 217.958 142.089 217.177 142.766 216.188C143.443 215.198 143.781 214.078 143.781 212.828V212.797C143.781 211.193 143.271 209.906 142.25 208.938C141.24 207.958 139.911 207.401 138.266 207.266V207.203C139.203 207.005 140.031 206.667 140.75 206.188C141.469 205.708 142.031 205.109 142.438 204.391C142.844 203.672 143.047 202.849 143.047 201.922V201.891C143.047 200.745 142.75 199.74 142.156 198.875C141.573 198 140.745 197.318 139.672 196.828C138.609 196.328 137.359 196.078 135.922 196.078C134.516 196.078 133.271 196.333 132.188 196.844C131.115 197.354 130.25 198.068 129.594 198.984C128.948 199.901 128.562 200.974 128.438 202.203L128.422 202.359H131.125L131.141 202.203C131.224 201.443 131.474 200.786 131.891 200.234C132.307 199.682 132.859 199.26 133.547 198.969C134.245 198.667 135.036 198.516 135.922 198.516C136.839 198.516 137.615 198.661 138.25 198.953C138.896 199.245 139.385 199.667 139.719 200.219C140.052 200.771 140.219 201.443 140.219 202.234V202.266C140.219 203.016 140.026 203.688 139.641 204.281C139.255 204.865 138.719 205.328 138.031 205.672C137.344 206.005 136.552 206.172 135.656 206.172H132.953V208.547H135.781C137.365 208.547 138.615 208.922 139.531 209.672C140.458 210.411 140.922 211.474 140.922 212.859V212.891C140.922 213.682 140.714 214.385 140.297 215C139.88 215.604 139.297 216.078 138.547 216.422C137.807 216.766 136.943 216.938 135.953 216.938C134.953 216.938 134.073 216.781 133.312 216.469C132.552 216.146 131.943 215.703 131.484 215.141C131.036 214.578 130.771 213.927 130.688 213.188L130.672 213.031H127.969L127.984 213.219C128.089 214.406 128.474 215.464 129.141 216.391C129.818 217.318 130.734 218.047 131.891 218.578C133.047 219.109 134.401 219.375 135.953 219.375Z" fill="black"/>
<rect x="176" y="176" width="64" height="64" rx="32" fill="#CB7428"/>
<path d="M200.766 475H215.641V472.5H203.797L204.625 473.281V471.547L203.797 473.281L209.984 466.938C211.37 465.521 212.443 464.333 213.203 463.375C213.964 462.406 214.495 461.536 214.797 460.766C215.109 459.995 215.266 459.198 215.266 458.375V458.344C215.266 457.167 214.958 456.104 214.344 455.156C213.74 454.208 212.906 453.458 211.844 452.906C210.781 452.354 209.568 452.078 208.203 452.078C206.807 452.078 205.531 452.375 204.375 452.969C203.229 453.552 202.318 454.359 201.641 455.391C200.964 456.411 200.625 457.573 200.625 458.875V458.969H203.344V458.891C203.344 458.078 203.557 457.344 203.984 456.688C204.411 456.031 204.995 455.51 205.734 455.125C206.474 454.729 207.312 454.531 208.25 454.531C209.073 454.531 209.797 454.703 210.422 455.047C211.057 455.38 211.552 455.844 211.906 456.438C212.271 457.031 212.453 457.714 212.453 458.484V458.516C212.453 459.141 212.349 459.729 212.141 460.281C211.943 460.833 211.573 461.458 211.031 462.156C210.5 462.844 209.724 463.719 208.703 464.781L200.766 473.062V475Z" fill="#E5E5E5"/>
<path d="M191.406 411H206.281V408.5H194.438L195.266 409.281V407.547L194.438 409.281L200.625 402.938C202.01 401.521 203.083 400.333 203.844 399.375C204.604 398.406 205.135 397.536 205.438 396.766C205.75 395.995 205.906 395.198 205.906 394.375V394.344C205.906 393.167 205.599 392.104 204.984 391.156C204.38 390.208 203.547 389.458 202.484 388.906C201.422 388.354 200.208 388.078 198.844 388.078C197.448 388.078 196.172 388.375 195.016 388.969C193.87 389.552 192.958 390.359 192.281 391.391C191.604 392.411 191.266 393.573 191.266 394.875V394.969H193.984V394.891C193.984 394.078 194.198 393.344 194.625 392.688C195.052 392.031 195.635 391.51 196.375 391.125C197.115 390.729 197.953 390.531 198.891 390.531C199.714 390.531 200.438 390.703 201.062 391.047C201.698 391.38 202.193 391.844 202.547 392.438C202.911 393.031 203.094 393.714 203.094 394.484V394.516C203.094 395.141 202.99 395.729 202.781 396.281C202.583 396.833 202.214 397.458 201.672 398.156C201.141 398.844 200.365 399.719 199.344 400.781L191.406 409.062V411ZM217.281 411.375C218.844 411.375 220.229 411.052 221.438 410.406C222.646 409.75 223.594 408.844 224.281 407.688C224.969 406.531 225.312 405.203 225.312 403.703V403.672C225.312 402.224 224.99 400.943 224.344 399.828C223.708 398.703 222.828 397.818 221.703 397.172C220.589 396.526 219.307 396.203 217.859 396.203C217.13 396.203 216.443 396.292 215.797 396.469C215.151 396.646 214.568 396.906 214.047 397.25C213.526 397.594 213.089 398.021 212.734 398.531H212.672L213.438 390.953H224.031V388.453H211.125L209.969 401.312H212.453C212.599 401.052 212.76 400.812 212.938 400.594C213.125 400.375 213.318 400.172 213.516 399.984C214.016 399.526 214.589 399.188 215.234 398.969C215.891 398.74 216.599 398.625 217.359 398.625C218.359 398.625 219.245 398.844 220.016 399.281C220.786 399.719 221.391 400.323 221.828 401.094C222.276 401.854 222.5 402.729 222.5 403.719V403.75C222.5 404.76 222.281 405.656 221.844 406.438C221.406 407.208 220.797 407.812 220.016 408.25C219.234 408.688 218.333 408.906 217.312 408.906C216.417 408.906 215.609 408.734 214.891 408.391C214.172 408.047 213.589 407.578 213.141 406.984C212.693 406.38 212.422 405.708 212.328 404.969L212.312 404.844H209.547L209.562 405.016C209.677 406.234 210.073 407.323 210.75 408.281C211.427 409.24 212.323 409.995 213.438 410.547C214.562 411.099 215.844 411.375 217.281 411.375Z" fill="black"/>
<path d="M198.891 347H201.609V324.453H198.859L192.859 328.766V331.594L198.828 327.438H198.891V347ZM215.094 347.375C216.688 347.375 218.099 347.099 219.328 346.547C220.568 345.995 221.536 345.234 222.234 344.266C222.932 343.286 223.281 342.167 223.281 340.906V340.875C223.281 339.948 223.078 339.089 222.672 338.297C222.266 337.505 221.698 336.833 220.969 336.281C220.25 335.719 219.406 335.328 218.438 335.109V335.047C219.677 334.661 220.656 334.026 221.375 333.141C222.104 332.255 222.469 331.219 222.469 330.031V330C222.469 328.865 222.151 327.854 221.516 326.969C220.88 326.073 220.005 325.37 218.891 324.859C217.786 324.339 216.521 324.078 215.094 324.078C213.677 324.078 212.411 324.339 211.297 324.859C210.182 325.37 209.307 326.073 208.672 326.969C208.036 327.854 207.719 328.865 207.719 330V330.031C207.719 331.219 208.083 332.255 208.812 333.141C209.542 334.026 210.521 334.661 211.75 335.047V335.109C210.792 335.328 209.948 335.719 209.219 336.281C208.49 336.833 207.922 337.505 207.516 338.297C207.109 339.089 206.906 339.948 206.906 340.875V340.906C206.906 342.167 207.255 343.286 207.953 344.266C208.661 345.234 209.63 345.995 210.859 346.547C212.089 347.099 213.5 347.375 215.094 347.375ZM215.094 344.922C214.062 344.922 213.146 344.745 212.344 344.391C211.542 344.026 210.911 343.531 210.453 342.906C209.995 342.271 209.766 341.547 209.766 340.734V340.703C209.766 339.88 209.99 339.151 210.438 338.516C210.896 337.88 211.526 337.38 212.328 337.016C213.13 336.651 214.052 336.469 215.094 336.469C216.135 336.469 217.057 336.651 217.859 337.016C218.661 337.38 219.286 337.88 219.734 338.516C220.193 339.151 220.422 339.88 220.422 340.703V340.734C220.422 341.547 220.193 342.271 219.734 342.906C219.276 343.531 218.646 344.026 217.844 344.391C217.052 344.745 216.135 344.922 215.094 344.922ZM215.094 334C214.188 334 213.391 333.844 212.703 333.531C212.016 333.208 211.479 332.766 211.094 332.203C210.708 331.641 210.516 330.995 210.516 330.266V330.234C210.516 329.505 210.708 328.859 211.094 328.297C211.479 327.734 212.016 327.297 212.703 326.984C213.391 326.661 214.188 326.5 215.094 326.5C216 326.5 216.797 326.661 217.484 326.984C218.172 327.297 218.708 327.734 219.094 328.297C219.479 328.859 219.672 329.505 219.672 330.234V330.266C219.672 330.995 219.479 331.641 219.094 332.203C218.708 332.766 218.172 333.208 217.484 333.531C216.797 333.844 216 334 215.094 334Z" fill="black"/>
<path d="M201.391 283H204.109V260.453H201.359L195.359 264.766V267.594L201.328 263.438H201.391V283ZM215.578 283H218.297V260.453H215.547L209.547 264.766V267.594L215.516 263.438H215.578V283Z" fill="black"/>
<path d="M189.828 155H204.703V152.5H192.859L193.688 153.281V151.547L192.859 153.281L199.047 146.938C200.432 145.521 201.505 144.333 202.266 143.375C203.026 142.406 203.557 141.536 203.859 140.766C204.172 139.995 204.328 139.198 204.328 138.375V138.344C204.328 137.167 204.021 136.104 203.406 135.156C202.802 134.208 201.969 133.458 200.906 132.906C199.844 132.354 198.63 132.078 197.266 132.078C195.87 132.078 194.594 132.375 193.438 132.969C192.292 133.552 191.38 134.359 190.703 135.391C190.026 136.411 189.688 137.573 189.688 138.875V138.969H192.406V138.891C192.406 138.078 192.62 137.344 193.047 136.688C193.474 136.031 194.057 135.51 194.797 135.125C195.536 134.729 196.375 134.531 197.312 134.531C198.135 134.531 198.859 134.703 199.484 135.047C200.12 135.38 200.615 135.844 200.969 136.438C201.333 137.031 201.516 137.714 201.516 138.484V138.516C201.516 139.141 201.411 139.729 201.203 140.281C201.005 140.833 200.635 141.458 200.094 142.156C199.562 142.844 198.786 143.719 197.766 144.781L189.828 153.062V155ZM215.719 155.375C217.312 155.375 218.724 155.099 219.953 154.547C221.193 153.995 222.161 153.234 222.859 152.266C223.557 151.286 223.906 150.167 223.906 148.906V148.875C223.906 147.948 223.703 147.089 223.297 146.297C222.891 145.505 222.323 144.833 221.594 144.281C220.875 143.719 220.031 143.328 219.062 143.109V143.047C220.302 142.661 221.281 142.026 222 141.141C222.729 140.255 223.094 139.219 223.094 138.031V138C223.094 136.865 222.776 135.854 222.141 134.969C221.505 134.073 220.63 133.37 219.516 132.859C218.411 132.339 217.146 132.078 215.719 132.078C214.302 132.078 213.036 132.339 211.922 132.859C210.807 133.37 209.932 134.073 209.297 134.969C208.661 135.854 208.344 136.865 208.344 138V138.031C208.344 139.219 208.708 140.255 209.438 141.141C210.167 142.026 211.146 142.661 212.375 143.047V143.109C211.417 143.328 210.573 143.719 209.844 144.281C209.115 144.833 208.547 145.505 208.141 146.297C207.734 147.089 207.531 147.948 207.531 148.875V148.906C207.531 150.167 207.88 151.286 208.578 152.266C209.286 153.234 210.255 153.995 211.484 154.547C212.714 155.099 214.125 155.375 215.719 155.375ZM215.719 152.922C214.688 152.922 213.771 152.745 212.969 152.391C212.167 152.026 211.536 151.531 211.078 150.906C210.62 150.271 210.391 149.547 210.391 148.734V148.703C210.391 147.88 210.615 147.151 211.062 146.516C211.521 145.88 212.151 145.38 212.953 145.016C213.755 144.651 214.677 144.469 215.719 144.469C216.76 144.469 217.682 144.651 218.484 145.016C219.286 145.38 219.911 145.88 220.359 146.516C220.818 147.151 221.047 147.88 221.047 148.703V148.734C221.047 149.547 220.818 150.271 220.359 150.906C219.901 151.531 219.271 152.026 218.469 152.391C217.677 152.745 216.76 152.922 215.719 152.922ZM215.719 142C214.812 142 214.016 141.844 213.328 141.531C212.641 141.208 212.104 140.766 211.719 140.203C211.333 139.641 211.141 138.995 211.141 138.266V138.234C211.141 137.505 211.333 136.859 211.719 136.297C212.104 135.734 212.641 135.297 213.328 134.984C214.016 134.661 214.812 134.5 215.719 134.5C216.625 134.5 217.422 134.661 218.109 134.984C218.797 135.297 219.333 135.734 219.719 136.297C220.104 136.859 220.297 137.505 220.297 138.234V138.266C220.297 138.995 220.104 139.641 219.719 140.203C219.333 140.766 218.797 141.208 218.109 141.531C217.422 141.844 216.625 142 215.719 142Z" fill="#E5E5E5"/>
<path d="M210.875 219H213.594V214.312H216.781V211.844H213.594V196.453H209.438C208.781 197.474 208.12 198.495 207.453 199.516C206.797 200.536 206.141 201.557 205.484 202.578C204.828 203.599 204.167 204.62 203.5 205.641C202.844 206.661 202.182 207.682 201.516 208.703C200.859 209.724 200.203 210.745 199.547 211.766V214.312H210.875V219ZM202.328 211.844V211.781C202.891 210.917 203.453 210.057 204.016 209.203C204.578 208.339 205.141 207.474 205.703 206.609C206.276 205.745 206.844 204.885 207.406 204.031C207.969 203.167 208.531 202.307 209.094 201.453C209.656 200.589 210.219 199.724 210.781 198.859H210.875V211.844H202.328Z" fill="black"/>
<rect x="248" y="176" width="64" height="64" rx="32" fill="#D29763"/>
<path d="M262.891 411H277.766V408.5H265.922L266.75 409.281V407.547L265.922 409.281L272.109 402.938C273.495 401.521 274.568 400.333 275.328 399.375C276.089 398.406 276.62 397.536 276.922 396.766C277.234 395.995 277.391 395.198 277.391 394.375V394.344C277.391 393.167 277.083 392.104 276.469 391.156C275.865 390.208 275.031 389.458 273.969 388.906C272.906 388.354 271.693 388.078 270.328 388.078C268.932 388.078 267.656 388.375 266.5 388.969C265.354 389.552 264.443 390.359 263.766 391.391C263.089 392.411 262.75 393.573 262.75 394.875V394.969H265.469V394.891C265.469 394.078 265.682 393.344 266.109 392.688C266.536 392.031 267.12 391.51 267.859 391.125C268.599 390.729 269.438 390.531 270.375 390.531C271.198 390.531 271.922 390.703 272.547 391.047C273.182 391.38 273.677 391.844 274.031 392.438C274.396 393.031 274.578 393.714 274.578 394.484V394.516C274.578 395.141 274.474 395.729 274.266 396.281C274.068 396.833 273.698 397.458 273.156 398.156C272.625 398.844 271.849 399.719 270.828 400.781L262.891 409.062V411ZM289.172 411.375C290.714 411.375 292.083 411.047 293.281 410.391C294.479 409.724 295.422 408.818 296.109 407.672C296.807 406.516 297.156 405.198 297.156 403.719V403.688C297.156 402.26 296.828 400.984 296.172 399.859C295.526 398.734 294.641 397.849 293.516 397.203C292.391 396.557 291.109 396.234 289.672 396.234C288.651 396.234 287.724 396.401 286.891 396.734C286.057 397.057 285.339 397.495 284.734 398.047C284.141 398.589 283.693 399.193 283.391 399.859H283.062V403.688H284V403.672C284 402.714 284.224 401.859 284.672 401.109C285.13 400.359 285.75 399.771 286.531 399.344C287.323 398.917 288.208 398.703 289.188 398.703C290.177 398.703 291.057 398.922 291.828 399.359C292.599 399.786 293.203 400.38 293.641 401.141C294.078 401.901 294.297 402.771 294.297 403.75V403.781C294.297 404.729 294.068 405.589 293.609 406.359C293.151 407.13 292.531 407.745 291.75 408.203C290.969 408.651 290.099 408.875 289.141 408.875C288.182 408.875 287.312 408.646 286.531 408.188C285.75 407.719 285.13 407.094 284.672 406.312C284.224 405.521 284 404.646 284 403.688L283.328 399.984C283.328 399.88 283.328 399.781 283.328 399.688C283.328 399.583 283.333 399.479 283.344 399.375C283.385 397.792 283.609 396.333 284.016 395C284.432 393.667 285.073 392.594 285.938 391.781C286.802 390.969 287.932 390.562 289.328 390.562C290.099 390.562 290.786 390.688 291.391 390.938C292.005 391.177 292.526 391.521 292.953 391.969C293.38 392.417 293.703 392.953 293.922 393.578L293.984 393.75H296.844L296.797 393.547C296.547 392.453 296.078 391.495 295.391 390.672C294.703 389.849 293.844 389.214 292.812 388.766C291.792 388.307 290.641 388.078 289.359 388.078C287.526 388.078 285.953 388.552 284.641 389.5C283.339 390.448 282.339 391.823 281.641 393.625C280.953 395.417 280.609 397.578 280.609 400.109V400.141C280.609 402.234 280.854 404 281.344 405.438C281.844 406.865 282.505 408.016 283.328 408.891C284.161 409.766 285.083 410.401 286.094 410.797C287.104 411.182 288.13 411.375 289.172 411.375Z" fill="black"/>
<path d="M279.953 475.375C281.464 475.375 282.807 475.094 283.984 474.531C285.161 473.958 286.089 473.177 286.766 472.188C287.443 471.198 287.781 470.078 287.781 468.828V468.797C287.781 467.193 287.271 465.906 286.25 464.938C285.24 463.958 283.911 463.401 282.266 463.266V463.203C283.203 463.005 284.031 462.667 284.75 462.188C285.469 461.708 286.031 461.109 286.438 460.391C286.844 459.672 287.047 458.849 287.047 457.922V457.891C287.047 456.745 286.75 455.74 286.156 454.875C285.573 454 284.745 453.318 283.672 452.828C282.609 452.328 281.359 452.078 279.922 452.078C278.516 452.078 277.271 452.333 276.188 452.844C275.115 453.354 274.25 454.068 273.594 454.984C272.948 455.901 272.562 456.974 272.438 458.203L272.422 458.359H275.125L275.141 458.203C275.224 457.443 275.474 456.786 275.891 456.234C276.307 455.682 276.859 455.26 277.547 454.969C278.245 454.667 279.036 454.516 279.922 454.516C280.839 454.516 281.615 454.661 282.25 454.953C282.896 455.245 283.385 455.667 283.719 456.219C284.052 456.771 284.219 457.443 284.219 458.234V458.266C284.219 459.016 284.026 459.688 283.641 460.281C283.255 460.865 282.719 461.328 282.031 461.672C281.344 462.005 280.552 462.172 279.656 462.172H276.953V464.547H279.781C281.365 464.547 282.615 464.922 283.531 465.672C284.458 466.411 284.922 467.474 284.922 468.859V468.891C284.922 469.682 284.714 470.385 284.297 471C283.88 471.604 283.297 472.078 282.547 472.422C281.807 472.766 280.943 472.938 279.953 472.938C278.953 472.938 278.073 472.781 277.312 472.469C276.552 472.146 275.943 471.703 275.484 471.141C275.036 470.578 274.771 469.927 274.688 469.188L274.672 469.031H271.969L271.984 469.219C272.089 470.406 272.474 471.464 273.141 472.391C273.818 473.318 274.734 474.047 275.891 474.578C277.047 475.109 278.401 475.375 279.953 475.375Z" fill="#E5E5E5"/>
<path d="M270.609 347H273.328V324.453H270.578L264.578 328.766V331.594L270.547 327.438H270.609V347ZM286.984 324.078C285.443 324.078 284.073 324.411 282.875 325.078C281.677 325.734 280.729 326.641 280.031 327.797C279.344 328.943 279 330.255 279 331.734V331.766C279 333.193 279.323 334.469 279.969 335.594C280.625 336.719 281.516 337.604 282.641 338.25C283.776 338.896 285.057 339.219 286.484 339.219C287.505 339.219 288.432 339.057 289.266 338.734C290.109 338.401 290.828 337.964 291.422 337.422C292.016 336.87 292.464 336.26 292.766 335.594H293.094V331.766H292.156V331.781C292.156 332.74 291.927 333.594 291.469 334.344C291.021 335.094 290.406 335.682 289.625 336.109C288.844 336.536 287.958 336.75 286.969 336.75C285.979 336.75 285.099 336.536 284.328 336.109C283.557 335.672 282.953 335.073 282.516 334.312C282.078 333.552 281.859 332.682 281.859 331.703V331.672C281.859 330.724 282.089 329.865 282.547 329.094C283.005 328.323 283.625 327.714 284.406 327.266C285.188 326.807 286.057 326.578 287.016 326.578C287.984 326.578 288.854 326.812 289.625 327.281C290.406 327.74 291.021 328.359 291.469 329.141C291.927 329.922 292.156 330.797 292.156 331.766L292.828 335.469C292.828 335.573 292.828 335.677 292.828 335.781C292.828 335.875 292.823 335.974 292.812 336.078C292.771 337.651 292.542 339.109 292.125 340.453C291.719 341.786 291.083 342.859 290.219 343.672C289.365 344.484 288.234 344.891 286.828 344.891C286.057 344.891 285.365 344.771 284.75 344.531C284.146 344.281 283.63 343.932 283.203 343.484C282.786 343.026 282.464 342.49 282.234 341.875L282.172 341.703H279.312L279.359 341.906C279.609 343 280.078 343.958 280.766 344.781C281.453 345.594 282.312 346.229 283.344 346.688C284.375 347.146 285.526 347.375 286.797 347.375C288.641 347.375 290.214 346.901 291.516 345.953C292.818 345.005 293.812 343.635 294.5 341.844C295.198 340.042 295.547 337.875 295.547 335.344V335.312C295.547 333.219 295.297 331.458 294.797 330.031C294.307 328.594 293.646 327.438 292.812 326.562C291.99 325.688 291.073 325.057 290.062 324.672C289.052 324.276 288.026 324.078 286.984 324.078Z" fill="black"/>
<path d="M271.422 283H274.141V260.453H271.391L265.391 264.766V267.594L271.359 263.438H271.422V283ZM279.859 283H294.734V280.5H282.891L283.719 281.281V279.547L282.891 281.281L289.078 274.938C290.464 273.521 291.536 272.333 292.297 271.375C293.057 270.406 293.589 269.536 293.891 268.766C294.203 267.995 294.359 267.198 294.359 266.375V266.344C294.359 265.167 294.052 264.104 293.438 263.156C292.833 262.208 292 261.458 290.938 260.906C289.875 260.354 288.661 260.078 287.297 260.078C285.901 260.078 284.625 260.375 283.469 260.969C282.323 261.552 281.411 262.359 280.734 263.391C280.057 264.411 279.719 265.573 279.719 266.875V266.969H282.438V266.891C282.438 266.078 282.651 265.344 283.078 264.688C283.505 264.031 284.089 263.51 284.828 263.125C285.568 262.729 286.406 262.531 287.344 262.531C288.167 262.531 288.891 262.703 289.516 263.047C290.151 263.38 290.646 263.844 291 264.438C291.365 265.031 291.547 265.714 291.547 266.484V266.516C291.547 267.141 291.443 267.729 291.234 268.281C291.036 268.833 290.667 269.458 290.125 270.156C289.594 270.844 288.818 271.719 287.797 272.781L279.859 281.062V283Z" fill="black"/>
<path d="M280.219 219.375C281.781 219.375 283.167 219.052 284.375 218.406C285.583 217.75 286.531 216.844 287.219 215.688C287.906 214.531 288.25 213.203 288.25 211.703V211.672C288.25 210.224 287.927 208.943 287.281 207.828C286.646 206.703 285.766 205.818 284.641 205.172C283.526 204.526 282.245 204.203 280.797 204.203C280.068 204.203 279.38 204.292 278.734 204.469C278.089 204.646 277.505 204.906 276.984 205.25C276.464 205.594 276.026 206.021 275.672 206.531H275.609L276.375 198.953H286.969V196.453H274.062L272.906 209.312H275.391C275.536 209.052 275.698 208.812 275.875 208.594C276.062 208.375 276.255 208.172 276.453 207.984C276.953 207.526 277.526 207.188 278.172 206.969C278.828 206.74 279.536 206.625 280.297 206.625C281.297 206.625 282.182 206.844 282.953 207.281C283.724 207.719 284.328 208.323 284.766 209.094C285.214 209.854 285.438 210.729 285.438 211.719V211.75C285.438 212.76 285.219 213.656 284.781 214.438C284.344 215.208 283.734 215.812 282.953 216.25C282.172 216.688 281.271 216.906 280.25 216.906C279.354 216.906 278.547 216.734 277.828 216.391C277.109 216.047 276.526 215.578 276.078 214.984C275.63 214.38 275.359 213.708 275.266 212.969L275.25 212.844H272.484L272.5 213.016C272.615 214.234 273.01 215.323 273.688 216.281C274.365 217.24 275.26 217.995 276.375 218.547C277.5 219.099 278.781 219.375 280.219 219.375Z" fill="black"/>
<path d="M261.828 155H276.703V152.5H264.859L265.688 153.281V151.547L264.859 153.281L271.047 146.938C272.432 145.521 273.505 144.333 274.266 143.375C275.026 142.406 275.557 141.536 275.859 140.766C276.172 139.995 276.328 139.198 276.328 138.375V138.344C276.328 137.167 276.021 136.104 275.406 135.156C274.802 134.208 273.969 133.458 272.906 132.906C271.844 132.354 270.63 132.078 269.266 132.078C267.87 132.078 266.594 132.375 265.438 132.969C264.292 133.552 263.38 134.359 262.703 135.391C262.026 136.411 261.688 137.573 261.688 138.875V138.969H264.406V138.891C264.406 138.078 264.62 137.344 265.047 136.688C265.474 136.031 266.057 135.51 266.797 135.125C267.536 134.729 268.375 134.531 269.312 134.531C270.135 134.531 270.859 134.703 271.484 135.047C272.12 135.38 272.615 135.844 272.969 136.438C273.333 137.031 273.516 137.714 273.516 138.484V138.516C273.516 139.141 273.411 139.729 273.203 140.281C273.005 140.833 272.635 141.458 272.094 142.156C271.562 142.844 270.786 143.719 269.766 144.781L261.828 153.062V155ZM287.891 132.078C286.349 132.078 284.979 132.411 283.781 133.078C282.583 133.734 281.635 134.641 280.938 135.797C280.25 136.943 279.906 138.255 279.906 139.734V139.766C279.906 141.193 280.229 142.469 280.875 143.594C281.531 144.719 282.422 145.604 283.547 146.25C284.682 146.896 285.964 147.219 287.391 147.219C288.411 147.219 289.339 147.057 290.172 146.734C291.016 146.401 291.734 145.964 292.328 145.422C292.922 144.87 293.37 144.26 293.672 143.594H294V139.766H293.062V139.781C293.062 140.74 292.833 141.594 292.375 142.344C291.927 143.094 291.312 143.682 290.531 144.109C289.75 144.536 288.865 144.75 287.875 144.75C286.885 144.75 286.005 144.536 285.234 144.109C284.464 143.672 283.859 143.073 283.422 142.312C282.984 141.552 282.766 140.682 282.766 139.703V139.672C282.766 138.724 282.995 137.865 283.453 137.094C283.911 136.323 284.531 135.714 285.312 135.266C286.094 134.807 286.964 134.578 287.922 134.578C288.891 134.578 289.76 134.812 290.531 135.281C291.312 135.74 291.927 136.359 292.375 137.141C292.833 137.922 293.062 138.797 293.062 139.766L293.734 143.469C293.734 143.573 293.734 143.677 293.734 143.781C293.734 143.875 293.729 143.974 293.719 144.078C293.677 145.651 293.448 147.109 293.031 148.453C292.625 149.786 291.99 150.859 291.125 151.672C290.271 152.484 289.141 152.891 287.734 152.891C286.964 152.891 286.271 152.771 285.656 152.531C285.052 152.281 284.536 151.932 284.109 151.484C283.693 151.026 283.37 150.49 283.141 149.875L283.078 149.703H280.219L280.266 149.906C280.516 151 280.984 151.958 281.672 152.781C282.359 153.594 283.219 154.229 284.25 154.688C285.281 155.146 286.432 155.375 287.703 155.375C289.547 155.375 291.12 154.901 292.422 153.953C293.724 153.005 294.719 151.635 295.406 149.844C296.104 148.042 296.453 145.875 296.453 143.344V143.312C296.453 141.219 296.203 139.458 295.703 138.031C295.214 136.594 294.552 135.438 293.719 134.562C292.896 133.688 291.979 133.057 290.969 132.672C289.958 132.276 288.932 132.078 287.891 132.078Z" fill="#E5E5E5"/>
<path d="M336.016 411H350.891V408.5H339.047L339.875 409.281V407.547L339.047 409.281L345.234 402.938C346.62 401.521 347.693 400.333 348.453 399.375C349.214 398.406 349.745 397.536 350.047 396.766C350.359 395.995 350.516 395.198 350.516 394.375V394.344C350.516 393.167 350.208 392.104 349.594 391.156C348.99 390.208 348.156 389.458 347.094 388.906C346.031 388.354 344.818 388.078 343.453 388.078C342.057 388.078 340.781 388.375 339.625 388.969C338.479 389.552 337.568 390.359 336.891 391.391C336.214 392.411 335.875 393.573 335.875 394.875V394.969H338.594V394.891C338.594 394.078 338.807 393.344 339.234 392.688C339.661 392.031 340.245 391.51 340.984 391.125C341.724 390.729 342.562 390.531 343.5 390.531C344.323 390.531 345.047 390.703 345.672 391.047C346.307 391.38 346.802 391.844 347.156 392.438C347.521 393.031 347.703 393.714 347.703 394.484V394.516C347.703 395.141 347.599 395.729 347.391 396.281C347.193 396.833 346.823 397.458 346.281 398.156C345.75 398.844 344.974 399.719 343.953 400.781L336.016 409.062V411ZM355.438 411H358.391L368.422 391.062V388.453H353.5V390.953H365.641V391.016L355.438 411Z" fill="black"/>
<path d="M354.875 475H357.594V470.312H360.781V467.844H357.594V452.453H353.438C352.781 453.474 352.12 454.495 351.453 455.516C350.797 456.536 350.141 457.557 349.484 458.578C348.828 459.599 348.167 460.62 347.5 461.641C346.844 462.661 346.182 463.682 345.516 464.703C344.859 465.724 344.203 466.745 343.547 467.766V470.312H354.875V475ZM346.328 467.844V467.781C346.891 466.917 347.453 466.057 348.016 465.203C348.578 464.339 349.141 463.474 349.703 462.609C350.276 461.745 350.844 460.885 351.406 460.031C351.969 459.167 352.531 458.307 353.094 457.453C353.656 456.589 354.219 455.724 354.781 454.859H354.875V467.844H346.328Z" fill="#E5E5E5"/>
<path d="M335.062 347H349.938V344.5H338.094L338.922 345.281V343.547L338.094 345.281L344.281 338.938C345.667 337.521 346.74 336.333 347.5 335.375C348.26 334.406 348.792 333.536 349.094 332.766C349.406 331.995 349.562 331.198 349.562 330.375V330.344C349.562 329.167 349.255 328.104 348.641 327.156C348.036 326.208 347.203 325.458 346.141 324.906C345.078 324.354 343.865 324.078 342.5 324.078C341.104 324.078 339.828 324.375 338.672 324.969C337.526 325.552 336.615 326.359 335.938 327.391C335.26 328.411 334.922 329.573 334.922 330.875V330.969H337.641V330.891C337.641 330.078 337.854 329.344 338.281 328.688C338.708 328.031 339.292 327.51 340.031 327.125C340.771 326.729 341.609 326.531 342.547 326.531C343.37 326.531 344.094 326.703 344.719 327.047C345.354 327.38 345.849 327.844 346.203 328.438C346.568 329.031 346.75 329.714 346.75 330.484V330.516C346.75 331.141 346.646 331.729 346.438 332.281C346.24 332.833 345.87 333.458 345.328 334.156C344.797 334.844 344.021 335.719 343 336.781L335.062 345.062V347ZM361.047 347.375C362.776 347.375 364.26 346.901 365.5 345.953C366.74 345.005 367.688 343.661 368.344 341.922C369.01 340.182 369.344 338.12 369.344 335.734V335.703C369.344 333.318 369.01 331.255 368.344 329.516C367.688 327.776 366.74 326.438 365.5 325.5C364.26 324.552 362.776 324.078 361.047 324.078C359.318 324.078 357.833 324.552 356.594 325.5C355.365 326.438 354.422 327.776 353.766 329.516C353.109 331.255 352.781 333.318 352.781 335.703V335.734C352.781 338.12 353.109 340.182 353.766 341.922C354.422 343.661 355.365 345.005 356.594 345.953C357.833 346.901 359.318 347.375 361.047 347.375ZM361.047 344.922C359.901 344.922 358.922 344.552 358.109 343.812C357.297 343.062 356.677 342 356.25 340.625C355.823 339.25 355.609 337.62 355.609 335.734V335.703C355.609 333.818 355.823 332.193 356.25 330.828C356.677 329.453 357.297 328.396 358.109 327.656C358.922 326.917 359.901 326.547 361.047 326.547C362.193 326.547 363.172 326.917 363.984 327.656C364.807 328.396 365.432 329.453 365.859 330.828C366.297 332.193 366.516 333.818 366.516 335.703V335.734C366.516 337.62 366.297 339.25 365.859 340.625C365.432 342 364.807 343.062 363.984 343.812C363.172 344.552 362.193 344.922 361.047 344.922Z" fill="black"/>
<path d="M343.016 283H345.734V260.453H342.984L336.984 264.766V267.594L342.953 263.438H343.016V283ZM359.047 283.375C360.557 283.375 361.901 283.094 363.078 282.531C364.255 281.958 365.182 281.177 365.859 280.188C366.536 279.198 366.875 278.078 366.875 276.828V276.797C366.875 275.193 366.365 273.906 365.344 272.938C364.333 271.958 363.005 271.401 361.359 271.266V271.203C362.297 271.005 363.125 270.667 363.844 270.188C364.562 269.708 365.125 269.109 365.531 268.391C365.938 267.672 366.141 266.849 366.141 265.922V265.891C366.141 264.745 365.844 263.74 365.25 262.875C364.667 262 363.839 261.318 362.766 260.828C361.703 260.328 360.453 260.078 359.016 260.078C357.609 260.078 356.365 260.333 355.281 260.844C354.208 261.354 353.344 262.068 352.688 262.984C352.042 263.901 351.656 264.974 351.531 266.203L351.516 266.359H354.219L354.234 266.203C354.318 265.443 354.568 264.786 354.984 264.234C355.401 263.682 355.953 263.26 356.641 262.969C357.339 262.667 358.13 262.516 359.016 262.516C359.932 262.516 360.708 262.661 361.344 262.953C361.99 263.245 362.479 263.667 362.812 264.219C363.146 264.771 363.312 265.443 363.312 266.234V266.266C363.312 267.016 363.12 267.688 362.734 268.281C362.349 268.865 361.812 269.328 361.125 269.672C360.438 270.005 359.646 270.172 358.75 270.172H356.047V272.547H358.875C360.458 272.547 361.708 272.922 362.625 273.672C363.552 274.411 364.016 275.474 364.016 276.859V276.891C364.016 277.682 363.807 278.385 363.391 279C362.974 279.604 362.391 280.078 361.641 280.422C360.901 280.766 360.036 280.938 359.047 280.938C358.047 280.938 357.167 280.781 356.406 280.469C355.646 280.146 355.036 279.703 354.578 279.141C354.13 278.578 353.865 277.927 353.781 277.188L353.766 277.031H351.062L351.078 277.219C351.182 278.406 351.568 279.464 352.234 280.391C352.911 281.318 353.828 282.047 354.984 282.578C356.141 283.109 357.495 283.375 359.047 283.375Z" fill="black"/>
<path d="M352.109 219.375C353.651 219.375 355.021 219.047 356.219 218.391C357.417 217.724 358.359 216.818 359.047 215.672C359.745 214.516 360.094 213.198 360.094 211.719V211.688C360.094 210.26 359.766 208.984 359.109 207.859C358.464 206.734 357.578 205.849 356.453 205.203C355.328 204.557 354.047 204.234 352.609 204.234C351.589 204.234 350.661 204.401 349.828 204.734C348.995 205.057 348.276 205.495 347.672 206.047C347.078 206.589 346.63 207.193 346.328 207.859H346V211.688H346.938V211.672C346.938 210.714 347.161 209.859 347.609 209.109C348.068 208.359 348.688 207.771 349.469 207.344C350.26 206.917 351.146 206.703 352.125 206.703C353.115 206.703 353.995 206.922 354.766 207.359C355.536 207.786 356.141 208.38 356.578 209.141C357.016 209.901 357.234 210.771 357.234 211.75V211.781C357.234 212.729 357.005 213.589 356.547 214.359C356.089 215.13 355.469 215.745 354.688 216.203C353.906 216.651 353.036 216.875 352.078 216.875C351.12 216.875 350.25 216.646 349.469 216.188C348.688 215.719 348.068 215.094 347.609 214.312C347.161 213.521 346.938 212.646 346.938 211.688L346.266 207.984C346.266 207.88 346.266 207.781 346.266 207.688C346.266 207.583 346.271 207.479 346.281 207.375C346.323 205.792 346.547 204.333 346.953 203C347.37 201.667 348.01 200.594 348.875 199.781C349.74 198.969 350.87 198.562 352.266 198.562C353.036 198.562 353.724 198.688 354.328 198.938C354.943 199.177 355.464 199.521 355.891 199.969C356.318 200.417 356.641 200.953 356.859 201.578L356.922 201.75H359.781L359.734 201.547C359.484 200.453 359.016 199.495 358.328 198.672C357.641 197.849 356.781 197.214 355.75 196.766C354.729 196.307 353.578 196.078 352.297 196.078C350.464 196.078 348.891 196.552 347.578 197.5C346.276 198.448 345.276 199.823 344.578 201.625C343.891 203.417 343.547 205.578 343.547 208.109V208.141C343.547 210.234 343.792 212 344.281 213.438C344.781 214.865 345.443 216.016 346.266 216.891C347.099 217.766 348.021 218.401 349.031 218.797C350.042 219.182 351.068 219.375 352.109 219.375Z" fill="black"/>
<path d="M341.422 155.375C342.932 155.375 344.276 155.094 345.453 154.531C346.63 153.958 347.557 153.177 348.234 152.188C348.911 151.198 349.25 150.078 349.25 148.828V148.797C349.25 147.193 348.74 145.906 347.719 144.938C346.708 143.958 345.38 143.401 343.734 143.266V143.203C344.672 143.005 345.5 142.667 346.219 142.188C346.938 141.708 347.5 141.109 347.906 140.391C348.312 139.672 348.516 138.849 348.516 137.922V137.891C348.516 136.745 348.219 135.74 347.625 134.875C347.042 134 346.214 133.318 345.141 132.828C344.078 132.328 342.828 132.078 341.391 132.078C339.984 132.078 338.74 132.333 337.656 132.844C336.583 133.354 335.719 134.068 335.062 134.984C334.417 135.901 334.031 136.974 333.906 138.203L333.891 138.359H336.594L336.609 138.203C336.693 137.443 336.943 136.786 337.359 136.234C337.776 135.682 338.328 135.26 339.016 134.969C339.714 134.667 340.505 134.516 341.391 134.516C342.307 134.516 343.083 134.661 343.719 134.953C344.365 135.245 344.854 135.667 345.188 136.219C345.521 136.771 345.688 137.443 345.688 138.234V138.266C345.688 139.016 345.495 139.688 345.109 140.281C344.724 140.865 344.188 141.328 343.5 141.672C342.812 142.005 342.021 142.172 341.125 142.172H338.422V144.547H341.25C342.833 144.547 344.083 144.922 345 145.672C345.927 146.411 346.391 147.474 346.391 148.859V148.891C346.391 149.682 346.182 150.385 345.766 151C345.349 151.604 344.766 152.078 344.016 152.422C343.276 152.766 342.411 152.938 341.422 152.938C340.422 152.938 339.542 152.781 338.781 152.469C338.021 152.146 337.411 151.703 336.953 151.141C336.505 150.578 336.24 149.927 336.156 149.188L336.141 149.031H333.438L333.453 149.219C333.557 150.406 333.943 151.464 334.609 152.391C335.286 153.318 336.203 154.047 337.359 154.578C338.516 155.109 339.87 155.375 341.422 155.375ZM360.625 155.375C362.354 155.375 363.839 154.901 365.078 153.953C366.318 153.005 367.266 151.661 367.922 149.922C368.589 148.182 368.922 146.12 368.922 143.734V143.703C368.922 141.318 368.589 139.255 367.922 137.516C367.266 135.776 366.318 134.438 365.078 133.5C363.839 132.552 362.354 132.078 360.625 132.078C358.896 132.078 357.411 132.552 356.172 133.5C354.943 134.438 354 135.776 353.344 137.516C352.688 139.255 352.359 141.318 352.359 143.703V143.734C352.359 146.12 352.688 148.182 353.344 149.922C354 151.661 354.943 153.005 356.172 153.953C357.411 154.901 358.896 155.375 360.625 155.375ZM360.625 152.922C359.479 152.922 358.5 152.552 357.688 151.812C356.875 151.062 356.255 150 355.828 148.625C355.401 147.25 355.188 145.62 355.188 143.734V143.703C355.188 141.818 355.401 140.193 355.828 138.828C356.255 137.453 356.875 136.396 357.688 135.656C358.5 134.917 359.479 134.547 360.625 134.547C361.771 134.547 362.75 134.917 363.562 135.656C364.385 136.396 365.01 137.453 365.438 138.828C365.875 140.193 366.094 141.818 366.094 143.703V143.734C366.094 145.62 365.875 147.25 365.438 148.625C365.01 150 364.385 151.062 363.562 151.812C362.75 152.552 361.771 152.922 360.625 152.922Z" fill="#E5E5E5"/>
<path d="M407.172 411H422.047V408.5H410.203L411.031 409.281V407.547L410.203 409.281L416.391 402.938C417.776 401.521 418.849 400.333 419.609 399.375C420.37 398.406 420.901 397.536 421.203 396.766C421.516 395.995 421.672 395.198 421.672 394.375V394.344C421.672 393.167 421.365 392.104 420.75 391.156C420.146 390.208 419.312 389.458 418.25 388.906C417.188 388.354 415.974 388.078 414.609 388.078C413.214 388.078 411.938 388.375 410.781 388.969C409.635 389.552 408.724 390.359 408.047 391.391C407.37 392.411 407.031 393.573 407.031 394.875V394.969H409.75V394.891C409.75 394.078 409.964 393.344 410.391 392.688C410.818 392.031 411.401 391.51 412.141 391.125C412.88 390.729 413.719 390.531 414.656 390.531C415.479 390.531 416.203 390.703 416.828 391.047C417.464 391.38 417.958 391.844 418.312 392.438C418.677 393.031 418.859 393.714 418.859 394.484V394.516C418.859 395.141 418.755 395.729 418.547 396.281C418.349 396.833 417.979 397.458 417.438 398.156C416.906 398.844 416.13 399.719 415.109 400.781L407.172 409.062V411ZM433.062 411.375C434.656 411.375 436.068 411.099 437.297 410.547C438.536 409.995 439.505 409.234 440.203 408.266C440.901 407.286 441.25 406.167 441.25 404.906V404.875C441.25 403.948 441.047 403.089 440.641 402.297C440.234 401.505 439.667 400.833 438.938 400.281C438.219 399.719 437.375 399.328 436.406 399.109V399.047C437.646 398.661 438.625 398.026 439.344 397.141C440.073 396.255 440.438 395.219 440.438 394.031V394C440.438 392.865 440.12 391.854 439.484 390.969C438.849 390.073 437.974 389.37 436.859 388.859C435.755 388.339 434.49 388.078 433.062 388.078C431.646 388.078 430.38 388.339 429.266 388.859C428.151 389.37 427.276 390.073 426.641 390.969C426.005 391.854 425.688 392.865 425.688 394V394.031C425.688 395.219 426.052 396.255 426.781 397.141C427.51 398.026 428.49 398.661 429.719 399.047V399.109C428.76 399.328 427.917 399.719 427.188 400.281C426.458 400.833 425.891 401.505 425.484 402.297C425.078 403.089 424.875 403.948 424.875 404.875V404.906C424.875 406.167 425.224 407.286 425.922 408.266C426.63 409.234 427.599 409.995 428.828 410.547C430.057 411.099 431.469 411.375 433.062 411.375ZM433.062 408.922C432.031 408.922 431.115 408.745 430.312 408.391C429.51 408.026 428.88 407.531 428.422 406.906C427.964 406.271 427.734 405.547 427.734 404.734V404.703C427.734 403.88 427.958 403.151 428.406 402.516C428.865 401.88 429.495 401.38 430.297 401.016C431.099 400.651 432.021 400.469 433.062 400.469C434.104 400.469 435.026 400.651 435.828 401.016C436.63 401.38 437.255 401.88 437.703 402.516C438.161 403.151 438.391 403.88 438.391 404.703V404.734C438.391 405.547 438.161 406.271 437.703 406.906C437.245 407.531 436.615 408.026 435.812 408.391C435.021 408.745 434.104 408.922 433.062 408.922ZM433.062 398C432.156 398 431.359 397.844 430.672 397.531C429.984 397.208 429.448 396.766 429.062 396.203C428.677 395.641 428.484 394.995 428.484 394.266V394.234C428.484 393.505 428.677 392.859 429.062 392.297C429.448 391.734 429.984 391.297 430.672 390.984C431.359 390.661 432.156 390.5 433.062 390.5C433.969 390.5 434.766 390.661 435.453 390.984C436.141 391.297 436.677 391.734 437.062 392.297C437.448 392.859 437.641 393.505 437.641 394.234V394.266C437.641 394.995 437.448 395.641 437.062 396.203C436.677 396.766 436.141 397.208 435.453 397.531C434.766 397.844 433.969 398 433.062 398Z" fill="black"/>
<path d="M424.219 475.375C425.781 475.375 427.167 475.052 428.375 474.406C429.583 473.75 430.531 472.844 431.219 471.688C431.906 470.531 432.25 469.203 432.25 467.703V467.672C432.25 466.224 431.927 464.943 431.281 463.828C430.646 462.703 429.766 461.818 428.641 461.172C427.526 460.526 426.245 460.203 424.797 460.203C424.068 460.203 423.38 460.292 422.734 460.469C422.089 460.646 421.505 460.906 420.984 461.25C420.464 461.594 420.026 462.021 419.672 462.531H419.609L420.375 454.953H430.969V452.453H418.062L416.906 465.312H419.391C419.536 465.052 419.698 464.812 419.875 464.594C420.062 464.375 420.255 464.172 420.453 463.984C420.953 463.526 421.526 463.188 422.172 462.969C422.828 462.74 423.536 462.625 424.297 462.625C425.297 462.625 426.182 462.844 426.953 463.281C427.724 463.719 428.328 464.323 428.766 465.094C429.214 465.854 429.438 466.729 429.438 467.719V467.75C429.438 468.76 429.219 469.656 428.781 470.438C428.344 471.208 427.734 471.812 426.953 472.25C426.172 472.688 425.271 472.906 424.25 472.906C423.354 472.906 422.547 472.734 421.828 472.391C421.109 472.047 420.526 471.578 420.078 470.984C419.63 470.38 419.359 469.708 419.266 468.969L419.25 468.844H416.484L416.5 469.016C416.615 470.234 417.01 471.323 417.688 472.281C418.365 473.24 419.26 473.995 420.375 474.547C421.5 475.099 422.781 475.375 424.219 475.375Z" fill="#E5E5E5"/>
<path d="M409.672 347H424.547V344.5H412.703L413.531 345.281V343.547L412.703 345.281L418.891 338.938C420.276 337.521 421.349 336.333 422.109 335.375C422.87 334.406 423.401 333.536 423.703 332.766C424.016 331.995 424.172 331.198 424.172 330.375V330.344C424.172 329.167 423.865 328.104 423.25 327.156C422.646 326.208 421.812 325.458 420.75 324.906C419.688 324.354 418.474 324.078 417.109 324.078C415.714 324.078 414.438 324.375 413.281 324.969C412.135 325.552 411.224 326.359 410.547 327.391C409.87 328.411 409.531 329.573 409.531 330.875V330.969H412.25V330.891C412.25 330.078 412.464 329.344 412.891 328.688C413.318 328.031 413.901 327.51 414.641 327.125C415.38 326.729 416.219 326.531 417.156 326.531C417.979 326.531 418.703 326.703 419.328 327.047C419.964 327.38 420.458 327.844 420.812 328.438C421.177 329.031 421.359 329.714 421.359 330.484V330.516C421.359 331.141 421.255 331.729 421.047 332.281C420.849 332.833 420.479 333.458 419.938 334.156C419.406 334.844 418.63 335.719 417.609 336.781L409.672 345.062V347ZM433.547 347H436.266V324.453H433.516L427.516 328.766V331.594L433.484 327.438H433.547V347Z" fill="black"/>
<path d="M414.812 283H417.531V260.453H414.781L408.781 264.766V267.594L414.75 263.438H414.812V283ZM433.969 283H436.688V278.312H439.875V275.844H436.688V260.453H432.531C431.875 261.474 431.214 262.495 430.547 263.516C429.891 264.536 429.234 265.557 428.578 266.578C427.922 267.599 427.26 268.62 426.594 269.641C425.938 270.661 425.276 271.682 424.609 272.703C423.953 273.724 423.297 274.745 422.641 275.766V278.312H433.969V283ZM425.422 275.844V275.781C425.984 274.917 426.547 274.057 427.109 273.203C427.672 272.339 428.234 271.474 428.797 270.609C429.37 269.745 429.938 268.885 430.5 268.031C431.062 267.167 431.625 266.307 432.188 265.453C432.75 264.589 433.312 263.724 433.875 262.859H433.969V275.844H425.422Z" fill="black"/>
<path d="M418.375 219H421.328L431.359 199.062V196.453H416.438V198.953H428.578V199.016L418.375 219Z" fill="black"/>
<path d="M413.422 155.375C414.932 155.375 416.276 155.094 417.453 154.531C418.63 153.958 419.557 153.177 420.234 152.188C420.911 151.198 421.25 150.078 421.25 148.828V148.797C421.25 147.193 420.74 145.906 419.719 144.938C418.708 143.958 417.38 143.401 415.734 143.266V143.203C416.672 143.005 417.5 142.667 418.219 142.188C418.938 141.708 419.5 141.109 419.906 140.391C420.312 139.672 420.516 138.849 420.516 137.922V137.891C420.516 136.745 420.219 135.74 419.625 134.875C419.042 134 418.214 133.318 417.141 132.828C416.078 132.328 414.828 132.078 413.391 132.078C411.984 132.078 410.74 132.333 409.656 132.844C408.583 133.354 407.719 134.068 407.062 134.984C406.417 135.901 406.031 136.974 405.906 138.203L405.891 138.359H408.594L408.609 138.203C408.693 137.443 408.943 136.786 409.359 136.234C409.776 135.682 410.328 135.26 411.016 134.969C411.714 134.667 412.505 134.516 413.391 134.516C414.307 134.516 415.083 134.661 415.719 134.953C416.365 135.245 416.854 135.667 417.188 136.219C417.521 136.771 417.688 137.443 417.688 138.234V138.266C417.688 139.016 417.495 139.688 417.109 140.281C416.724 140.865 416.188 141.328 415.5 141.672C414.812 142.005 414.021 142.172 413.125 142.172H410.422V144.547H413.25C414.833 144.547 416.083 144.922 417 145.672C417.927 146.411 418.391 147.474 418.391 148.859V148.891C418.391 149.682 418.182 150.385 417.766 151C417.349 151.604 416.766 152.078 416.016 152.422C415.276 152.766 414.411 152.938 413.422 152.938C412.422 152.938 411.542 152.781 410.781 152.469C410.021 152.146 409.411 151.703 408.953 151.141C408.505 150.578 408.24 149.927 408.156 149.188L408.141 149.031H405.438L405.453 149.219C405.557 150.406 405.943 151.464 406.609 152.391C407.286 153.318 408.203 154.047 409.359 154.578C410.516 155.109 411.87 155.375 413.422 155.375ZM430.516 155H433.234V132.453H430.484L424.484 136.766V139.594L430.453 135.438H430.516V155Z" fill="#E5E5E5"/>
<rect x="464" y="112" width="64" height="64" rx="32" fill="#D29763"/>
<path d="M478.891 411H493.766V408.5H481.922L482.75 409.281V407.547L481.922 409.281L488.109 402.938C489.495 401.521 490.568 400.333 491.328 399.375C492.089 398.406 492.62 397.536 492.922 396.766C493.234 395.995 493.391 395.198 493.391 394.375V394.344C493.391 393.167 493.083 392.104 492.469 391.156C491.865 390.208 491.031 389.458 489.969 388.906C488.906 388.354 487.693 388.078 486.328 388.078C484.932 388.078 483.656 388.375 482.5 388.969C481.354 389.552 480.443 390.359 479.766 391.391C479.089 392.411 478.75 393.573 478.75 394.875V394.969H481.469V394.891C481.469 394.078 481.682 393.344 482.109 392.688C482.536 392.031 483.12 391.51 483.859 391.125C484.599 390.729 485.438 390.531 486.375 390.531C487.198 390.531 487.922 390.703 488.547 391.047C489.182 391.38 489.677 391.844 490.031 392.438C490.396 393.031 490.578 393.714 490.578 394.484V394.516C490.578 395.141 490.474 395.729 490.266 396.281C490.068 396.833 489.698 397.458 489.156 398.156C488.625 398.844 487.849 399.719 486.828 400.781L478.891 409.062V411ZM504.953 388.078C503.411 388.078 502.042 388.411 500.844 389.078C499.646 389.734 498.698 390.641 498 391.797C497.312 392.943 496.969 394.255 496.969 395.734V395.766C496.969 397.193 497.292 398.469 497.938 399.594C498.594 400.719 499.484 401.604 500.609 402.25C501.745 402.896 503.026 403.219 504.453 403.219C505.474 403.219 506.401 403.057 507.234 402.734C508.078 402.401 508.797 401.964 509.391 401.422C509.984 400.87 510.432 400.26 510.734 399.594H511.062V395.766H510.125V395.781C510.125 396.74 509.896 397.594 509.438 398.344C508.99 399.094 508.375 399.682 507.594 400.109C506.812 400.536 505.927 400.75 504.938 400.75C503.948 400.75 503.068 400.536 502.297 400.109C501.526 399.672 500.922 399.073 500.484 398.312C500.047 397.552 499.828 396.682 499.828 395.703V395.672C499.828 394.724 500.057 393.865 500.516 393.094C500.974 392.323 501.594 391.714 502.375 391.266C503.156 390.807 504.026 390.578 504.984 390.578C505.953 390.578 506.823 390.812 507.594 391.281C508.375 391.74 508.99 392.359 509.438 393.141C509.896 393.922 510.125 394.797 510.125 395.766L510.797 399.469C510.797 399.573 510.797 399.677 510.797 399.781C510.797 399.875 510.792 399.974 510.781 400.078C510.74 401.651 510.51 403.109 510.094 404.453C509.688 405.786 509.052 406.859 508.188 407.672C507.333 408.484 506.203 408.891 504.797 408.891C504.026 408.891 503.333 408.771 502.719 408.531C502.115 408.281 501.599 407.932 501.172 407.484C500.755 407.026 500.432 406.49 500.203 405.875L500.141 405.703H497.281L497.328 405.906C497.578 407 498.047 407.958 498.734 408.781C499.422 409.594 500.281 410.229 501.312 410.688C502.344 411.146 503.495 411.375 504.766 411.375C506.609 411.375 508.182 410.901 509.484 409.953C510.786 409.005 511.781 407.635 512.469 405.844C513.167 404.042 513.516 401.875 513.516 399.344V399.312C513.516 397.219 513.266 395.458 512.766 394.031C512.276 392.594 511.615 391.438 510.781 390.562C509.958 389.688 509.042 389.057 508.031 388.672C507.021 388.276 505.995 388.078 504.953 388.078Z" fill="black"/>
<path d="M496.109 475.375C497.651 475.375 499.021 475.047 500.219 474.391C501.417 473.724 502.359 472.818 503.047 471.672C503.745 470.516 504.094 469.198 504.094 467.719V467.688C504.094 466.26 503.766 464.984 503.109 463.859C502.464 462.734 501.578 461.849 500.453 461.203C499.328 460.557 498.047 460.234 496.609 460.234C495.589 460.234 494.661 460.401 493.828 460.734C492.995 461.057 492.276 461.495 491.672 462.047C491.078 462.589 490.63 463.193 490.328 463.859H490V467.688H490.938V467.672C490.938 466.714 491.161 465.859 491.609 465.109C492.068 464.359 492.688 463.771 493.469 463.344C494.26 462.917 495.146 462.703 496.125 462.703C497.115 462.703 497.995 462.922 498.766 463.359C499.536 463.786 500.141 464.38 500.578 465.141C501.016 465.901 501.234 466.771 501.234 467.75V467.781C501.234 468.729 501.005 469.589 500.547 470.359C500.089 471.13 499.469 471.745 498.688 472.203C497.906 472.651 497.036 472.875 496.078 472.875C495.12 472.875 494.25 472.646 493.469 472.188C492.688 471.719 492.068 471.094 491.609 470.312C491.161 469.521 490.938 468.646 490.938 467.688L490.266 463.984C490.266 463.88 490.266 463.781 490.266 463.688C490.266 463.583 490.271 463.479 490.281 463.375C490.323 461.792 490.547 460.333 490.953 459C491.37 457.667 492.01 456.594 492.875 455.781C493.74 454.969 494.87 454.562 496.266 454.562C497.036 454.562 497.724 454.688 498.328 454.938C498.943 455.177 499.464 455.521 499.891 455.969C500.318 456.417 500.641 456.953 500.859 457.578L500.922 457.75H503.781L503.734 457.547C503.484 456.453 503.016 455.495 502.328 454.672C501.641 453.849 500.781 453.214 499.75 452.766C498.729 452.307 497.578 452.078 496.297 452.078C494.464 452.078 492.891 452.552 491.578 453.5C490.276 454.448 489.276 455.823 488.578 457.625C487.891 459.417 487.547 461.578 487.547 464.109V464.141C487.547 466.234 487.792 468 488.281 469.438C488.781 470.865 489.443 472.016 490.266 472.891C491.099 473.766 492.021 474.401 493.031 474.797C494.042 475.182 495.068 475.375 496.109 475.375Z" fill="#E5E5E5"/>
<path d="M479.703 347H494.578V344.5H482.734L483.562 345.281V343.547L482.734 345.281L488.922 338.938C490.307 337.521 491.38 336.333 492.141 335.375C492.901 334.406 493.432 333.536 493.734 332.766C494.047 331.995 494.203 331.198 494.203 330.375V330.344C494.203 329.167 493.896 328.104 493.281 327.156C492.677 326.208 491.844 325.458 490.781 324.906C489.719 324.354 488.505 324.078 487.141 324.078C485.745 324.078 484.469 324.375 483.312 324.969C482.167 325.552 481.255 326.359 480.578 327.391C479.901 328.411 479.562 329.573 479.562 330.875V330.969H482.281V330.891C482.281 330.078 482.495 329.344 482.922 328.688C483.349 328.031 483.932 327.51 484.672 327.125C485.411 326.729 486.25 326.531 487.188 326.531C488.01 326.531 488.734 326.703 489.359 327.047C489.995 327.38 490.49 327.844 490.844 328.438C491.208 329.031 491.391 329.714 491.391 330.484V330.516C491.391 331.141 491.286 331.729 491.078 332.281C490.88 332.833 490.51 333.458 489.969 334.156C489.438 334.844 488.661 335.719 487.641 336.781L479.703 345.062V347ZM497.828 347H512.703V344.5H500.859L501.688 345.281V343.547L500.859 345.281L507.047 338.938C508.432 337.521 509.505 336.333 510.266 335.375C511.026 334.406 511.557 333.536 511.859 332.766C512.172 331.995 512.328 331.198 512.328 330.375V330.344C512.328 329.167 512.021 328.104 511.406 327.156C510.802 326.208 509.969 325.458 508.906 324.906C507.844 324.354 506.63 324.078 505.266 324.078C503.87 324.078 502.594 324.375 501.438 324.969C500.292 325.552 499.38 326.359 498.703 327.391C498.026 328.411 497.688 329.573 497.688 330.875V330.969H500.406V330.891C500.406 330.078 500.62 329.344 501.047 328.688C501.474 328.031 502.057 327.51 502.797 327.125C503.536 326.729 504.375 326.531 505.312 326.531C506.135 326.531 506.859 326.703 507.484 327.047C508.12 327.38 508.615 327.844 508.969 328.438C509.333 329.031 509.516 329.714 509.516 330.484V330.516C509.516 331.141 509.411 331.729 509.203 332.281C509.005 332.833 508.635 333.458 508.094 334.156C507.562 334.844 506.786 335.719 505.766 336.781L497.828 345.062V347Z" fill="black"/>
<path d="M487.125 283H489.844V260.453H487.094L481.094 264.766V267.594L487.062 263.438H487.125V283ZM503.312 283.375C504.875 283.375 506.26 283.052 507.469 282.406C508.677 281.75 509.625 280.844 510.312 279.688C511 278.531 511.344 277.203 511.344 275.703V275.672C511.344 274.224 511.021 272.943 510.375 271.828C509.74 270.703 508.859 269.818 507.734 269.172C506.62 268.526 505.339 268.203 503.891 268.203C503.161 268.203 502.474 268.292 501.828 268.469C501.182 268.646 500.599 268.906 500.078 269.25C499.557 269.594 499.12 270.021 498.766 270.531H498.703L499.469 262.953H510.062V260.453H497.156L496 273.312H498.484C498.63 273.052 498.792 272.812 498.969 272.594C499.156 272.375 499.349 272.172 499.547 271.984C500.047 271.526 500.62 271.188 501.266 270.969C501.922 270.74 502.63 270.625 503.391 270.625C504.391 270.625 505.276 270.844 506.047 271.281C506.818 271.719 507.422 272.323 507.859 273.094C508.307 273.854 508.531 274.729 508.531 275.719V275.75C508.531 276.76 508.312 277.656 507.875 278.438C507.438 279.208 506.828 279.812 506.047 280.25C505.266 280.688 504.365 280.906 503.344 280.906C502.448 280.906 501.641 280.734 500.922 280.391C500.203 280.047 499.62 279.578 499.172 278.984C498.724 278.38 498.453 277.708 498.359 276.969L498.344 276.844H495.578L495.594 277.016C495.708 278.234 496.104 279.323 496.781 280.281C497.458 281.24 498.354 281.995 499.469 282.547C500.594 283.099 501.875 283.375 503.312 283.375Z" fill="black"/>
<path d="M496 219.375C497.594 219.375 499.005 219.099 500.234 218.547C501.474 217.995 502.443 217.234 503.141 216.266C503.839 215.286 504.188 214.167 504.188 212.906V212.875C504.188 211.948 503.984 211.089 503.578 210.297C503.172 209.505 502.604 208.833 501.875 208.281C501.156 207.719 500.312 207.328 499.344 207.109V207.047C500.583 206.661 501.562 206.026 502.281 205.141C503.01 204.255 503.375 203.219 503.375 202.031V202C503.375 200.865 503.057 199.854 502.422 198.969C501.786 198.073 500.911 197.37 499.797 196.859C498.693 196.339 497.427 196.078 496 196.078C494.583 196.078 493.318 196.339 492.203 196.859C491.089 197.37 490.214 198.073 489.578 198.969C488.943 199.854 488.625 200.865 488.625 202V202.031C488.625 203.219 488.99 204.255 489.719 205.141C490.448 206.026 491.427 206.661 492.656 207.047V207.109C491.698 207.328 490.854 207.719 490.125 208.281C489.396 208.833 488.828 209.505 488.422 210.297C488.016 211.089 487.812 211.948 487.812 212.875V212.906C487.812 214.167 488.161 215.286 488.859 216.266C489.568 217.234 490.536 217.995 491.766 218.547C492.995 219.099 494.406 219.375 496 219.375ZM496 216.922C494.969 216.922 494.052 216.745 493.25 216.391C492.448 216.026 491.818 215.531 491.359 214.906C490.901 214.271 490.672 213.547 490.672 212.734V212.703C490.672 211.88 490.896 211.151 491.344 210.516C491.802 209.88 492.432 209.38 493.234 209.016C494.036 208.651 494.958 208.469 496 208.469C497.042 208.469 497.964 208.651 498.766 209.016C499.568 209.38 500.193 209.88 500.641 210.516C501.099 211.151 501.328 211.88 501.328 212.703V212.734C501.328 213.547 501.099 214.271 500.641 214.906C500.182 215.531 499.552 216.026 498.75 216.391C497.958 216.745 497.042 216.922 496 216.922ZM496 206C495.094 206 494.297 205.844 493.609 205.531C492.922 205.208 492.385 204.766 492 204.203C491.615 203.641 491.422 202.995 491.422 202.266V202.234C491.422 201.505 491.615 200.859 492 200.297C492.385 199.734 492.922 199.297 493.609 198.984C494.297 198.661 495.094 198.5 496 198.5C496.906 198.5 497.703 198.661 498.391 198.984C499.078 199.297 499.615 199.734 500 200.297C500.385 200.859 500.578 201.505 500.578 202.234V202.266C500.578 202.995 500.385 203.641 500 204.203C499.615 204.766 499.078 205.208 498.391 205.531C497.703 205.844 496.906 206 496 206Z" fill="black"/>
<path d="M496.484 155H499.203V132.453H496.453L490.453 136.766V139.594L496.422 135.438H496.484V155Z" fill="black"/>
<path d="M47.1562 62H54.9688V57.5273H58.4258V51.1797H54.9688V33.8164H43.5234C42.8464 34.9492 42.1628 36.0885 41.4727 37.2344C40.7956 38.3672 40.112 39.5065 39.4219 40.6523C38.7448 41.7852 38.0612 42.918 37.3711 44.0508C36.694 45.1836 36.0104 46.3229 35.3203 47.4688C34.6432 48.6016 33.9661 49.7344 33.2891 50.8672V57.5273H47.1562V62ZM40.0664 51.5117V51.2773C40.5482 50.4831 41.0234 49.6888 41.4922 48.8945C41.974 48.1003 42.4557 47.306 42.9375 46.5117C43.4193 45.7044 43.8945 44.9036 44.3633 44.1094C44.8451 43.3151 45.3203 42.5208 45.7891 41.7266C46.2708 40.9323 46.7526 40.138 47.2344 39.3438H47.3906V51.5117H40.0664ZM70.1772 43.56V50H75.4972V43.56H70.1772ZM87.0972 28.52V49.96H92.4172V28.52H87.0972ZM61.8172 45.2C68.7372 45.24 77.1772 45.16 85.2172 44.04L84.9372 40.76C77.1372 41.52 68.3772 41.52 61.2572 41.52L61.8172 45.2ZM66.4972 51.08V54.68H87.1372V56.44H66.5772V62.68H71.8172V59.76H92.4172V51.08H66.4972ZM66.5772 61.68V65.32H93.2572V61.68H66.5772ZM80.5372 45.68V48.84H88.7372V45.68H80.5372ZM73.0172 29.04C67.4572 29.04 63.7372 31.24 63.7372 34.6C63.7372 38 67.4572 40.16 73.0172 40.16C78.5372 40.16 82.2572 38 82.2572 34.6C82.2572 31.24 78.5372 29.04 73.0172 29.04ZM73.0172 32.52C75.6572 32.52 77.2972 33.24 77.2972 34.6C77.2972 35.96 75.6572 36.64 73.0172 36.64C70.3372 36.64 68.6972 35.96 68.6972 34.6C68.6972 33.24 70.3372 32.52 73.0172 32.52Z" fill="#A35F23"/>
</svg>
