<svg width="37" height="37" viewBox="0 0 37 37" fill="none" xmlns="http://www.w3.org/2000/svg">
<path opacity="0.25" fill-rule="evenodd" clip-rule="evenodd" d="M18.5 36C28.165 36 36 28.165 36 18.5C36 8.83502 28.165 1 18.5 1C8.83502 1 1 8.83502 1 18.5C1 28.165 8.83502 36 18.5 36Z" stroke="white" stroke-width="1.5"/>
<path d="M20.0932 14.0206H21.7016C21.8495 14.0206 21.9696 13.9075 21.9696 13.768V12.2524C21.9696 12.113 21.8495 11.9998 21.7016 11.9998H20.0932C18.4677 11.9998 17.1445 13.2462 17.1445 14.7784V16.5466H15.2681C15.1201 16.5466 15 16.6598 15 16.7992V18.3148C15 18.4542 15.1201 18.5674 15.2681 18.5674H17.1445V23.8719C17.1445 24.0114 17.2646 24.1245 17.4126 24.1245H19.0209C19.1689 24.1245 19.289 24.0114 19.289 23.8719V18.5674H21.1655C21.2807 18.5674 21.3831 18.4977 21.4201 18.3946L21.9562 16.879C21.9836 16.8022 21.9696 16.7174 21.9192 16.6512C21.8683 16.5855 21.7879 16.5466 21.7016 16.5466H19.289V14.7784C19.289 14.3606 19.6498 14.0206 20.0932 14.0206Z" fill="white"/>
</svg>
