<svg width="120" height="126" viewBox="0 0 120 126" fill="none" xmlns="http://www.w3.org/2000/svg">
<path d="M0 36H119.99V116.4C119.99 119.76 119.99 121.44 119.336 122.724C118.761 123.853 117.843 124.771 116.714 125.346C115.43 126 113.75 126 110.39 126H9.6C6.23968 126 4.55953 126 3.27606 125.346C2.14708 124.771 1.2292 123.853 0.653961 122.724C0 121.44 0 119.76 0 116.4V36Z" fill="white"/>
<path d="M0 15.6C0 12.2397 0 10.5595 0.653961 9.27606C1.2292 8.14708 2.14708 7.2292 3.27606 6.65396C4.55953 6 6.23969 6 9.6 6H110.39C113.75 6 115.43 6 116.714 6.65396C117.843 7.2292 118.761 8.14708 119.336 9.27606C119.99 10.5595 119.99 12.2397 119.99 15.6V36H0V15.6Z" fill="#338C37"/>
<g filter="url(#filter0_d_877_39945)">
<rect x="20.9961" width="5.9995" height="12" rx="2.99975" fill="#B5FFB8"/>
<rect x="32.9961" width="5.9995" height="12" rx="2.99975" fill="#B5FFB8"/>
<rect x="44.9961" width="5.9995" height="12" rx="2.99975" fill="#B5FFB8"/>
<rect x="56.9941" width="5.9995" height="12" rx="2.99975" fill="#B5FFB8"/>
<rect x="68.9941" width="5.9995" height="12" rx="2.99975" fill="#B5FFB8"/>
<rect x="80.9922" width="5.9995" height="12" rx="2.99975" fill="#B5FFB8"/>
<rect x="92.9902" width="5.9995" height="12" rx="2.99975" fill="#B5FFB8"/>
<rect x="104.99" width="5.9995" height="12" rx="2.99975" fill="#B5FFB8"/>
<rect x="8.99805" width="5.9995" height="12" rx="2.99975" fill="#B5FFB8"/>
</g>
<defs>
<filter id="filter0_d_877_39945" x="8.24805" y="0" width="103.492" height="13.5" filterUnits="userSpaceOnUse" color-interpolation-filters="sRGB">
<feFlood flood-opacity="0" result="BackgroundImageFix"/>
<feColorMatrix in="SourceAlpha" type="matrix" values="0 0 0 0 0 0 0 0 0 0 0 0 0 0 0 0 0 0 127 0" result="hardAlpha"/>
<feOffset dy="0.75"/>
<feGaussianBlur stdDeviation="0.375"/>
<feComposite in2="hardAlpha" operator="out"/>
<feColorMatrix type="matrix" values="0 0 0 0 0 0 0 0 0 0 0 0 0 0 0 0 0 0 0.25 0"/>
<feBlend mode="normal" in2="BackgroundImageFix" result="effect1_dropShadow_877_39945"/>
<feBlend mode="normal" in="SourceGraphic" in2="effect1_dropShadow_877_39945" result="shape"/>
</filter>
</defs>
</svg>
